<?xml version="1.0" encoding="UTF-8" standalone="no"?>
<!DOCTYPE svg PUBLIC "-//W3C//DTD SVG 1.1//EN"
 "http://www.w3.org/Graphics/SVG/1.1/DTD/svg11.dtd">
<!-- Generated by graphviz version 9.0.0 (20230911.1827)
 -->
<!-- Title: Harmonie Pages: 1 -->
<svg width="1039pt" height="950pt"
 viewBox="0.00 0.00 1039.12 949.50" xmlns="http://www.w3.org/2000/svg" xmlns:xlink="http://www.w3.org/1999/xlink">
<g id="graph0" class="graph" transform="scale(1 1) rotate(0) translate(4 945.5)">
<title>Harmonie</title>
<polygon fill="white" stroke="none" points="-4,4 -4,-945.5 1035.12,-945.5 1035.12,4 -4,4"/>
<!-- Prepare_ob -->
<g id="node1" class="node">
<title>Prepare_ob</title>
<g id="a_node1"><a xlink:href="../Observations/ObservationData/index.html" xlink:title="Prepare_ob">
<polygon fill="none" stroke="black" points="501.38,-941.5 404.38,-941.5 404.38,-905.5 501.38,-905.5 501.38,-941.5"/>
<text text-anchor="middle" x="452.88" y="-918.83" font-family="Times,serif" font-size="14.00">Prepare_ob</text>
</a>
</g>
</g>
<!-- obYYYYMMDD -->
<g id="node12" class="node">
<title>obYYYYMMDD</title>
<polygon fill="none" stroke="black" points="559.5,-868.5 340.25,-868.5 340.25,-832.5 565.5,-832.5 565.5,-862.5 559.5,-868.5"/>
<polyline fill="none" stroke="black" points="559.5,-868.5 559.5,-862.5"/>
<polyline fill="none" stroke="black" points="565.5,-862.5 559.5,-862.5"/>
<text text-anchor="middle" x="452.88" y="-845.83" font-family="Times,serif" font-size="14.00">observations/ob$YYYYMMDD</text>
</g>
<!-- Prepare_ob&#45;&gt;obYYYYMMDD -->
<g id="edge1" class="edge">
<title>Prepare_ob&#45;&gt;obYYYYMMDD</title>
<path fill="none" stroke="black" d="M452.88,-905.31C452.88,-897.73 452.88,-888.6 452.88,-880.04"/>
<polygon fill="black" stroke="black" points="456.38,-880.04 452.88,-870.04 449.38,-880.04 456.38,-880.04"/>
</g>
<!-- Bator -->
<g id="node2" class="node">
<title>Bator</title>
<g id="a_node2"><a xlink:href="../Observations/Bator/index.html" xlink:title="Bator">
<polygon fill="none" stroke="black" points="717.75,-649.5 662,-649.5 662,-613.5 717.75,-613.5 717.75,-649.5"/>
<text text-anchor="middle" x="689.88" y="-626.83" font-family="Times,serif" font-size="14.00">Bator</text>
</a>
</g>
</g>
<!-- odb -->
<g id="node14" class="node">
<title>odb</title>
<path fill="none" stroke="black" d="M557.88,-573.23C557.88,-575.03 545.77,-576.5 530.88,-576.5 515.98,-576.5 503.88,-575.03 503.88,-573.23 503.88,-573.23 503.88,-543.77 503.88,-543.77 503.88,-541.97 515.98,-540.5 530.88,-540.5 545.77,-540.5 557.88,-541.97 557.88,-543.77 557.88,-543.77 557.88,-573.23 557.88,-573.23"/>
<path fill="none" stroke="black" d="M557.88,-573.23C557.88,-571.42 545.77,-569.95 530.88,-569.95 515.98,-569.95 503.88,-571.42 503.88,-573.23"/>
<text text-anchor="middle" x="530.88" y="-553.83" font-family="Times,serif" font-size="14.00">odb</text>
</g>
<!-- Bator&#45;&gt;odb -->
<g id="edge10" class="edge">
<title>Bator&#45;&gt;odb</title>
<path fill="none" stroke="black" d="M661.93,-618.49C638.99,-608.58 605.43,-593.94 568.37,-577.13"/>
<polygon fill="black" stroke="black" points="570.29,-574.16 559.73,-573.2 567.39,-580.53 570.29,-574.16"/>
</g>
<!-- odb_can_ori -->
<g id="node19" class="node">
<title>odb_can_ori</title>
<path fill="none" stroke="black" d="M899.88,-573.23C899.88,-575.03 877.46,-576.5 849.88,-576.5 822.29,-576.5 799.88,-575.03 799.88,-573.23 799.88,-573.23 799.88,-543.77 799.88,-543.77 799.88,-541.97 822.29,-540.5 849.88,-540.5 877.46,-540.5 899.88,-541.97 899.88,-543.77 899.88,-543.77 899.88,-573.23 899.88,-573.23"/>
<path fill="none" stroke="black" d="M899.88,-573.23C899.88,-571.42 877.46,-569.95 849.88,-569.95 822.29,-569.95 799.88,-571.42 799.88,-573.23"/>
<text text-anchor="middle" x="849.88" y="-553.83" font-family="Times,serif" font-size="14.00">odb_can_ori</text>
</g>
<!-- Bator&#45;&gt;odb_can_ori -->
<g id="edge11" class="edge">
<title>Bator&#45;&gt;odb_can_ori</title>
<path fill="none" stroke="black" d="M718.11,-617.97C741.16,-607.74 774.25,-593.06 801.5,-580.96"/>
<polygon fill="black" stroke="black" points="802.91,-584.17 810.63,-576.92 800.07,-577.77 802.91,-584.17"/>
</g>
<!-- Oulan -->
<g id="node3" class="node">
<title>Oulan</title>
<g id="a_node3"><a xlink:href="../Observations/Oulan/index.html" xlink:title="Oulan">
<polygon fill="none" stroke="black" points="542.88,-795.5 484.88,-795.5 484.88,-759.5 542.88,-759.5 542.88,-795.5"/>
<text text-anchor="middle" x="513.88" y="-772.83" font-family="Times,serif" font-size="14.00">Oulan</text>
</a>
</g>
</g>
<!-- OBSOUL -->
<g id="node13" class="node">
<title>OBSOUL</title>
<polygon fill="none" stroke="black" points="586.5,-722.5 469.25,-722.5 469.25,-686.5 592.5,-686.5 592.5,-716.5 586.5,-722.5"/>
<polyline fill="none" stroke="black" points="586.5,-722.5 586.5,-716.5"/>
<polyline fill="none" stroke="black" points="592.5,-716.5 586.5,-716.5"/>
<text text-anchor="middle" x="530.88" y="-699.83" font-family="Times,serif" font-size="14.00">oulan/OBSOUL</text>
</g>
<!-- Oulan&#45;&gt;OBSOUL -->
<g id="edge7" class="edge">
<title>Oulan&#45;&gt;OBSOUL</title>
<path fill="none" stroke="black" d="M517.99,-759.31C519.85,-751.55 522.09,-742.18 524.18,-733.45"/>
<polygon fill="black" stroke="black" points="527.52,-734.54 526.45,-724 520.71,-732.91 527.52,-734.54"/>
</g>
<!-- FirstGuess -->
<g id="node4" class="node">
<title>FirstGuess</title>
<polygon fill="none" stroke="black" points="396.88,-649.5 302.88,-649.5 302.88,-613.5 396.88,-613.5 396.88,-649.5"/>
<text text-anchor="middle" x="349.88" y="-626.83" font-family="Times,serif" font-size="14.00">FirstGuess</text>
</g>
<!-- first_guess -->
<g id="node21" class="node">
<title>first_guess</title>
<polygon fill="none" stroke="black" points="340.5,-576.5 253.25,-576.5 253.25,-540.5 346.5,-540.5 346.5,-570.5 340.5,-576.5"/>
<polyline fill="none" stroke="black" points="340.5,-576.5 340.5,-570.5"/>
<polyline fill="none" stroke="black" points="346.5,-570.5 340.5,-570.5"/>
<text text-anchor="middle" x="299.88" y="-553.83" font-family="Times,serif" font-size="14.00">first_guess</text>
</g>
<!-- FirstGuess&#45;&gt;first_guess -->
<g id="edge4" class="edge">
<title>FirstGuess&#45;&gt;first_guess</title>
<path fill="none" stroke="black" d="M337.77,-613.31C331.94,-605.03 324.81,-594.91 318.32,-585.69"/>
<polygon fill="black" stroke="black" points="321.36,-583.93 312.74,-577.77 315.63,-587.96 321.36,-583.93"/>
</g>
<!-- first_guess_sfx -->
<g id="node22" class="node">
<title>first_guess_sfx</title>
<polygon fill="none" stroke="black" points="479.38,-576.5 364.38,-576.5 364.38,-540.5 485.38,-540.5 485.38,-570.5 479.38,-576.5"/>
<polyline fill="none" stroke="black" points="479.38,-576.5 479.38,-570.5"/>
<polyline fill="none" stroke="black" points="485.38,-570.5 479.38,-570.5"/>
<text text-anchor="middle" x="424.88" y="-553.83" font-family="Times,serif" font-size="14.00">first_guess_sfx</text>
</g>
<!-- FirstGuess&#45;&gt;first_guess_sfx -->
<g id="edge5" class="edge">
<title>FirstGuess&#45;&gt;first_guess_sfx</title>
<path fill="none" stroke="black" d="M368.03,-613.31C377.18,-604.66 388.43,-594 398.51,-584.46"/>
<polygon fill="black" stroke="black" points="400.67,-587.23 405.53,-577.82 395.86,-582.15 400.67,-587.23"/>
</g>
<!-- Fetch_assim_data -->
<g id="node5" class="node">
<title>Fetch_assim_data</title>
<polygon fill="none" stroke="black" points="170.88,-649.5 28.88,-649.5 28.88,-613.5 170.88,-613.5 170.88,-649.5"/>
<text text-anchor="middle" x="99.88" y="-626.83" font-family="Times,serif" font-size="14.00">Fetch_assim_data</text>
</g>
<!-- VarBC_very_fg -->
<g id="node24" class="node">
<title>VarBC_very_fg</title>
<g id="a_node24"><a xlink:title="VarBC very first guess">
<polygon fill="none" stroke="black" points="197.62,-576.5 102.12,-576.5 102.12,-540.5 203.62,-540.5 203.62,-570.5 197.62,-576.5"/>
<polyline fill="none" stroke="black" points="197.62,-576.5 197.62,-570.5"/>
<polyline fill="none" stroke="black" points="203.62,-570.5 197.62,-570.5"/>
<text text-anchor="middle" x="152.88" y="-553.83" font-family="Times,serif" font-size="14.00">VarBC.cycle</text>
</a>
</g>
</g>
<!-- Fetch_assim_data&#45;&gt;VarBC_very_fg -->
<g id="edge2" class="edge">
<title>Fetch_assim_data&#45;&gt;VarBC_very_fg</title>
<path fill="none" stroke="black" d="M112.7,-613.31C118.89,-605.03 126.44,-594.91 133.32,-585.69"/>
<polygon fill="black" stroke="black" points="136.08,-587.85 139.26,-577.74 130.47,-583.66 136.08,-587.85"/>
</g>
<!-- stabal96 -->
<g id="node27" class="node">
<title>stabal96</title>
<g id="a_node27"><a xlink:href="../DataAssimilation/Structurefunctions/index.html" xlink:title="Structure Functions">
<polygon fill="none" stroke="black" points="133.75,-522.5 0,-522.5 0,-486.5 139.75,-486.5 139.75,-516.5 133.75,-522.5"/>
<polyline fill="none" stroke="black" points="133.75,-522.5 133.75,-516.5"/>
<polyline fill="none" stroke="black" points="139.75,-516.5 133.75,-516.5"/>
<text text-anchor="middle" x="69.88" y="-499.82" font-family="Times,serif" font-size="14.00">stabal96.{cv,bal}</text>
</a>
</g>
</g>
<!-- Fetch_assim_data&#45;&gt;stabal96 -->
<g id="edge3" class="edge">
<title>Fetch_assim_data&#45;&gt;stabal96</title>
<path fill="none" stroke="black" d="M95.7,-613.12C90.78,-592.6 82.52,-558.17 76.66,-533.79"/>
<polygon fill="black" stroke="black" points="80.1,-533.11 74.36,-524.2 73.29,-534.75 80.1,-533.11"/>
</g>
<!-- Canari -->
<g id="node6" class="node">
<title>Canari</title>
<g id="a_node6"><a xlink:href="../DataAssimilation/Surface/CANARI/index.html" xlink:title="Canari">
<polygon fill="none" stroke="black" points="710.5,-468.5 647.25,-468.5 647.25,-432.5 710.5,-432.5 710.5,-468.5"/>
<text text-anchor="middle" x="678.88" y="-445.82" font-family="Times,serif" font-size="14.00">Canari</text>
</a>
</g>
</g>
<!-- ICMSHANALp0000sfx -->
<g id="node11" class="node">
<title>ICMSHANALp0000sfx</title>
<g id="a_node11"><a xlink:title="Surface Analysis">
<polygon fill="none" stroke="black" points="835.75,-395.5 660,-395.5 660,-359.5 841.75,-359.5 841.75,-389.5 835.75,-395.5"/>
<polyline fill="none" stroke="black" points="835.75,-395.5 835.75,-389.5"/>
<polyline fill="none" stroke="black" points="841.75,-389.5 835.75,-389.5"/>
<text text-anchor="middle" x="750.88" y="-372.82" font-family="Times,serif" font-size="14.00">ICMSHANAL+0000.sfx</text>
</a>
</g>
</g>
<!-- Canari&#45;&gt;ICMSHANALp0000sfx -->
<g id="edge16" class="edge">
<title>Canari&#45;&gt;ICMSHANALp0000sfx</title>
<path fill="none" stroke="black" d="M696.3,-432.31C705,-423.74 715.67,-413.21 725.28,-403.74"/>
<polygon fill="black" stroke="black" points="727.62,-406.35 732.28,-396.84 722.7,-401.37 727.62,-406.35"/>
</g>
<!-- odb_can_merge -->
<g id="node16" class="node">
<title>odb_can_merge</title>
<path fill="none" stroke="black" d="M642,-392.23C642,-394.03 613.71,-395.5 578.88,-395.5 544.04,-395.5 515.75,-394.03 515.75,-392.23 515.75,-392.23 515.75,-362.77 515.75,-362.77 515.75,-360.97 544.04,-359.5 578.88,-359.5 613.71,-359.5 642,-360.97 642,-362.77 642,-362.77 642,-392.23 642,-392.23"/>
<path fill="none" stroke="black" d="M642,-392.23C642,-390.42 613.71,-388.95 578.88,-388.95 544.04,-388.95 515.75,-390.42 515.75,-392.23"/>
<text text-anchor="middle" x="578.88" y="-372.82" font-family="Times,serif" font-size="14.00">odb_can_merge</text>
</g>
<!-- Canari&#45;&gt;odb_can_merge -->
<g id="edge17" class="edge">
<title>Canari&#45;&gt;odb_can_merge</title>
<path fill="none" stroke="black" d="M654.41,-432.13C641.82,-423.19 626.28,-412.16 612.57,-402.42"/>
<polygon fill="black" stroke="black" points="614.85,-399.75 604.67,-396.81 610.79,-405.45 614.85,-399.75"/>
</g>
<!-- odb_can -->
<g id="node18" class="node">
<title>odb_can</title>
<path fill="none" stroke="black" d="M933.75,-392.23C933.75,-394.03 917.22,-395.5 896.88,-395.5 876.53,-395.5 860,-394.03 860,-392.23 860,-392.23 860,-362.77 860,-362.77 860,-360.97 876.53,-359.5 896.88,-359.5 917.22,-359.5 933.75,-360.97 933.75,-362.77 933.75,-362.77 933.75,-392.23 933.75,-392.23"/>
<path fill="none" stroke="black" d="M933.75,-392.23C933.75,-390.42 917.22,-388.95 896.88,-388.95 876.53,-388.95 860,-390.42 860,-392.23"/>
<text text-anchor="middle" x="896.88" y="-372.82" font-family="Times,serif" font-size="14.00">odb_can</text>
</g>
<!-- Canari&#45;&gt;odb_can -->
<g id="edge18" class="edge">
<title>Canari&#45;&gt;odb_can</title>
<path fill="none" stroke="black" d="M710.73,-440.02C743.21,-430.24 795.27,-414.25 848.8,-396.13"/>
<polygon fill="black" stroke="black" points="849.75,-399.51 858.09,-392.97 847.5,-392.88 849.75,-399.51"/>
</g>
<!-- Screening -->
<g id="node7" class="node">
<title>Screening</title>
<g id="a_node7"><a xlink:href="../DataAssimilation/Screening/index.html" xlink:title="Screening">
<polygon fill="none" stroke="black" points="395.88,-468.5 307.88,-468.5 307.88,-432.5 395.88,-432.5 395.88,-468.5"/>
<text text-anchor="middle" x="351.88" y="-445.82" font-family="Times,serif" font-size="14.00">Screening</text>
</a>
</g>
</g>
<!-- odb_ccma -->
<g id="node15" class="node">
<title>odb_ccma</title>
<path fill="none" stroke="black" d="M497.75,-392.23C497.75,-394.03 478.53,-395.5 454.88,-395.5 431.22,-395.5 412,-394.03 412,-392.23 412,-392.23 412,-362.77 412,-362.77 412,-360.97 431.22,-359.5 454.88,-359.5 478.53,-359.5 497.75,-360.97 497.75,-362.77 497.75,-362.77 497.75,-392.23 497.75,-392.23"/>
<path fill="none" stroke="black" d="M497.75,-392.23C497.75,-390.42 478.53,-388.95 454.88,-388.95 431.22,-388.95 412,-390.42 412,-392.23"/>
<text text-anchor="middle" x="454.88" y="-372.82" font-family="Times,serif" font-size="14.00">odb_ccma</text>
</g>
<!-- Screening&#45;&gt;odb_ccma -->
<g id="edge22" class="edge">
<title>Screening&#45;&gt;odb_ccma</title>
<path fill="none" stroke="black" d="M377.07,-432.13C390.14,-423.13 406.29,-411.99 420.49,-402.21"/>
<polygon fill="black" stroke="black" points="422.45,-405.11 428.69,-396.55 418.47,-399.34 422.45,-405.11"/>
</g>
<!-- odbvar -->
<g id="node17" class="node">
<title>odbvar</title>
<path fill="none" stroke="black" d="M393.62,-392.23C393.62,-394.03 378.95,-395.5 360.88,-395.5 342.8,-395.5 328.12,-394.03 328.12,-392.23 328.12,-392.23 328.12,-362.77 328.12,-362.77 328.12,-360.97 342.8,-359.5 360.88,-359.5 378.95,-359.5 393.62,-360.97 393.62,-362.77 393.62,-362.77 393.62,-392.23 393.62,-392.23"/>
<path fill="none" stroke="black" d="M393.62,-392.23C393.62,-390.42 378.95,-388.95 360.88,-388.95 342.8,-388.95 328.12,-390.42 328.12,-392.23"/>
<text text-anchor="middle" x="360.88" y="-372.82" font-family="Times,serif" font-size="14.00">odbvar</text>
</g>
<!-- Screening&#45;&gt;odbvar -->
<g id="edge23" class="edge">
<title>Screening&#45;&gt;odbvar</title>
<path fill="none" stroke="black" d="M354.05,-432.31C355.03,-424.64 356.2,-415.39 357.29,-406.74"/>
<polygon fill="black" stroke="black" points="360.74,-407.39 358.53,-397.03 353.8,-406.51 360.74,-407.39"/>
</g>
<!-- VarBC_fg -->
<g id="node25" class="node">
<title>VarBC_fg</title>
<g id="a_node25"><a xlink:title="VarBC first guess">
<polygon fill="none" stroke="black" points="303.62,-395.5 208.12,-395.5 208.12,-359.5 309.62,-359.5 309.62,-389.5 303.62,-395.5"/>
<polyline fill="none" stroke="black" points="303.62,-395.5 303.62,-389.5"/>
<polyline fill="none" stroke="black" points="309.62,-389.5 303.62,-389.5"/>
<text text-anchor="middle" x="258.88" y="-372.82" font-family="Times,serif" font-size="14.00">VarBC.cycle</text>
</a>
</g>
</g>
<!-- Screening&#45;&gt;VarBC_fg -->
<g id="edge24" class="edge">
<title>Screening&#45;&gt;VarBC_fg</title>
<path fill="none" stroke="black" d="M329.36,-432.31C317.68,-423.4 303.22,-412.36 290.45,-402.6"/>
<polygon fill="black" stroke="black" points="292.78,-399.98 282.71,-396.69 288.53,-405.54 292.78,-399.98"/>
</g>
<!-- Minim -->
<g id="node8" class="node">
<title>Minim</title>
<g id="a_node8"><a xlink:href="http://www.umr-cnrm.fr/gmapdoc/IMG/pdf/ykminim45.pdf" xlink:title="Minim">
<polygon fill="none" stroke="black" points="289.75,-306.25 228,-306.25 228,-270.25 289.75,-270.25 289.75,-306.25"/>
<text text-anchor="middle" x="258.88" y="-283.57" font-family="Times,serif" font-size="14.00">Minim</text>
</a>
</g>
</g>
<!-- MXMIN1999p0000 -->
<g id="node10" class="node">
<title>MXMIN1999p0000</title>
<g id="a_node10"><a xlink:title="Upper air Analysis">
<polygon fill="none" stroke="black" points="596.62,-198.25 447.12,-198.25 447.12,-162.25 602.62,-162.25 602.62,-192.25 596.62,-198.25"/>
<polyline fill="none" stroke="black" points="596.62,-198.25 596.62,-192.25"/>
<polyline fill="none" stroke="black" points="602.62,-192.25 596.62,-192.25"/>
<text text-anchor="middle" x="524.88" y="-175.57" font-family="Times,serif" font-size="14.00">MXMIN1999+0000</text>
</a>
</g>
</g>
<!-- Minim&#45;&gt;MXMIN1999p0000 -->
<g id="edge28" class="edge">
<title>Minim&#45;&gt;MXMIN1999p0000</title>
<path fill="none" stroke="black" d="M290.17,-274.78C334.59,-257.08 416.55,-224.42 470.9,-202.76"/>
<polygon fill="black" stroke="black" points="471.98,-206.1 479.97,-199.14 469.39,-199.59 471.98,-206.1"/>
</g>
<!-- VarBC_an -->
<g id="node26" class="node">
<title>VarBC_an</title>
<g id="a_node26"><a xlink:title="VarBC analysis">
<polygon fill="none" stroke="black" points="303.62,-198.25 208.12,-198.25 208.12,-162.25 309.62,-162.25 309.62,-192.25 303.62,-198.25"/>
<polyline fill="none" stroke="black" points="303.62,-198.25 303.62,-192.25"/>
<polyline fill="none" stroke="black" points="309.62,-192.25 303.62,-192.25"/>
<text text-anchor="middle" x="258.88" y="-175.57" font-family="Times,serif" font-size="14.00">VarBC.cycle</text>
</a>
</g>
</g>
<!-- Minim&#45;&gt;VarBC_an -->
<g id="edge29" class="edge">
<title>Minim&#45;&gt;VarBC_an</title>
<path fill="none" stroke="black" d="M258.88,-270.22C258.88,-254.01 258.88,-229.31 258.88,-210.04"/>
<polygon fill="black" stroke="black" points="262.38,-210.1 258.88,-200.1 255.38,-210.1 262.38,-210.1"/>
</g>
<!-- Forecast -->
<g id="node9" class="node">
<title>Forecast</title>
<g id="a_node9"><a xlink:href="../ForecastModel/Forecast/index.html" xlink:title="Forecast">
<polygon fill="none" stroke="black" points="687.62,-36 610.12,-36 610.12,0 687.62,0 687.62,-36"/>
<text text-anchor="middle" x="648.88" y="-13.32" font-family="Times,serif" font-size="14.00">Forecast</text>
</a>
</g>
</g>
<!-- fc_start -->
<g id="node20" class="node">
<title>fc_start</title>
<polygon fill="none" stroke="black" points="630.88,-109 566.88,-109 566.88,-73 636.88,-73 636.88,-103 630.88,-109"/>
<polyline fill="none" stroke="black" points="630.88,-109 630.88,-103"/>
<polyline fill="none" stroke="black" points="636.88,-103 630.88,-103"/>
<text text-anchor="middle" x="601.88" y="-86.33" font-family="Times,serif" font-size="14.00">fc_start</text>
</g>
<!-- MXMIN1999p0000&#45;&gt;fc_start -->
<g id="edge37" class="edge">
<title>MXMIN1999p0000&#45;&gt;fc_start</title>
<path fill="none" stroke="black" stroke-dasharray="5,2" d="M540.09,-162.01C551.27,-149.35 566.64,-131.92 579.26,-117.63"/>
<polygon fill="black" stroke="black" points="581.7,-120.15 585.69,-110.34 576.45,-115.52 581.7,-120.15"/>
<text text-anchor="middle" x="593.75" y="-130.95" font-family="Times,serif" font-size="14.00">Minim</text>
</g>
<!-- fc_start_sfx -->
<g id="node23" class="node">
<title>fc_start_sfx</title>
<polygon fill="none" stroke="black" points="763.75,-252.25 672,-252.25 672,-216.25 769.75,-216.25 769.75,-246.25 763.75,-252.25"/>
<polyline fill="none" stroke="black" points="763.75,-252.25 763.75,-246.25"/>
<polyline fill="none" stroke="black" points="769.75,-246.25 763.75,-246.25"/>
<text text-anchor="middle" x="720.88" y="-229.57" font-family="Times,serif" font-size="14.00">fc_start_sfx</text>
</g>
<!-- ICMSHANALp0000sfx&#45;&gt;fc_start_sfx -->
<g id="edge36" class="edge">
<title>ICMSHANALp0000sfx&#45;&gt;fc_start_sfx</title>
<path fill="none" stroke="black" stroke-dasharray="5,2" d="M747.2,-359.18C742.14,-335.35 732.97,-292.17 726.9,-263.6"/>
<polygon fill="black" stroke="black" points="730.4,-263.25 724.9,-254.19 723.55,-264.7 730.4,-263.25"/>
<text text-anchor="middle" x="767.5" y="-328.2" font-family="Times,serif" font-size="14.00">Canari</text>
</g>
<!-- obYYYYMMDD&#45;&gt;Bator -->
<g id="edge8" class="edge">
<title>obYYYYMMDD&#45;&gt;Bator</title>
<path fill="none" stroke="black" d="M447.54,-832.14C438.67,-799.5 425.1,-728.5 459.88,-686.5 483.85,-657.55 591.39,-642.37 650.55,-636.09"/>
<polygon fill="black" stroke="black" points="650.6,-639.6 660.19,-635.1 649.88,-632.64 650.6,-639.6"/>
</g>
<!-- obYYYYMMDD&#45;&gt;Oulan -->
<g id="edge6" class="edge">
<title>obYYYYMMDD&#45;&gt;Oulan</title>
<path fill="none" stroke="black" d="M467.64,-832.31C474.91,-823.85 483.82,-813.48 491.87,-804.11"/>
<polygon fill="black" stroke="black" points="494.4,-806.54 498.26,-796.68 489.09,-801.98 494.4,-806.54"/>
</g>
<!-- OBSOUL&#45;&gt;Bator -->
<g id="edge9" class="edge">
<title>OBSOUL&#45;&gt;Bator</title>
<path fill="none" stroke="black" d="M569.77,-686.13C594.6,-675.05 626.65,-660.73 651.39,-649.68"/>
<polygon fill="black" stroke="black" points="652.76,-652.9 660.47,-645.63 649.91,-646.51 652.76,-652.9"/>
</g>
<!-- odb&#45;&gt;Screening -->
<g id="edge19" class="edge">
<title>odb&#45;&gt;Screening</title>
<path fill="none" stroke="black" d="M504.08,-541.63C474.07,-523.86 425.18,-494.91 390.92,-474.62"/>
<polygon fill="black" stroke="black" points="392.93,-471.74 382.54,-469.66 389.36,-477.77 392.93,-471.74"/>
</g>
<!-- odb_ccma&#45;&gt;Minim -->
<g id="edge25" class="edge">
<title>odb_ccma&#45;&gt;Minim</title>
<path fill="none" stroke="black" d="M418.01,-360.09C384.54,-345.19 335.24,-323.25 300.4,-307.74"/>
<polygon fill="black" stroke="black" points="302.03,-304.63 291.47,-303.76 299.18,-311.02 302.03,-304.63"/>
</g>
<!-- odb_can_ori&#45;&gt;Canari -->
<g id="edge12" class="edge">
<title>odb_can_ori&#45;&gt;Canari</title>
<path fill="none" stroke="black" d="M822.02,-540.23C793.29,-522.42 748.3,-494.54 716.44,-474.78"/>
<polygon fill="black" stroke="black" points="718.63,-472.03 708.29,-469.73 714.94,-477.98 718.63,-472.03"/>
</g>
<!-- fc_start&#45;&gt;Forecast -->
<g id="edge30" class="edge">
<title>fc_start&#45;&gt;Forecast</title>
<path fill="none" stroke="black" d="M613.25,-72.81C618.68,-64.62 625.29,-54.62 631.34,-45.48"/>
<polygon fill="black" stroke="black" points="634.17,-47.56 636.77,-37.29 628.33,-43.7 634.17,-47.56"/>
</g>
<!-- first_guess&#45;&gt;Canari -->
<g id="edge13" class="edge">
<title>first_guess&#45;&gt;Canari</title>
<path fill="none" stroke="black" d="M346.31,-540.09C388.74,-524.62 453.43,-502.09 510.88,-486.5 552.98,-475.07 601.89,-465.27 636.04,-458.97"/>
<polygon fill="black" stroke="black" points="636.32,-462.47 645.54,-457.24 635.07,-455.58 636.32,-462.47"/>
</g>
<!-- first_guess&#45;&gt;Screening -->
<g id="edge20" class="edge">
<title>first_guess&#45;&gt;Screening</title>
<path fill="none" stroke="black" d="M308.23,-540.47C316.37,-523.88 328.88,-498.38 338.42,-478.93"/>
<polygon fill="black" stroke="black" points="341.44,-480.72 342.7,-470.2 335.16,-477.64 341.44,-480.72"/>
</g>
<!-- first_guess&#45;&gt;Minim -->
<g id="edge26" class="edge">
<title>first_guess&#45;&gt;Minim</title>
<path fill="none" stroke="black" d="M284.38,-540.18C260.49,-512.17 215.65,-454.13 198.88,-395.5 194.47,-380.12 193.34,-374.51 198.88,-359.5 205.19,-342.38 217.74,-326.61 229.74,-314.36"/>
<polygon fill="black" stroke="black" points="232.04,-317 236.78,-307.53 227.17,-311.98 232.04,-317"/>
</g>
<!-- first_guess_sfx&#45;&gt;Canari -->
<g id="edge14" class="edge">
<title>first_guess_sfx&#45;&gt;Canari</title>
<path fill="none" stroke="black" d="M466.53,-540.11C513.41,-520.55 589.15,-488.94 636.37,-469.24"/>
<polygon fill="black" stroke="black" points="637.58,-472.53 645.46,-465.44 634.88,-466.07 637.58,-472.53"/>
</g>
<!-- fc_start_sfx&#45;&gt;Forecast -->
<g id="edge31" class="edge">
<title>fc_start_sfx&#45;&gt;Forecast</title>
<path fill="none" stroke="black" d="M715.1,-216.08C702.7,-179.18 673.41,-92.01 658.28,-46.99"/>
<polygon fill="black" stroke="black" points="661.66,-46.05 655.15,-37.69 655.02,-48.28 661.66,-46.05"/>
</g>
<!-- VarBC_very_fg&#45;&gt;Screening -->
<g id="edge21" class="edge">
<title>VarBC_very_fg&#45;&gt;Screening</title>
<path fill="none" stroke="black" d="M185.29,-540.23C219.02,-522.27 271.99,-494.05 309.12,-474.28"/>
<polygon fill="black" stroke="black" points="310.63,-477.44 317.81,-469.65 307.33,-471.26 310.63,-477.44"/>
</g>
<!-- VarBC_fg&#45;&gt;Minim -->
<g id="edge27" class="edge">
<title>VarBC_fg&#45;&gt;Minim</title>
<path fill="none" stroke="black" d="M258.88,-359.26C258.88,-347.43 258.88,-331.45 258.88,-317.75"/>
<polygon fill="black" stroke="black" points="262.38,-317.97 258.88,-307.97 255.38,-317.97 262.38,-317.97"/>
</g>
<!-- stabal96&#45;&gt;Minim -->
<g id="edge35" class="edge">
<title>stabal96&#45;&gt;Minim</title>
<path fill="none" stroke="black" d="M74.65,-486.09C85.21,-450.7 113.83,-369.85 165.88,-324.25 180.24,-311.66 199.58,-303.41 216.91,-298.11"/>
<polygon fill="black" stroke="black" points="217.78,-301.5 226.47,-295.44 215.89,-294.76 217.78,-301.5"/>
</g>
<!-- ECMWF_CANARI_SST_SIC -->
<g id="node28" class="node">
<title>ECMWF_CANARI_SST_SIC</title>
<polygon fill="none" stroke="black" points="776.12,-576.5 575.62,-576.5 575.62,-540.5 782.12,-540.5 782.12,-570.5 776.12,-576.5"/>
<polyline fill="none" stroke="black" points="776.12,-576.5 776.12,-570.5"/>
<polyline fill="none" stroke="black" points="782.12,-570.5 776.12,-570.5"/>
<text text-anchor="middle" x="678.88" y="-553.83" font-family="Times,serif" font-size="14.00">ECMWF_CANARI_SST_SIC</text>
</g>
<!-- ECMWF_CANARI_SST_SIC&#45;&gt;Canari -->
<g id="edge15" class="edge">
<title>ECMWF_CANARI_SST_SIC&#45;&gt;Canari</title>
<path fill="none" stroke="black" d="M678.88,-540.47C678.88,-524.26 678.88,-499.56 678.88,-480.29"/>
<polygon fill="black" stroke="black" points="682.38,-480.35 678.88,-470.35 675.38,-480.35 682.38,-480.35"/>
</g>
<!-- LISTE_NOIRE_DIAP -->
<g id="node29" class="node">
<title>LISTE_NOIRE_DIAP</title>
<g id="a_node29"><a xlink:href="../Observations/Bator/index.html#LISTE_NOIRE_DIAP-1" xlink:title="LISTE_NOIRE_DIAP">
<polygon fill="none" stroke="black" points="763.12,-722.5 610.62,-722.5 610.62,-686.5 769.12,-686.5 769.12,-716.5 763.12,-722.5"/>
<polyline fill="none" stroke="black" points="763.12,-722.5 763.12,-716.5"/>
<polyline fill="none" stroke="black" points="769.12,-716.5 763.12,-716.5"/>
<text text-anchor="middle" x="689.88" y="-699.83" font-family="Times,serif" font-size="14.00">LISTE_NOIRE_DIAP</text>
</a>
</g>
</g>
<!-- LISTE_NOIRE_DIAP&#45;&gt;Bator -->
<g id="edge32" class="edge">
<title>LISTE_NOIRE_DIAP&#45;&gt;Bator</title>
<path fill="none" stroke="black" d="M689.88,-686.31C689.88,-678.73 689.88,-669.6 689.88,-661.04"/>
<polygon fill="black" stroke="black" points="693.38,-661.04 689.88,-651.04 686.38,-661.04 693.38,-661.04"/>
</g>
<!-- LISTE_LOC -->
<g id="node30" class="node">
<title>LISTE_LOC</title>
<g id="a_node30"><a xlink:href="../Observations/Bator/index.html#LISTE_LOC-1" xlink:title="LISTE_LOC">
<polygon fill="none" stroke="black" points="878.38,-722.5 787.38,-722.5 787.38,-686.5 884.38,-686.5 884.38,-716.5 878.38,-722.5"/>
<polyline fill="none" stroke="black" points="878.38,-722.5 878.38,-716.5"/>
<polyline fill="none" stroke="black" points="884.38,-716.5 878.38,-716.5"/>
<text text-anchor="middle" x="835.88" y="-699.83" font-family="Times,serif" font-size="14.00">LISTE_LOC</text>
</a>
</g>
</g>
<!-- LISTE_LOC&#45;&gt;Bator -->
<g id="edge33" class="edge">
<title>LISTE_LOC&#45;&gt;Bator</title>
<path fill="none" stroke="black" d="M800.16,-686.13C778.3,-675.5 750.33,-661.9 728.04,-651.06"/>
<polygon fill="black" stroke="black" points="729.8,-648.02 719.28,-646.8 726.74,-654.32 729.8,-648.02"/>
</g>
<!-- param_batorcfg -->
<g id="node31" class="node">
<title>param_batorcfg</title>
<polygon fill="none" stroke="black" points="1025.12,-722.5 902.62,-722.5 902.62,-686.5 1031.12,-686.5 1031.12,-716.5 1025.12,-722.5"/>
<polyline fill="none" stroke="black" points="1025.12,-722.5 1025.12,-716.5"/>
<polyline fill="none" stroke="black" points="1031.12,-716.5 1025.12,-716.5"/>
<text text-anchor="middle" x="966.88" y="-699.83" font-family="Times,serif" font-size="14.00">param_batorcfg</text>
</g>
<!-- param_batorcfg&#45;&gt;Bator -->
<g id="edge34" class="edge">
<title>param_batorcfg&#45;&gt;Bator</title>
<path fill="none" stroke="black" d="M902.28,-686.94C848.6,-673.18 773.98,-654.06 728.97,-642.52"/>
<polygon fill="black" stroke="black" points="729.94,-639.16 719.38,-640.06 728.2,-645.94 729.94,-639.16"/>
</g>
</g>
</svg>
