<?xml version="1.0" encoding="UTF-8" standalone="no"?>
<!DOCTYPE svg PUBLIC "-//W3C//DTD SVG 1.1//EN"
 "http://www.w3.org/Graphics/SVG/1.1/DTD/svg11.dtd">
<!-- Generated by graphviz version 7.0.5 (20221223.1930)
 -->
<!-- Title: Harmonie Pages: 1 -->
<svg width="1045pt" height="945pt"
 viewBox="0.00 0.00 1044.50 945.00" xmlns="http://www.w3.org/2000/svg" xmlns:xlink="http://www.w3.org/1999/xlink">
<g id="graph0" class="graph" transform="scale(1 1) rotate(0) translate(4 941)">
<title>Harmonie</title>
<polygon fill="white" stroke="none" points="-4,4 -4,-941 1040.5,-941 1040.5,4 -4,4"/>
<!-- Prepare_ob -->
<g id="node1" class="node">
<title>Prepare_ob</title>
<g id="a_node1"><a xlink:href="../Observations/ObservationData/index.html" xlink:title="Prepare_ob">
<polygon fill="none" stroke="black" points="504,-937 406,-937 406,-901 504,-901 504,-937"/>
<text text-anchor="middle" x="455" y="-915.3" font-family="Times,serif" font-size="14.00">Prepare_ob</text>
</a>
</g>
</g>
<!-- obYYYYMMDD -->
<g id="node12" class="node">
<title>obYYYYMMDD</title>
<polygon fill="none" stroke="black" points="562,-864 342,-864 342,-828 568,-828 568,-858 562,-864"/>
<polyline fill="none" stroke="black" points="562,-864 562,-858"/>
<polyline fill="none" stroke="black" points="568,-858 562,-858"/>
<text text-anchor="middle" x="455" y="-842.3" font-family="Times,serif" font-size="14.00">observations/ob$YYYYMMDD</text>
</g>
<!-- Prepare_ob&#45;&gt;obYYYYMMDD -->
<g id="edge1" class="edge">
<title>Prepare_ob&#45;&gt;obYYYYMMDD</title>
<path fill="none" stroke="black" d="M455,-900.81C455,-893.23 455,-884.1 455,-875.54"/>
<polygon fill="black" stroke="black" points="458.5,-875.54 455,-865.54 451.5,-875.54 458.5,-875.54"/>
</g>
<!-- Bator -->
<g id="node2" class="node">
<title>Bator</title>
<g id="a_node2"><a xlink:href="../Observations/Bator/index.html" xlink:title="Bator">
<polygon fill="none" stroke="black" points="721,-645 665,-645 665,-609 721,-609 721,-645"/>
<text text-anchor="middle" x="693" y="-623.3" font-family="Times,serif" font-size="14.00">Bator</text>
</a>
</g>
</g>
<!-- odb -->
<g id="node14" class="node">
<title>odb</title>
<path fill="none" stroke="black" d="M560,-568.73C560,-570.53 547.9,-572 533,-572 518.1,-572 506,-570.53 506,-568.73 506,-568.73 506,-539.27 506,-539.27 506,-537.47 518.1,-536 533,-536 547.9,-536 560,-537.47 560,-539.27 560,-539.27 560,-568.73 560,-568.73"/>
<path fill="none" stroke="black" d="M560,-568.73C560,-566.92 547.9,-565.45 533,-565.45 518.1,-565.45 506,-566.92 506,-568.73"/>
<text text-anchor="middle" x="533" y="-550.3" font-family="Times,serif" font-size="14.00">odb</text>
</g>
<!-- Bator&#45;&gt;odb -->
<g id="edge10" class="edge">
<title>Bator&#45;&gt;odb</title>
<path fill="none" stroke="black" d="M664.82,-614.02C641.68,-604.12 607.85,-589.49 570.55,-572.65"/>
<polygon fill="black" stroke="black" points="572.41,-569.65 561.86,-568.71 569.52,-576.02 572.41,-569.65"/>
</g>
<!-- odb_can_ori -->
<g id="node19" class="node">
<title>odb_can_ori</title>
<path fill="none" stroke="black" d="M904.5,-568.73C904.5,-570.53 881.87,-572 854,-572 826.13,-572 803.5,-570.53 803.5,-568.73 803.5,-568.73 803.5,-539.27 803.5,-539.27 803.5,-537.47 826.13,-536 854,-536 881.87,-536 904.5,-537.47 904.5,-539.27 904.5,-539.27 904.5,-568.73 904.5,-568.73"/>
<path fill="none" stroke="black" d="M904.5,-568.73C904.5,-566.92 881.87,-565.45 854,-565.45 826.13,-565.45 803.5,-566.92 803.5,-568.73"/>
<text text-anchor="middle" x="854" y="-550.3" font-family="Times,serif" font-size="14.00">odb_can_ori</text>
</g>
<!-- Bator&#45;&gt;odb_can_ori -->
<g id="edge11" class="edge">
<title>Bator&#45;&gt;odb_can_ori</title>
<path fill="none" stroke="black" d="M721.41,-613.47C744.71,-603.2 778.2,-588.43 805.69,-576.3"/>
<polygon fill="black" stroke="black" points="806.78,-579.65 814.52,-572.41 803.95,-573.25 806.78,-579.65"/>
</g>
<!-- Oulan -->
<g id="node3" class="node">
<title>Oulan</title>
<g id="a_node3"><a xlink:href="../Observations/Oulan/index.html" xlink:title="Oulan">
<polygon fill="none" stroke="black" points="546.5,-791 487.5,-791 487.5,-755 546.5,-755 546.5,-791"/>
<text text-anchor="middle" x="517" y="-769.3" font-family="Times,serif" font-size="14.00">Oulan</text>
</a>
</g>
</g>
<!-- OBSOUL -->
<g id="node13" class="node">
<title>OBSOUL</title>
<polygon fill="none" stroke="black" points="589,-718 471,-718 471,-682 595,-682 595,-712 589,-718"/>
<polyline fill="none" stroke="black" points="589,-718 589,-712"/>
<polyline fill="none" stroke="black" points="595,-712 589,-712"/>
<text text-anchor="middle" x="533" y="-696.3" font-family="Times,serif" font-size="14.00">oulan/OBSOUL</text>
</g>
<!-- Oulan&#45;&gt;OBSOUL -->
<g id="edge7" class="edge">
<title>Oulan&#45;&gt;OBSOUL</title>
<path fill="none" stroke="black" d="M520.87,-754.81C522.6,-747.14 524.69,-737.89 526.64,-729.24"/>
<polygon fill="black" stroke="black" points="530.05,-730.03 528.83,-719.51 523.22,-728.49 530.05,-730.03"/>
</g>
<!-- FirstGuess -->
<g id="node4" class="node">
<title>FirstGuess</title>
<polygon fill="none" stroke="black" points="399.5,-645 304.5,-645 304.5,-609 399.5,-609 399.5,-645"/>
<text text-anchor="middle" x="352" y="-623.3" font-family="Times,serif" font-size="14.00">FirstGuess</text>
</g>
<!-- first_guess -->
<g id="node21" class="node">
<title>first_guess</title>
<polygon fill="none" stroke="black" points="342,-572 254,-572 254,-536 348,-536 348,-566 342,-572"/>
<polyline fill="none" stroke="black" points="342,-572 342,-566"/>
<polyline fill="none" stroke="black" points="348,-566 342,-566"/>
<text text-anchor="middle" x="301" y="-550.3" font-family="Times,serif" font-size="14.00">first_guess</text>
</g>
<!-- FirstGuess&#45;&gt;first_guess -->
<g id="edge4" class="edge">
<title>FirstGuess&#45;&gt;first_guess</title>
<path fill="none" stroke="black" d="M339.65,-608.81C333.7,-600.53 326.44,-590.41 319.81,-581.19"/>
<polygon fill="black" stroke="black" points="322.79,-579.34 314.11,-573.26 317.11,-583.42 322.79,-579.34"/>
</g>
<!-- first_guess_sfx -->
<g id="node22" class="node">
<title>first_guess_sfx</title>
<polygon fill="none" stroke="black" points="482,-572 366,-572 366,-536 488,-536 488,-566 482,-572"/>
<polyline fill="none" stroke="black" points="482,-572 482,-566"/>
<polyline fill="none" stroke="black" points="488,-566 482,-566"/>
<text text-anchor="middle" x="427" y="-550.3" font-family="Times,serif" font-size="14.00">first_guess_sfx</text>
</g>
<!-- FirstGuess&#45;&gt;first_guess_sfx -->
<g id="edge5" class="edge">
<title>FirstGuess&#45;&gt;first_guess_sfx</title>
<path fill="none" stroke="black" d="M370.16,-608.81C379.3,-600.16 390.56,-589.5 400.64,-579.96"/>
<polygon fill="black" stroke="black" points="402.8,-582.73 407.65,-573.32 397.98,-577.65 402.8,-582.73"/>
</g>
<!-- Fetch_assim_data -->
<g id="node5" class="node">
<title>Fetch_assim_data</title>
<polygon fill="none" stroke="black" points="171.5,-645 28.5,-645 28.5,-609 171.5,-609 171.5,-645"/>
<text text-anchor="middle" x="100" y="-623.3" font-family="Times,serif" font-size="14.00">Fetch_assim_data</text>
</g>
<!-- VarBC_very_fg -->
<g id="node24" class="node">
<title>VarBC_very_fg</title>
<g id="a_node24"><a xlink:title="VarBC very first guess">
<polygon fill="none" stroke="black" points="198,-572 102,-572 102,-536 204,-536 204,-566 198,-572"/>
<polyline fill="none" stroke="black" points="198,-572 198,-566"/>
<polyline fill="none" stroke="black" points="204,-566 198,-566"/>
<text text-anchor="middle" x="153" y="-550.3" font-family="Times,serif" font-size="14.00">VarBC.cycle</text>
</a>
</g>
</g>
<!-- Fetch_assim_data&#45;&gt;VarBC_very_fg -->
<g id="edge2" class="edge">
<title>Fetch_assim_data&#45;&gt;VarBC_very_fg</title>
<path fill="none" stroke="black" d="M112.83,-608.81C119.01,-600.53 126.57,-590.41 133.45,-581.19"/>
<polygon fill="black" stroke="black" points="136.21,-583.35 139.38,-573.24 130.6,-579.16 136.21,-583.35"/>
</g>
<!-- stabal96 -->
<g id="node27" class="node">
<title>stabal96</title>
<g id="a_node27"><a xlink:href="../DataAssimilation/Structurefunctions/index.html" xlink:title="Structure Functions">
<polygon fill="none" stroke="black" points="134,-518 0,-518 0,-482 140,-482 140,-512 134,-518"/>
<polyline fill="none" stroke="black" points="134,-518 134,-512"/>
<polyline fill="none" stroke="black" points="140,-512 134,-512"/>
<text text-anchor="middle" x="70" y="-496.3" font-family="Times,serif" font-size="14.00">stabal96.{cv,bal}</text>
</a>
</g>
</g>
<!-- Fetch_assim_data&#45;&gt;stabal96 -->
<g id="edge3" class="edge">
<title>Fetch_assim_data&#45;&gt;stabal96</title>
<path fill="none" stroke="black" d="M95.83,-608.62C90.9,-588.1 82.64,-553.67 76.79,-529.29"/>
<polygon fill="black" stroke="black" points="80.23,-528.61 74.49,-519.7 73.42,-530.25 80.23,-528.61"/>
</g>
<!-- Canari -->
<g id="node6" class="node">
<title>Canari</title>
<g id="a_node6"><a xlink:href="../DataAssimilation/Surface/CANARI/index.html" xlink:title="Canari">
<polygon fill="none" stroke="black" points="714,-464 650,-464 650,-428 714,-428 714,-464"/>
<text text-anchor="middle" x="682" y="-442.3" font-family="Times,serif" font-size="14.00">Canari</text>
</a>
</g>
</g>
<!-- ICMSHANALp0000sfx -->
<g id="node11" class="node">
<title>ICMSHANALp0000sfx</title>
<g id="a_node11"><a xlink:title="Surface Analysis">
<polygon fill="none" stroke="black" points="838,-391 662,-391 662,-355 844,-355 844,-385 838,-391"/>
<polyline fill="none" stroke="black" points="838,-391 838,-385"/>
<polyline fill="none" stroke="black" points="844,-385 838,-385"/>
<text text-anchor="middle" x="753" y="-369.3" font-family="Times,serif" font-size="14.00">ICMSHANAL+0000.sfx</text>
</a>
</g>
</g>
<!-- Canari&#45;&gt;ICMSHANALp0000sfx -->
<g id="edge16" class="edge">
<title>Canari&#45;&gt;ICMSHANALp0000sfx</title>
<path fill="none" stroke="black" d="M699.19,-427.81C707.82,-419.18 718.44,-408.56 727.97,-399.03"/>
<polygon fill="black" stroke="black" points="730.3,-401.65 734.9,-392.1 725.35,-396.7 730.3,-401.65"/>
</g>
<!-- odb_can_merge -->
<g id="node16" class="node">
<title>odb_can_merge</title>
<path fill="none" stroke="black" d="M643.5,-387.73C643.5,-389.53 615.04,-391 580,-391 544.96,-391 516.5,-389.53 516.5,-387.73 516.5,-387.73 516.5,-358.27 516.5,-358.27 516.5,-356.47 544.96,-355 580,-355 615.04,-355 643.5,-356.47 643.5,-358.27 643.5,-358.27 643.5,-387.73 643.5,-387.73"/>
<path fill="none" stroke="black" d="M643.5,-387.73C643.5,-385.92 615.04,-384.45 580,-384.45 544.96,-384.45 516.5,-385.92 516.5,-387.73"/>
<text text-anchor="middle" x="580" y="-369.3" font-family="Times,serif" font-size="14.00">odb_can_merge</text>
</g>
<!-- Canari&#45;&gt;odb_can_merge -->
<g id="edge17" class="edge">
<title>Canari&#45;&gt;odb_can_merge</title>
<path fill="none" stroke="black" d="M657.05,-427.63C644.21,-418.69 628.35,-407.66 614.37,-397.92"/>
<polygon fill="black" stroke="black" points="616.5,-395.14 606.29,-392.3 612.5,-400.89 616.5,-395.14"/>
</g>
<!-- odb_can -->
<g id="node18" class="node">
<title>odb_can</title>
<path fill="none" stroke="black" d="M936,-387.73C936,-389.53 919.42,-391 899,-391 878.58,-391 862,-389.53 862,-387.73 862,-387.73 862,-358.27 862,-358.27 862,-356.47 878.58,-355 899,-355 919.42,-355 936,-356.47 936,-358.27 936,-358.27 936,-387.73 936,-387.73"/>
<path fill="none" stroke="black" d="M936,-387.73C936,-385.92 919.42,-384.45 899,-384.45 878.58,-384.45 862,-385.92 862,-387.73"/>
<text text-anchor="middle" x="899" y="-369.3" font-family="Times,serif" font-size="14.00">odb_can</text>
</g>
<!-- Canari&#45;&gt;odb_can -->
<g id="edge18" class="edge">
<title>Canari&#45;&gt;odb_can</title>
<path fill="none" stroke="black" d="M714.3,-435.31C746.64,-425.49 798.05,-409.59 851.03,-391.6"/>
<polygon fill="black" stroke="black" points="851.88,-395.01 860.22,-388.46 849.62,-388.38 851.88,-395.01"/>
</g>
<!-- Screening -->
<g id="node7" class="node">
<title>Screening</title>
<g id="a_node7"><a xlink:href="../DataAssimilation/Screening/index.html" xlink:title="Screening">
<polygon fill="none" stroke="black" points="397.5,-464 308.5,-464 308.5,-428 397.5,-428 397.5,-464"/>
<text text-anchor="middle" x="353" y="-442.3" font-family="Times,serif" font-size="14.00">Screening</text>
</a>
</g>
</g>
<!-- odb_ccma -->
<g id="node15" class="node">
<title>odb_ccma</title>
<path fill="none" stroke="black" d="M498,-387.73C498,-389.53 478.73,-391 455,-391 431.27,-391 412,-389.53 412,-387.73 412,-387.73 412,-358.27 412,-358.27 412,-356.47 431.27,-355 455,-355 478.73,-355 498,-356.47 498,-358.27 498,-358.27 498,-387.73 498,-387.73"/>
<path fill="none" stroke="black" d="M498,-387.73C498,-385.92 478.73,-384.45 455,-384.45 431.27,-384.45 412,-385.92 412,-387.73"/>
<text text-anchor="middle" x="455" y="-369.3" font-family="Times,serif" font-size="14.00">odb_ccma</text>
</g>
<!-- Screening&#45;&gt;odb_ccma -->
<g id="edge22" class="edge">
<title>Screening&#45;&gt;odb_ccma</title>
<path fill="none" stroke="black" d="M377.95,-427.63C390.89,-418.63 406.89,-407.49 420.94,-397.71"/>
<polygon fill="black" stroke="black" points="422.86,-400.64 429.06,-392.05 418.86,-394.89 422.86,-400.64"/>
</g>
<!-- odbvar -->
<g id="node17" class="node">
<title>odbvar</title>
<path fill="none" stroke="black" d="M394,-387.73C394,-389.53 379.21,-391 361,-391 342.79,-391 328,-389.53 328,-387.73 328,-387.73 328,-358.27 328,-358.27 328,-356.47 342.79,-355 361,-355 379.21,-355 394,-356.47 394,-358.27 394,-358.27 394,-387.73 394,-387.73"/>
<path fill="none" stroke="black" d="M394,-387.73C394,-385.92 379.21,-384.45 361,-384.45 342.79,-384.45 328,-385.92 328,-387.73"/>
<text text-anchor="middle" x="361" y="-369.3" font-family="Times,serif" font-size="14.00">odbvar</text>
</g>
<!-- Screening&#45;&gt;odbvar -->
<g id="edge23" class="edge">
<title>Screening&#45;&gt;odbvar</title>
<path fill="none" stroke="black" d="M354.94,-427.81C355.8,-420.14 356.84,-410.89 357.82,-402.24"/>
<polygon fill="black" stroke="black" points="361.27,-402.86 358.91,-392.53 354.31,-402.08 361.27,-402.86"/>
</g>
<!-- VarBC_fg -->
<g id="node25" class="node">
<title>VarBC_fg</title>
<g id="a_node25"><a xlink:title="VarBC first guess">
<polygon fill="none" stroke="black" points="304,-391 208,-391 208,-355 310,-355 310,-385 304,-391"/>
<polyline fill="none" stroke="black" points="304,-391 304,-385"/>
<polyline fill="none" stroke="black" points="310,-385 304,-385"/>
<text text-anchor="middle" x="259" y="-369.3" font-family="Times,serif" font-size="14.00">VarBC.cycle</text>
</a>
</g>
</g>
<!-- Screening&#45;&gt;VarBC_fg -->
<g id="edge24" class="edge">
<title>Screening&#45;&gt;VarBC_fg</title>
<path fill="none" stroke="black" d="M330.25,-427.81C318.44,-418.9 303.82,-407.86 290.91,-398.1"/>
<polygon fill="black" stroke="black" points="293.17,-395.42 283.08,-392.19 288.95,-401.01 293.17,-395.42"/>
</g>
<!-- Minim -->
<g id="node8" class="node">
<title>Minim</title>
<g id="a_node8"><a xlink:href="http://www.umr-cnrm.fr/gmapdoc/IMG/pdf/ykminim45.pdf" xlink:title="Minim">
<polygon fill="none" stroke="black" points="290,-304 228,-304 228,-268 290,-268 290,-304"/>
<text text-anchor="middle" x="259" y="-282.3" font-family="Times,serif" font-size="14.00">Minim</text>
</a>
</g>
</g>
<!-- MXMIN1999p0000 -->
<g id="node10" class="node">
<title>MXMIN1999p0000</title>
<g id="a_node10"><a xlink:title="Upper air Analysis">
<polygon fill="none" stroke="black" points="598,-196 448,-196 448,-160 604,-160 604,-190 598,-196"/>
<polyline fill="none" stroke="black" points="598,-196 598,-190"/>
<polyline fill="none" stroke="black" points="604,-190 598,-190"/>
<text text-anchor="middle" x="526" y="-174.3" font-family="Times,serif" font-size="14.00">MXMIN1999+0000</text>
</a>
</g>
</g>
<!-- Minim&#45;&gt;MXMIN1999p0000 -->
<g id="edge28" class="edge">
<title>Minim&#45;&gt;MXMIN1999p0000</title>
<path fill="none" stroke="black" d="M290.41,-272.53C335,-254.83 417.27,-222.17 471.82,-200.51"/>
<polygon fill="black" stroke="black" points="472.93,-203.84 480.93,-196.89 470.35,-197.33 472.93,-203.84"/>
</g>
<!-- VarBC_an -->
<g id="node26" class="node">
<title>VarBC_an</title>
<g id="a_node26"><a xlink:title="VarBC analysis">
<polygon fill="none" stroke="black" points="304,-196 208,-196 208,-160 310,-160 310,-190 304,-196"/>
<polyline fill="none" stroke="black" points="304,-196 304,-190"/>
<polyline fill="none" stroke="black" points="310,-190 304,-190"/>
<text text-anchor="middle" x="259" y="-174.3" font-family="Times,serif" font-size="14.00">VarBC.cycle</text>
</a>
</g>
</g>
<!-- Minim&#45;&gt;VarBC_an -->
<g id="edge29" class="edge">
<title>Minim&#45;&gt;VarBC_an</title>
<path fill="none" stroke="black" d="M259,-267.97C259,-251.76 259,-227.06 259,-207.79"/>
<polygon fill="black" stroke="black" points="262.5,-207.85 259,-197.85 255.5,-207.85 262.5,-207.85"/>
</g>
<!-- Forecast -->
<g id="node9" class="node">
<title>Forecast</title>
<g id="a_node9"><a xlink:href="../ForecastModel/Forecast/index.html" xlink:title="Forecast">
<polygon fill="none" stroke="black" points="690,-36 612,-36 612,0 690,0 690,-36"/>
<text text-anchor="middle" x="651" y="-14.3" font-family="Times,serif" font-size="14.00">Forecast</text>
</a>
</g>
</g>
<!-- fc_start -->
<g id="node20" class="node">
<title>fc_start</title>
<polygon fill="none" stroke="black" points="632.5,-109 567.5,-109 567.5,-73 638.5,-73 638.5,-103 632.5,-109"/>
<polyline fill="none" stroke="black" points="632.5,-109 632.5,-103"/>
<polyline fill="none" stroke="black" points="638.5,-103 632.5,-103"/>
<text text-anchor="middle" x="603" y="-87.3" font-family="Times,serif" font-size="14.00">fc_start</text>
</g>
<!-- MXMIN1999p0000&#45;&gt;fc_start -->
<g id="edge37" class="edge">
<title>MXMIN1999p0000&#45;&gt;fc_start</title>
<path fill="none" stroke="black" stroke-dasharray="5,2" d="M541.58,-159.8C552.47,-147.78 567.2,-131.52 579.5,-117.94"/>
<polygon fill="black" stroke="black" points="582.04,-120.35 586.16,-110.59 576.85,-115.65 582.04,-120.35"/>
<text text-anchor="middle" x="593" y="-130.8" font-family="Times,serif" font-size="14.00">Minim</text>
</g>
<!-- fc_start_sfx -->
<g id="node23" class="node">
<title>fc_start_sfx</title>
<polygon fill="none" stroke="black" points="765,-250 673,-250 673,-214 771,-214 771,-244 765,-250"/>
<polyline fill="none" stroke="black" points="765,-250 765,-244"/>
<polyline fill="none" stroke="black" points="771,-244 765,-244"/>
<text text-anchor="middle" x="722" y="-228.3" font-family="Times,serif" font-size="14.00">fc_start_sfx</text>
</g>
<!-- ICMSHANALp0000sfx&#45;&gt;fc_start_sfx -->
<g id="edge36" class="edge">
<title>ICMSHANALp0000sfx&#45;&gt;fc_start_sfx</title>
<path fill="none" stroke="black" stroke-dasharray="5,2" d="M749.14,-354.68C743.91,-331.24 734.52,-289.16 728.28,-261.15"/>
<polygon fill="black" stroke="black" points="731.74,-260.58 726.14,-251.58 724.9,-262.1 731.74,-260.58"/>
<text text-anchor="middle" x="770" y="-325.8" font-family="Times,serif" font-size="14.00">Canari</text>
</g>
<!-- obYYYYMMDD&#45;&gt;Bator -->
<g id="edge8" class="edge">
<title>obYYYYMMDD&#45;&gt;Bator</title>
<path fill="none" stroke="black" d="M449.66,-827.64C440.78,-794.99 427.21,-723.98 462,-682 486.08,-652.94 594.09,-637.81 653.5,-631.56"/>
<polygon fill="black" stroke="black" points="653.6,-635.07 663.19,-630.58 652.89,-628.11 653.6,-635.07"/>
</g>
<!-- obYYYYMMDD&#45;&gt;Oulan -->
<g id="edge6" class="edge">
<title>obYYYYMMDD&#45;&gt;Oulan</title>
<path fill="none" stroke="black" d="M470.01,-827.81C477.4,-819.35 486.45,-808.98 494.63,-799.61"/>
<polygon fill="black" stroke="black" points="497.19,-802 501.13,-792.17 491.92,-797.4 497.19,-802"/>
</g>
<!-- OBSOUL&#45;&gt;Bator -->
<g id="edge9" class="edge">
<title>OBSOUL&#45;&gt;Bator</title>
<path fill="none" stroke="black" d="M572.14,-681.63C597.24,-670.5 629.66,-656.11 654.61,-645.04"/>
<polygon fill="black" stroke="black" points="655.7,-648.38 663.42,-641.13 652.86,-641.98 655.7,-648.38"/>
</g>
<!-- odb&#45;&gt;Screening -->
<g id="edge19" class="edge">
<title>odb&#45;&gt;Screening</title>
<path fill="none" stroke="black" d="M506.05,-537.13C475.88,-519.36 426.71,-490.41 392.27,-470.12"/>
<polygon fill="black" stroke="black" points="394.23,-467.22 383.83,-465.16 390.67,-473.25 394.23,-467.22"/>
</g>
<!-- odb_ccma&#45;&gt;Minim -->
<g id="edge25" class="edge">
<title>odb_ccma&#45;&gt;Minim</title>
<path fill="none" stroke="black" d="M417.21,-355.61C383.74,-341.1 334.97,-319.95 300.44,-304.97"/>
<polygon fill="black" stroke="black" points="302.17,-301.91 291.61,-301.14 299.39,-308.33 302.17,-301.91"/>
</g>
<!-- odb_can_ori&#45;&gt;Canari -->
<g id="edge12" class="edge">
<title>odb_can_ori&#45;&gt;Canari</title>
<path fill="none" stroke="black" d="M825.98,-535.73C797.08,-517.92 751.83,-490.04 719.78,-470.28"/>
<polygon fill="black" stroke="black" points="721.93,-467.5 711.58,-465.23 718.26,-473.46 721.93,-467.5"/>
</g>
<!-- fc_start&#45;&gt;Forecast -->
<g id="edge30" class="edge">
<title>fc_start&#45;&gt;Forecast</title>
<path fill="none" stroke="black" d="M614.62,-72.81C620.16,-64.62 626.92,-54.62 633.09,-45.48"/>
<polygon fill="black" stroke="black" points="635.94,-47.53 638.64,-37.28 630.14,-43.61 635.94,-47.53"/>
</g>
<!-- first_guess&#45;&gt;Canari -->
<g id="edge13" class="edge">
<title>first_guess&#45;&gt;Canari</title>
<path fill="none" stroke="black" d="M347.66,-535.59C390.3,-520.11 455.29,-497.58 513,-482 555.23,-470.6 604.26,-460.82 638.6,-454.52"/>
<polygon fill="black" stroke="black" points="638.94,-458.01 648.16,-452.79 637.69,-451.12 638.94,-458.01"/>
</g>
<!-- first_guess&#45;&gt;Screening -->
<g id="edge20" class="edge">
<title>first_guess&#45;&gt;Screening</title>
<path fill="none" stroke="black" d="M309.35,-535.97C317.49,-519.38 330,-493.88 339.54,-474.43"/>
<polygon fill="black" stroke="black" points="342.56,-476.22 343.83,-465.7 336.28,-473.14 342.56,-476.22"/>
</g>
<!-- first_guess&#45;&gt;Minim -->
<g id="edge26" class="edge">
<title>first_guess&#45;&gt;Minim</title>
<path fill="none" stroke="black" d="M285.36,-535.71C261.23,-507.74 215.96,-449.76 199,-391 194.56,-375.63 193.34,-369.97 199,-355 205.14,-338.77 217.12,-323.9 228.77,-312.24"/>
<polygon fill="black" stroke="black" points="231.15,-314.8 236.01,-305.38 226.34,-309.72 231.15,-314.8"/>
</g>
<!-- first_guess_sfx&#45;&gt;Canari -->
<g id="edge14" class="edge">
<title>first_guess_sfx&#45;&gt;Canari</title>
<path fill="none" stroke="black" d="M468.82,-535.61C515.88,-516.05 591.92,-484.44 639.33,-464.74"/>
<polygon fill="black" stroke="black" points="640.57,-468.01 648.46,-460.94 637.88,-461.55 640.57,-468.01"/>
</g>
<!-- fc_start_sfx&#45;&gt;Forecast -->
<g id="edge31" class="edge">
<title>fc_start_sfx&#45;&gt;Forecast</title>
<path fill="none" stroke="black" d="M716.19,-213.65C703.94,-177.07 675.36,-91.73 660.44,-47.19"/>
<polygon fill="black" stroke="black" points="663.77,-46.1 657.27,-37.73 657.13,-48.32 663.77,-46.1"/>
</g>
<!-- VarBC_very_fg&#45;&gt;Screening -->
<g id="edge21" class="edge">
<title>VarBC_very_fg&#45;&gt;Screening</title>
<path fill="none" stroke="black" d="M185.58,-535.73C219.47,-517.77 272.71,-489.55 310.03,-469.78"/>
<polygon fill="black" stroke="black" points="311.57,-472.92 318.77,-465.14 308.29,-466.73 311.57,-472.92"/>
</g>
<!-- VarBC_fg&#45;&gt;Minim -->
<g id="edge27" class="edge">
<title>VarBC_fg&#45;&gt;Minim</title>
<path fill="none" stroke="black" d="M259,-354.8C259,-343.58 259,-328.67 259,-315.69"/>
<polygon fill="black" stroke="black" points="262.5,-315.98 259,-305.98 255.5,-315.98 262.5,-315.98"/>
</g>
<!-- stabal96&#45;&gt;Minim -->
<g id="edge35" class="edge">
<title>stabal96&#45;&gt;Minim</title>
<path fill="none" stroke="black" d="M74.92,-481.54C85.66,-446.45 114.48,-366.9 166,-322 180.3,-309.54 199.46,-301.33 216.68,-296.01"/>
<polygon fill="black" stroke="black" points="217.51,-299.41 226.18,-293.33 215.61,-292.68 217.51,-299.41"/>
</g>
<!-- ECMWF_CANARI_SST_SIC -->
<g id="node28" class="node">
<title>ECMWF_CANARI_SST_SIC</title>
<polygon fill="none" stroke="black" points="779.5,-572 578.5,-572 578.5,-536 785.5,-536 785.5,-566 779.5,-572"/>
<polyline fill="none" stroke="black" points="779.5,-572 779.5,-566"/>
<polyline fill="none" stroke="black" points="785.5,-566 779.5,-566"/>
<text text-anchor="middle" x="682" y="-550.3" font-family="Times,serif" font-size="14.00">ECMWF_CANARI_SST_SIC</text>
</g>
<!-- ECMWF_CANARI_SST_SIC&#45;&gt;Canari -->
<g id="edge15" class="edge">
<title>ECMWF_CANARI_SST_SIC&#45;&gt;Canari</title>
<path fill="none" stroke="black" d="M682,-535.97C682,-519.76 682,-495.06 682,-475.79"/>
<polygon fill="black" stroke="black" points="685.5,-475.85 682,-465.85 678.5,-475.85 685.5,-475.85"/>
</g>
<!-- LISTE_NOIRE_DIAP -->
<g id="node29" class="node">
<title>LISTE_NOIRE_DIAP</title>
<g id="a_node29"><a xlink:href="../Observations/Bator/index.html#LISTE_NOIRE_DIAP-1" xlink:title="LISTE_NOIRE_DIAP">
<polygon fill="none" stroke="black" points="766.5,-718 613.5,-718 613.5,-682 772.5,-682 772.5,-712 766.5,-718"/>
<polyline fill="none" stroke="black" points="766.5,-718 766.5,-712"/>
<polyline fill="none" stroke="black" points="772.5,-712 766.5,-712"/>
<text text-anchor="middle" x="693" y="-696.3" font-family="Times,serif" font-size="14.00">LISTE_NOIRE_DIAP</text>
</a>
</g>
</g>
<!-- LISTE_NOIRE_DIAP&#45;&gt;Bator -->
<g id="edge32" class="edge">
<title>LISTE_NOIRE_DIAP&#45;&gt;Bator</title>
<path fill="none" stroke="black" d="M693,-681.81C693,-674.23 693,-665.1 693,-656.54"/>
<polygon fill="black" stroke="black" points="696.5,-656.54 693,-646.54 689.5,-656.54 696.5,-656.54"/>
</g>
<!-- LISTE_LOC -->
<g id="node30" class="node">
<title>LISTE_LOC</title>
<g id="a_node30"><a xlink:href="../Observations/Bator/index.html#LISTE_LOC-1" xlink:title="LISTE_LOC">
<polygon fill="none" stroke="black" points="883,-718 791,-718 791,-682 889,-682 889,-712 883,-718"/>
<polyline fill="none" stroke="black" points="883,-718 883,-712"/>
<polyline fill="none" stroke="black" points="889,-712 883,-712"/>
<text text-anchor="middle" x="840" y="-696.3" font-family="Times,serif" font-size="14.00">LISTE_LOC</text>
</a>
</g>
</g>
<!-- LISTE_LOC&#45;&gt;Bator -->
<g id="edge33" class="edge">
<title>LISTE_LOC&#45;&gt;Bator</title>
<path fill="none" stroke="black" d="M804.04,-681.63C782.03,-671 753.87,-657.4 731.42,-646.56"/>
<polygon fill="black" stroke="black" points="733.12,-643.49 722.59,-642.29 730.08,-649.79 733.12,-643.49"/>
</g>
<!-- param_batorcfg -->
<g id="node31" class="node">
<title>param_batorcfg</title>
<polygon fill="none" stroke="black" points="1030.5,-718 907.5,-718 907.5,-682 1036.5,-682 1036.5,-712 1030.5,-718"/>
<polyline fill="none" stroke="black" points="1030.5,-718 1030.5,-712"/>
<polyline fill="none" stroke="black" points="1036.5,-712 1030.5,-712"/>
<text text-anchor="middle" x="972" y="-696.3" font-family="Times,serif" font-size="14.00">param_batorcfg</text>
</g>
<!-- param_batorcfg&#45;&gt;Bator -->
<g id="edge34" class="edge">
<title>param_batorcfg&#45;&gt;Bator</title>
<path fill="none" stroke="black" d="M907.29,-682.53C853.24,-668.78 777.92,-649.61 732.47,-638.05"/>
<polygon fill="black" stroke="black" points="733.34,-634.65 722.79,-635.58 731.61,-641.44 733.34,-634.65"/>
</g>
</g>
</svg>
