<?xml version="1.0" encoding="UTF-8" standalone="no"?>
<!DOCTYPE svg PUBLIC "-//W3C//DTD SVG 1.1//EN"
 "http://www.w3.org/Graphics/SVG/1.1/DTD/svg11.dtd">
<!-- Generated by graphviz version 2.49.3 (20211027.1534)
 -->
<!-- Title: Harmonie Pages: 1 -->
<svg width="913pt" height="945pt"
 viewBox="0.00 0.00 912.50 945.00" xmlns="http://www.w3.org/2000/svg" xmlns:xlink="http://www.w3.org/1999/xlink">
<g id="graph0" class="graph" transform="scale(1 1) rotate(0) translate(4 941)">
<title>Harmonie</title>
<polygon fill="white" stroke="transparent" points="-4,4 -4,-941 908.5,-941 908.5,4 -4,4"/>
<!-- Prepare_ob -->
<g id="node1" class="node">
<title>Prepare_ob</title>
<g id="a_node1"><a xlink:href="../Observations/ObservationData/index.html" xlink:title="Prepare_ob">
<polygon fill="none" stroke="black" points="431.5,-937 352.5,-937 352.5,-901 431.5,-901 431.5,-937"/>
<text text-anchor="middle" x="392" y="-915.3" font-family="Times,serif" font-size="14.00">Prepare_ob</text>
</a>
</g>
</g>
<!-- obYYYYMMDD -->
<g id="node12" class="node">
<title>obYYYYMMDD</title>
<polygon fill="none" stroke="black" points="481.5,-864 296.5,-864 296.5,-828 487.5,-828 487.5,-858 481.5,-864"/>
<polyline fill="none" stroke="black" points="481.5,-864 481.5,-858 "/>
<polyline fill="none" stroke="black" points="487.5,-858 481.5,-858 "/>
<text text-anchor="middle" x="392" y="-842.3" font-family="Times,serif" font-size="14.00">observations/ob$YYYYMMDD</text>
</g>
<!-- Prepare_ob&#45;&gt;obYYYYMMDD -->
<g id="edge1" class="edge">
<title>Prepare_ob&#45;&gt;obYYYYMMDD</title>
<path fill="none" stroke="black" d="M392,-900.81C392,-892.79 392,-883.05 392,-874.07"/>
<polygon fill="black" stroke="black" points="395.5,-874.03 392,-864.03 388.5,-874.03 395.5,-874.03"/>
</g>
<!-- Bator -->
<g id="node2" class="node">
<title>Bator</title>
<g id="a_node2"><a xlink:href="../Observations/Bator/index.html" xlink:title="Bator">
<polygon fill="none" stroke="black" points="632,-645 578,-645 578,-609 632,-609 632,-645"/>
<text text-anchor="middle" x="605" y="-623.3" font-family="Times,serif" font-size="14.00">Bator</text>
</a>
</g>
</g>
<!-- odb -->
<g id="node14" class="node">
<title>odb</title>
<path fill="none" stroke="black" d="M486,-568.73C486,-570.53 473.9,-572 459,-572 444.1,-572 432,-570.53 432,-568.73 432,-568.73 432,-539.27 432,-539.27 432,-537.47 444.1,-536 459,-536 473.9,-536 486,-537.47 486,-539.27 486,-539.27 486,-568.73 486,-568.73"/>
<path fill="none" stroke="black" d="M486,-568.73C486,-566.92 473.9,-565.45 459,-565.45 444.1,-565.45 432,-566.92 432,-568.73"/>
<text text-anchor="middle" x="459" y="-550.3" font-family="Times,serif" font-size="14.00">odb</text>
</g>
<!-- Bator&#45;&gt;odb -->
<g id="edge10" class="edge">
<title>Bator&#45;&gt;odb</title>
<path fill="none" stroke="black" d="M577.88,-612.81C554.67,-601.53 521.06,-585.18 495.49,-572.75"/>
<polygon fill="black" stroke="black" points="496.99,-569.58 486.47,-568.36 493.93,-575.88 496.99,-569.58"/>
</g>
<!-- odb_can_ori -->
<g id="node19" class="node">
<title>odb_can_ori</title>
<path fill="none" stroke="black" d="M793,-568.73C793,-570.53 774.17,-572 751,-572 727.83,-572 709,-570.53 709,-568.73 709,-568.73 709,-539.27 709,-539.27 709,-537.47 727.83,-536 751,-536 774.17,-536 793,-537.47 793,-539.27 793,-539.27 793,-568.73 793,-568.73"/>
<path fill="none" stroke="black" d="M793,-568.73C793,-566.92 774.17,-565.45 751,-565.45 727.83,-565.45 709,-566.92 709,-568.73"/>
<text text-anchor="middle" x="751" y="-550.3" font-family="Times,serif" font-size="14.00">odb_can_ori</text>
</g>
<!-- Bator&#45;&gt;odb_can_ori -->
<g id="edge11" class="edge">
<title>Bator&#45;&gt;odb_can_ori</title>
<path fill="none" stroke="black" d="M632.12,-612.81C653.54,-602.39 683.84,-587.66 708.48,-575.68"/>
<polygon fill="black" stroke="black" points="710.16,-578.75 717.62,-571.23 707.09,-572.46 710.16,-578.75"/>
</g>
<!-- Oulan -->
<g id="node3" class="node">
<title>Oulan</title>
<g id="a_node3"><a xlink:href="../Observations/Oulan/index.html" xlink:title="Oulan">
<polygon fill="none" stroke="black" points="475,-791 421,-791 421,-755 475,-755 475,-791"/>
<text text-anchor="middle" x="448" y="-769.3" font-family="Times,serif" font-size="14.00">Oulan</text>
</a>
</g>
</g>
<!-- OBSOUL -->
<g id="node13" class="node">
<title>OBSOUL</title>
<polygon fill="none" stroke="black" points="509.5,-718 408.5,-718 408.5,-682 515.5,-682 515.5,-712 509.5,-718"/>
<polyline fill="none" stroke="black" points="509.5,-718 509.5,-712 "/>
<polyline fill="none" stroke="black" points="515.5,-712 509.5,-712 "/>
<text text-anchor="middle" x="462" y="-696.3" font-family="Times,serif" font-size="14.00">oulan/OBSOUL</text>
</g>
<!-- Oulan&#45;&gt;OBSOUL -->
<g id="edge7" class="edge">
<title>Oulan&#45;&gt;OBSOUL</title>
<path fill="none" stroke="black" d="M451.39,-754.81C452.97,-746.79 454.89,-737.05 456.66,-728.07"/>
<polygon fill="black" stroke="black" points="460.14,-728.52 458.64,-718.03 453.27,-727.16 460.14,-728.52"/>
</g>
<!-- FirstGuess -->
<g id="node4" class="node">
<title>FirstGuess</title>
<polygon fill="none" stroke="black" points="331.5,-645 256.5,-645 256.5,-609 331.5,-609 331.5,-645"/>
<text text-anchor="middle" x="294" y="-623.3" font-family="Times,serif" font-size="14.00">FirstGuess</text>
</g>
<!-- first_guess -->
<g id="node21" class="node">
<title>first_guess</title>
<polygon fill="none" stroke="black" points="292,-572 224,-572 224,-536 298,-536 298,-566 292,-572"/>
<polyline fill="none" stroke="black" points="292,-572 292,-566 "/>
<polyline fill="none" stroke="black" points="298,-566 292,-566 "/>
<text text-anchor="middle" x="261" y="-550.3" font-family="Times,serif" font-size="14.00">first_guess</text>
</g>
<!-- FirstGuess&#45;&gt;first_guess -->
<g id="edge4" class="edge">
<title>FirstGuess&#45;&gt;first_guess</title>
<path fill="none" stroke="black" d="M286.01,-608.81C282.16,-600.53 277.46,-590.41 273.17,-581.19"/>
<polygon fill="black" stroke="black" points="276.3,-579.62 268.91,-572.03 269.96,-582.57 276.3,-579.62"/>
</g>
<!-- first_guess_sfx -->
<g id="node22" class="node">
<title>first_guess_sfx</title>
<polygon fill="none" stroke="black" points="408,-572 316,-572 316,-536 414,-536 414,-566 408,-572"/>
<polyline fill="none" stroke="black" points="408,-572 408,-566 "/>
<polyline fill="none" stroke="black" points="414,-566 408,-566 "/>
<text text-anchor="middle" x="365" y="-550.3" font-family="Times,serif" font-size="14.00">first_guess_sfx</text>
</g>
<!-- FirstGuess&#45;&gt;first_guess_sfx -->
<g id="edge5" class="edge">
<title>FirstGuess&#45;&gt;first_guess_sfx</title>
<path fill="none" stroke="black" d="M311.19,-608.81C320.08,-599.92 331.09,-588.91 340.83,-579.17"/>
<polygon fill="black" stroke="black" points="343.37,-581.57 347.97,-572.03 338.43,-576.63 343.37,-581.57"/>
</g>
<!-- Fetch_assim_data -->
<g id="node5" class="node">
<title>Fetch_assim_data</title>
<polygon fill="none" stroke="black" points="131,-645 17,-645 17,-609 131,-609 131,-645"/>
<text text-anchor="middle" x="74" y="-623.3" font-family="Times,serif" font-size="14.00">Fetch_assim_data</text>
</g>
<!-- VarBC_very_fg -->
<g id="node24" class="node">
<title>VarBC_very_fg</title>
<g id="a_node24"><a xlink:title="VarBC very first guess">
<polygon fill="none" stroke="black" points="164,-572 84,-572 84,-536 170,-536 170,-566 164,-572"/>
<polyline fill="none" stroke="black" points="164,-572 164,-566 "/>
<polyline fill="none" stroke="black" points="170,-566 164,-566 "/>
<text text-anchor="middle" x="127" y="-550.3" font-family="Times,serif" font-size="14.00">VarBC.cycle</text>
</a>
</g>
</g>
<!-- Fetch_assim_data&#45;&gt;VarBC_very_fg -->
<g id="edge2" class="edge">
<title>Fetch_assim_data&#45;&gt;VarBC_very_fg</title>
<path fill="none" stroke="black" d="M86.83,-608.81C93.21,-600.27 101.05,-589.77 108.1,-580.32"/>
<polygon fill="black" stroke="black" points="111.11,-582.14 114.29,-572.03 105.5,-577.95 111.11,-582.14"/>
</g>
<!-- stabal96 -->
<g id="node27" class="node">
<title>stabal96</title>
<g id="a_node27"><a xlink:href="../DataAssimilation/Structurefunctions/index.html" xlink:title="Structure Functions">
<polygon fill="none" stroke="black" points="106,-518 0,-518 0,-482 112,-482 112,-512 106,-518"/>
<polyline fill="none" stroke="black" points="106,-518 106,-512 "/>
<polyline fill="none" stroke="black" points="112,-512 106,-512 "/>
<text text-anchor="middle" x="56" y="-496.3" font-family="Times,serif" font-size="14.00">stabal96.{cv,bal}</text>
</a>
</g>
</g>
<!-- Fetch_assim_data&#45;&gt;stabal96 -->
<g id="edge3" class="edge">
<title>Fetch_assim_data&#45;&gt;stabal96</title>
<path fill="none" stroke="black" d="M71.53,-608.88C68.55,-588.15 63.48,-552.95 59.95,-528.42"/>
<polygon fill="black" stroke="black" points="63.38,-527.71 58.49,-518.31 56.45,-528.71 63.38,-527.71"/>
</g>
<!-- Canari -->
<g id="node6" class="node">
<title>Canari</title>
<g id="a_node6"><a xlink:href="../DataAssimilation/Surface/CANARI/index.html" xlink:title="Canari">
<polygon fill="none" stroke="black" points="625,-464 571,-464 571,-428 625,-428 625,-464"/>
<text text-anchor="middle" x="598" y="-442.3" font-family="Times,serif" font-size="14.00">Canari</text>
</a>
</g>
</g>
<!-- ICMSHANALp0000sfx -->
<g id="node11" class="node">
<title>ICMSHANALp0000sfx</title>
<g id="a_node11"><a xlink:title="Surface Analysis">
<polygon fill="none" stroke="black" points="716,-391 568,-391 568,-355 722,-355 722,-385 716,-391"/>
<polyline fill="none" stroke="black" points="716,-391 716,-385 "/>
<polyline fill="none" stroke="black" points="722,-385 716,-385 "/>
<text text-anchor="middle" x="645" y="-369.3" font-family="Times,serif" font-size="14.00">ICMSHANAL+0000.sfx</text>
</a>
</g>
</g>
<!-- Canari&#45;&gt;ICMSHANALp0000sfx -->
<g id="edge16" class="edge">
<title>Canari&#45;&gt;ICMSHANALp0000sfx</title>
<path fill="none" stroke="black" d="M609.38,-427.81C614.98,-419.35 621.84,-408.98 628.05,-399.61"/>
<polygon fill="black" stroke="black" points="631.13,-401.3 633.73,-391.03 625.29,-397.44 631.13,-401.3"/>
</g>
<!-- odb_can_merge -->
<g id="node16" class="node">
<title>odb_can_merge</title>
<path fill="none" stroke="black" d="M549.5,-387.73C549.5,-389.53 526.42,-391 498,-391 469.58,-391 446.5,-389.53 446.5,-387.73 446.5,-387.73 446.5,-358.27 446.5,-358.27 446.5,-356.47 469.58,-355 498,-355 526.42,-355 549.5,-356.47 549.5,-358.27 549.5,-358.27 549.5,-387.73 549.5,-387.73"/>
<path fill="none" stroke="black" d="M549.5,-387.73C549.5,-385.92 526.42,-384.45 498,-384.45 469.58,-384.45 446.5,-385.92 446.5,-387.73"/>
<text text-anchor="middle" x="498" y="-369.3" font-family="Times,serif" font-size="14.00">odb_can_merge</text>
</g>
<!-- Canari&#45;&gt;odb_can_merge -->
<g id="edge17" class="edge">
<title>Canari&#45;&gt;odb_can_merge</title>
<path fill="none" stroke="black" d="M574.05,-427.99C561.03,-418.75 544.75,-407.19 530.59,-397.14"/>
<polygon fill="black" stroke="black" points="532.28,-394.05 522.1,-391.11 528.23,-399.76 532.28,-394.05"/>
</g>
<!-- odb_can -->
<g id="node18" class="node">
<title>odb_can</title>
<path fill="none" stroke="black" d="M802,-387.73C802,-389.53 788.11,-391 771,-391 753.89,-391 740,-389.53 740,-387.73 740,-387.73 740,-358.27 740,-358.27 740,-356.47 753.89,-355 771,-355 788.11,-355 802,-356.47 802,-358.27 802,-358.27 802,-387.73 802,-387.73"/>
<path fill="none" stroke="black" d="M802,-387.73C802,-385.92 788.11,-384.45 771,-384.45 753.89,-384.45 740,-385.92 740,-387.73"/>
<text text-anchor="middle" x="771" y="-369.3" font-family="Times,serif" font-size="14.00">odb_can</text>
</g>
<!-- Canari&#45;&gt;odb_can -->
<g id="edge18" class="edge">
<title>Canari&#45;&gt;odb_can</title>
<path fill="none" stroke="black" d="M625.05,-434.16C650.07,-424.11 688.52,-408.58 730.09,-391.35"/>
<polygon fill="black" stroke="black" points="731.68,-394.48 739.58,-387.41 729,-388.01 731.68,-394.48"/>
</g>
<!-- Screening -->
<g id="node7" class="node">
<title>Screening</title>
<g id="a_node7"><a xlink:href="../DataAssimilation/Screening/index.html" xlink:title="Screening">
<polygon fill="none" stroke="black" points="337.5,-464 266.5,-464 266.5,-428 337.5,-428 337.5,-464"/>
<text text-anchor="middle" x="302" y="-442.3" font-family="Times,serif" font-size="14.00">Screening</text>
</a>
</g>
</g>
<!-- odb_ccma -->
<g id="node15" class="node">
<title>odb_ccma</title>
<path fill="none" stroke="black" d="M428,-387.73C428,-389.53 411.86,-391 392,-391 372.14,-391 356,-389.53 356,-387.73 356,-387.73 356,-358.27 356,-358.27 356,-356.47 372.14,-355 392,-355 411.86,-355 428,-356.47 428,-358.27 428,-358.27 428,-387.73 428,-387.73"/>
<path fill="none" stroke="black" d="M428,-387.73C428,-385.92 411.86,-384.45 392,-384.45 372.14,-384.45 356,-385.92 356,-387.73"/>
<text text-anchor="middle" x="392" y="-369.3" font-family="Times,serif" font-size="14.00">odb_ccma</text>
</g>
<!-- Screening&#45;&gt;odb_ccma -->
<g id="edge22" class="edge">
<title>Screening&#45;&gt;odb_ccma</title>
<path fill="none" stroke="black" d="M323.79,-427.81C335.39,-418.66 349.84,-407.26 362.44,-397.32"/>
<polygon fill="black" stroke="black" points="364.73,-399.97 370.41,-391.03 360.4,-394.47 364.73,-399.97"/>
</g>
<!-- odbvar -->
<g id="node17" class="node">
<title>odbvar</title>
<path fill="none" stroke="black" d="M338,-387.73C338,-389.53 325.9,-391 311,-391 296.1,-391 284,-389.53 284,-387.73 284,-387.73 284,-358.27 284,-358.27 284,-356.47 296.1,-355 311,-355 325.9,-355 338,-356.47 338,-358.27 338,-358.27 338,-387.73 338,-387.73"/>
<path fill="none" stroke="black" d="M338,-387.73C338,-385.92 325.9,-384.45 311,-384.45 296.1,-384.45 284,-385.92 284,-387.73"/>
<text text-anchor="middle" x="311" y="-369.3" font-family="Times,serif" font-size="14.00">odbvar</text>
</g>
<!-- Screening&#45;&gt;odbvar -->
<g id="edge23" class="edge">
<title>Screening&#45;&gt;odbvar</title>
<path fill="none" stroke="black" d="M304.18,-427.81C305.2,-419.79 306.43,-410.05 307.57,-401.07"/>
<polygon fill="black" stroke="black" points="311.06,-401.39 308.84,-391.03 304.11,-400.51 311.06,-401.39"/>
</g>
<!-- VarBC_fg -->
<g id="node25" class="node">
<title>VarBC_fg</title>
<g id="a_node25"><a xlink:title="VarBC first guess">
<polygon fill="none" stroke="black" points="260,-391 180,-391 180,-355 266,-355 266,-385 260,-391"/>
<polyline fill="none" stroke="black" points="260,-391 260,-385 "/>
<polyline fill="none" stroke="black" points="266,-385 260,-385 "/>
<text text-anchor="middle" x="223" y="-369.3" font-family="Times,serif" font-size="14.00">VarBC.cycle</text>
</a>
</g>
</g>
<!-- Screening&#45;&gt;VarBC_fg -->
<g id="edge24" class="edge">
<title>Screening&#45;&gt;VarBC_fg</title>
<path fill="none" stroke="black" d="M282.88,-427.81C272.88,-418.83 260.49,-407.69 249.58,-397.89"/>
<polygon fill="black" stroke="black" points="251.72,-395.11 241.95,-391.03 247.05,-400.32 251.72,-395.11"/>
</g>
<!-- Minim -->
<g id="node8" class="node">
<title>Minim</title>
<g id="a_node8"><a xlink:href="http://www.umr-cnrm.fr/gmapdoc/IMG/pdf/ykminim45.pdf" xlink:title="Minim">
<polygon fill="none" stroke="black" points="250,-304 196,-304 196,-268 250,-268 250,-304"/>
<text text-anchor="middle" x="223" y="-282.3" font-family="Times,serif" font-size="14.00">Minim</text>
</a>
</g>
</g>
<!-- MXMIN1999p0000 -->
<g id="node10" class="node">
<title>MXMIN1999p0000</title>
<g id="a_node10"><a xlink:title="Upper air Analysis">
<polygon fill="none" stroke="black" points="508,-196 386,-196 386,-160 514,-160 514,-190 508,-196"/>
<polyline fill="none" stroke="black" points="508,-196 508,-190 "/>
<polyline fill="none" stroke="black" points="514,-190 508,-190 "/>
<text text-anchor="middle" x="450" y="-174.3" font-family="Times,serif" font-size="14.00">MXMIN1999+0000</text>
</a>
</g>
</g>
<!-- Minim&#45;&gt;MXMIN1999p0000 -->
<g id="edge28" class="edge">
<title>Minim&#45;&gt;MXMIN1999p0000</title>
<path fill="none" stroke="black" d="M250.38,-272.21C288.55,-254.39 358.25,-221.84 404.35,-200.32"/>
<polygon fill="black" stroke="black" points="405.94,-203.44 413.52,-196.03 402.98,-197.09 405.94,-203.44"/>
</g>
<!-- VarBC_an -->
<g id="node26" class="node">
<title>VarBC_an</title>
<g id="a_node26"><a xlink:title="VarBC analysis">
<polygon fill="none" stroke="black" points="260,-196 180,-196 180,-160 266,-160 266,-190 260,-196"/>
<polyline fill="none" stroke="black" points="260,-196 260,-190 "/>
<polyline fill="none" stroke="black" points="266,-190 260,-190 "/>
<text text-anchor="middle" x="223" y="-174.3" font-family="Times,serif" font-size="14.00">VarBC.cycle</text>
</a>
</g>
</g>
<!-- Minim&#45;&gt;VarBC_an -->
<g id="edge29" class="edge">
<title>Minim&#45;&gt;VarBC_an</title>
<path fill="none" stroke="black" d="M223,-267.97C223,-251.38 223,-225.88 223,-206.43"/>
<polygon fill="black" stroke="black" points="226.5,-206.34 223,-196.34 219.5,-206.34 226.5,-206.34"/>
</g>
<!-- Forecast -->
<g id="node9" class="node">
<title>Forecast</title>
<g id="a_node9"><a xlink:href="../ForecastModel/Forecast/index.html" xlink:title="Forecast">
<polygon fill="none" stroke="black" points="585,-36 523,-36 523,0 585,0 585,-36"/>
<text text-anchor="middle" x="554" y="-14.3" font-family="Times,serif" font-size="14.00">Forecast</text>
</a>
</g>
</g>
<!-- fc_start -->
<g id="node20" class="node">
<title>fc_start</title>
<polygon fill="none" stroke="black" points="537.5,-109 486.5,-109 486.5,-73 543.5,-73 543.5,-103 537.5,-109"/>
<polyline fill="none" stroke="black" points="537.5,-109 537.5,-103 "/>
<polyline fill="none" stroke="black" points="543.5,-103 537.5,-103 "/>
<text text-anchor="middle" x="515" y="-87.3" font-family="Times,serif" font-size="14.00">fc_start</text>
</g>
<!-- MXMIN1999p0000&#45;&gt;fc_start -->
<g id="edge37" class="edge">
<title>MXMIN1999p0000&#45;&gt;fc_start</title>
<path fill="none" stroke="black" stroke-dasharray="5,2" d="M463.15,-159.8C472.49,-147.59 485.18,-130.99 495.67,-117.28"/>
<polygon fill="black" stroke="black" points="498.57,-119.25 501.87,-109.18 493.01,-114.99 498.57,-119.25"/>
<text text-anchor="middle" x="506" y="-130.8" font-family="Times,serif" font-size="14.00">Minim</text>
</g>
<!-- fc_start_sfx -->
<g id="node23" class="node">
<title>fc_start_sfx</title>
<polygon fill="none" stroke="black" points="653,-250 579,-250 579,-214 659,-214 659,-244 653,-250"/>
<polyline fill="none" stroke="black" points="653,-250 653,-244 "/>
<polyline fill="none" stroke="black" points="659,-244 653,-244 "/>
<text text-anchor="middle" x="619" y="-228.3" font-family="Times,serif" font-size="14.00">fc_start_sfx</text>
</g>
<!-- ICMSHANALp0000sfx&#45;&gt;fc_start_sfx -->
<g id="edge36" class="edge">
<title>ICMSHANALp0000sfx&#45;&gt;fc_start_sfx</title>
<path fill="none" stroke="black" stroke-dasharray="5,2" d="M641.81,-354.96C637.39,-331.3 629.34,-288.26 624.08,-260.15"/>
<polygon fill="black" stroke="black" points="627.49,-259.37 622.21,-250.18 620.61,-260.66 627.49,-259.37"/>
<text text-anchor="middle" x="657.5" y="-325.8" font-family="Times,serif" font-size="14.00">Canari</text>
</g>
<!-- obYYYYMMDD&#45;&gt;Bator -->
<g id="edge8" class="edge">
<title>obYYYYMMDD&#45;&gt;Bator</title>
<path fill="none" stroke="black" d="M386.83,-827.98C378.13,-795.59 364.68,-724.55 399,-682 420,-655.96 514.22,-639.76 567.67,-632.49"/>
<polygon fill="black" stroke="black" points="568.33,-635.93 577.78,-631.16 567.41,-628.99 568.33,-635.93"/>
</g>
<!-- obYYYYMMDD&#45;&gt;Oulan -->
<g id="edge6" class="edge">
<title>obYYYYMMDD&#45;&gt;Oulan</title>
<path fill="none" stroke="black" d="M405.56,-827.81C412.37,-819.18 420.75,-808.56 428.25,-799.03"/>
<polygon fill="black" stroke="black" points="431.12,-801.05 434.57,-791.03 425.63,-796.71 431.12,-801.05"/>
</g>
<!-- OBSOUL&#45;&gt;Bator -->
<g id="edge9" class="edge">
<title>OBSOUL&#45;&gt;Bator</title>
<path fill="none" stroke="black" d="M496.25,-681.99C518.09,-671.15 546.35,-657.12 568.59,-646.08"/>
<polygon fill="black" stroke="black" points="570.32,-649.13 577.72,-641.55 567.2,-642.86 570.32,-649.13"/>
</g>
<!-- odb&#45;&gt;Screening -->
<g id="edge19" class="edge">
<title>odb&#45;&gt;Screening</title>
<path fill="none" stroke="black" d="M435.16,-536.9C408.69,-519.03 365.76,-490.05 335.83,-469.84"/>
<polygon fill="black" stroke="black" points="337.62,-466.83 327.37,-464.13 333.7,-472.63 337.62,-466.83"/>
</g>
<!-- odb_ccma&#45;&gt;Minim -->
<g id="edge25" class="edge">
<title>odb_ccma&#45;&gt;Minim</title>
<path fill="none" stroke="black" d="M360.21,-356.01C331.57,-341.61 289.47,-320.43 259.47,-305.34"/>
<polygon fill="black" stroke="black" points="260.69,-302.04 250.18,-300.67 257.54,-308.29 260.69,-302.04"/>
</g>
<!-- odb_can_ori&#45;&gt;Canari -->
<g id="edge12" class="edge">
<title>odb_can_ori&#45;&gt;Canari</title>
<path fill="none" stroke="black" d="M726.42,-535.97C700.62,-518.1 659.91,-489.89 631.25,-470.04"/>
<polygon fill="black" stroke="black" points="632.99,-466.98 622.77,-464.16 629,-472.74 632.99,-466.98"/>
</g>
<!-- fc_start&#45;&gt;Forecast -->
<g id="edge30" class="edge">
<title>fc_start&#45;&gt;Forecast</title>
<path fill="none" stroke="black" d="M524.44,-72.81C529.04,-64.44 534.67,-54.2 539.77,-44.9"/>
<polygon fill="black" stroke="black" points="542.9,-46.48 544.65,-36.03 536.76,-43.11 542.9,-46.48"/>
</g>
<!-- first_guess&#45;&gt;Canari -->
<g id="edge13" class="edge">
<title>first_guess&#45;&gt;Canari</title>
<path fill="none" stroke="black" d="M298.28,-536.67C334.87,-521.1 392.51,-497.75 444,-482 483.34,-469.97 529.46,-460.02 560.91,-453.84"/>
<polygon fill="black" stroke="black" points="561.83,-457.23 570.98,-451.89 560.5,-450.36 561.83,-457.23"/>
</g>
<!-- first_guess&#45;&gt;Screening -->
<g id="edge20" class="edge">
<title>first_guess&#45;&gt;Screening</title>
<path fill="none" stroke="black" d="M267.59,-535.97C274.06,-519.22 284.05,-493.41 291.6,-473.89"/>
<polygon fill="black" stroke="black" points="294.95,-474.93 295.29,-464.34 288.42,-472.4 294.95,-474.93"/>
</g>
<!-- first_guess&#45;&gt;Minim -->
<g id="edge26" class="edge">
<title>first_guess&#45;&gt;Minim</title>
<path fill="none" stroke="black" d="M247.52,-535.83C226.28,-507.56 185.93,-448.62 171,-391 166.99,-375.51 165.87,-370.16 171,-355 176.47,-338.83 187.5,-323.49 198,-311.48"/>
<polygon fill="black" stroke="black" points="200.59,-313.83 204.76,-304.09 195.42,-309.11 200.59,-313.83"/>
</g>
<!-- first_guess_sfx&#45;&gt;Canari -->
<g id="edge14" class="edge">
<title>first_guess_sfx&#45;&gt;Canari</title>
<path fill="none" stroke="black" d="M402.44,-535.97C446.21,-516.06 518.17,-483.32 561.53,-463.59"/>
<polygon fill="black" stroke="black" points="563.2,-466.68 570.85,-459.35 560.3,-460.31 563.2,-466.68"/>
</g>
<!-- fc_start_sfx&#45;&gt;Forecast -->
<g id="edge31" class="edge">
<title>fc_start_sfx&#45;&gt;Forecast</title>
<path fill="none" stroke="black" d="M613.68,-213.65C602.37,-176.76 575.85,-90.27 562.3,-46.06"/>
<polygon fill="black" stroke="black" points="565.58,-44.83 559.3,-36.29 558.89,-46.88 565.58,-44.83"/>
</g>
<!-- VarBC_very_fg&#45;&gt;Screening -->
<g id="edge21" class="edge">
<title>VarBC_very_fg&#45;&gt;Screening</title>
<path fill="none" stroke="black" d="M155.12,-535.97C184.88,-517.94 232,-489.4 264.81,-469.53"/>
<polygon fill="black" stroke="black" points="266.92,-472.34 273.66,-464.16 263.3,-466.35 266.92,-472.34"/>
</g>
<!-- VarBC_fg&#45;&gt;Minim -->
<g id="edge27" class="edge">
<title>VarBC_fg&#45;&gt;Minim</title>
<path fill="none" stroke="black" d="M223,-354.8C223,-343.16 223,-327.55 223,-314.24"/>
<polygon fill="black" stroke="black" points="226.5,-314.18 223,-304.18 219.5,-314.18 226.5,-314.18"/>
</g>
<!-- stabal96&#45;&gt;Minim -->
<g id="edge35" class="edge">
<title>stabal96&#45;&gt;Minim</title>
<path fill="none" stroke="black" d="M59.5,-481.95C67.46,-447.28 90.06,-367.91 138,-322 151.17,-309.39 169.52,-301.06 185.8,-295.71"/>
<polygon fill="black" stroke="black" points="187.05,-298.99 195.61,-292.74 185.02,-292.28 187.05,-298.99"/>
</g>
<!-- ECMWF_CANARI_SST_SIC -->
<g id="node28" class="node">
<title>ECMWF_CANARI_SST_SIC</title>
<polygon fill="none" stroke="black" points="685.5,-572 504.5,-572 504.5,-536 691.5,-536 691.5,-566 685.5,-572"/>
<polyline fill="none" stroke="black" points="685.5,-572 685.5,-566 "/>
<polyline fill="none" stroke="black" points="691.5,-566 685.5,-566 "/>
<text text-anchor="middle" x="598" y="-550.3" font-family="Times,serif" font-size="14.00">ECMWF_CANARI_SST_SIC</text>
</g>
<!-- ECMWF_CANARI_SST_SIC&#45;&gt;Canari -->
<g id="edge15" class="edge">
<title>ECMWF_CANARI_SST_SIC&#45;&gt;Canari</title>
<path fill="none" stroke="black" d="M598,-535.97C598,-519.38 598,-493.88 598,-474.43"/>
<polygon fill="black" stroke="black" points="601.5,-474.34 598,-464.34 594.5,-474.34 601.5,-474.34"/>
</g>
<!-- LISTE_NOIRE_DIAP -->
<g id="node29" class="node">
<title>LISTE_NOIRE_DIAP</title>
<g id="a_node29"><a xlink:href="../Observations/Bator/index.html#LISTE_NOIRE_DIAP-1" xlink:title="LISTE_NOIRE_DIAP">
<polygon fill="none" stroke="black" points="670,-718 534,-718 534,-682 676,-682 676,-712 670,-718"/>
<polyline fill="none" stroke="black" points="670,-718 670,-712 "/>
<polyline fill="none" stroke="black" points="676,-712 670,-712 "/>
<text text-anchor="middle" x="605" y="-696.3" font-family="Times,serif" font-size="14.00">LISTE_NOIRE_DIAP</text>
</a>
</g>
</g>
<!-- LISTE_NOIRE_DIAP&#45;&gt;Bator -->
<g id="edge32" class="edge">
<title>LISTE_NOIRE_DIAP&#45;&gt;Bator</title>
<path fill="none" stroke="black" d="M605,-681.81C605,-673.79 605,-664.05 605,-655.07"/>
<polygon fill="black" stroke="black" points="608.5,-655.03 605,-645.03 601.5,-655.03 608.5,-655.03"/>
</g>
<!-- LISTE_LOC -->
<g id="node30" class="node">
<title>LISTE_LOC</title>
<g id="a_node30"><a xlink:href="../Observations/Bator/index.html#LISTE_LOC-1" xlink:title="LISTE_LOC">
<polygon fill="none" stroke="black" points="777.5,-718 694.5,-718 694.5,-682 783.5,-682 783.5,-712 777.5,-718"/>
<polyline fill="none" stroke="black" points="777.5,-718 777.5,-712 "/>
<polyline fill="none" stroke="black" points="783.5,-712 777.5,-712 "/>
<text text-anchor="middle" x="739" y="-696.3" font-family="Times,serif" font-size="14.00">LISTE_LOC</text>
</a>
</g>
</g>
<!-- LISTE_LOC&#45;&gt;Bator -->
<g id="edge33" class="edge">
<title>LISTE_LOC&#45;&gt;Bator</title>
<path fill="none" stroke="black" d="M706.9,-681.99C687.16,-671.53 661.81,-658.1 641.34,-647.25"/>
<polygon fill="black" stroke="black" points="642.78,-644.06 632.31,-642.47 639.51,-650.24 642.78,-644.06"/>
</g>
<!-- param_batorcfg -->
<g id="node31" class="node">
<title>param_batorcfg</title>
<polygon fill="none" stroke="black" points="898.5,-718 801.5,-718 801.5,-682 904.5,-682 904.5,-712 898.5,-718"/>
<polyline fill="none" stroke="black" points="898.5,-718 898.5,-712 "/>
<polyline fill="none" stroke="black" points="904.5,-712 898.5,-712 "/>
<text text-anchor="middle" x="853" y="-696.3" font-family="Times,serif" font-size="14.00">param_batorcfg</text>
</g>
<!-- param_batorcfg&#45;&gt;Bator -->
<g id="edge34" class="edge">
<title>param_batorcfg&#45;&gt;Bator</title>
<path fill="none" stroke="black" d="M801.31,-684.2C753.71,-670.57 684.25,-650.69 641.98,-638.59"/>
<polygon fill="black" stroke="black" points="642.69,-635.15 632.11,-635.76 640.76,-641.88 642.69,-635.15"/>
</g>
</g>
</svg>
