<?xml version="1.0" encoding="UTF-8" standalone="no"?>
<!DOCTYPE svg PUBLIC "-//W3C//DTD SVG 1.1//EN"
 "http://www.w3.org/Graphics/SVG/1.1/DTD/svg11.dtd">
<!-- Generated by graphviz version 3.0.0 (20221109.1736)
 -->
<!-- Title: Harmonie Pages: 1 -->
<svg width="1044pt" height="945pt"
 viewBox="0.00 0.00 1043.50 945.00" xmlns="http://www.w3.org/2000/svg" xmlns:xlink="http://www.w3.org/1999/xlink">
<g id="graph0" class="graph" transform="scale(1 1) rotate(0) translate(4 941)">
<title>Harmonie</title>
<polygon fill="white" stroke="transparent" points="-4,4 -4,-941 1039.5,-941 1039.5,4 -4,4"/>
<!-- Prepare_ob -->
<g id="node1" class="node">
<title>Prepare_ob</title>
<g id="a_node1"><a xlink:href="../Observations/ObservationData/index.html" xlink:title="Prepare_ob">
<polygon fill="none" stroke="black" points="505,-937 407,-937 407,-901 505,-901 505,-937"/>
<text text-anchor="middle" x="456" y="-915.3" font-family="Times,serif" font-size="14.00">Prepare_ob</text>
</a>
</g>
</g>
<!-- obYYYYMMDD -->
<g id="node12" class="node">
<title>obYYYYMMDD</title>
<polygon fill="none" stroke="black" points="563,-864 343,-864 343,-828 569,-828 569,-858 563,-864"/>
<polyline fill="none" stroke="black" points="563,-864 563,-858 "/>
<polyline fill="none" stroke="black" points="569,-858 563,-858 "/>
<text text-anchor="middle" x="456" y="-842.3" font-family="Times,serif" font-size="14.00">observations/ob$YYYYMMDD</text>
</g>
<!-- Prepare_ob&#45;&gt;obYYYYMMDD -->
<g id="edge1" class="edge">
<title>Prepare_ob&#45;&gt;obYYYYMMDD</title>
<path fill="none" stroke="black" d="M456,-900.81C456,-892.79 456,-883.05 456,-874.07"/>
<polygon fill="black" stroke="black" points="459.5,-874.03 456,-864.03 452.5,-874.03 459.5,-874.03"/>
</g>
<!-- Bator -->
<g id="node2" class="node">
<title>Bator</title>
<g id="a_node2"><a xlink:href="../Observations/Bator/index.html" xlink:title="Bator">
<polygon fill="none" stroke="black" points="721,-645 665,-645 665,-609 721,-609 721,-645"/>
<text text-anchor="middle" x="693" y="-623.3" font-family="Times,serif" font-size="14.00">Bator</text>
</a>
</g>
</g>
<!-- odb -->
<g id="node14" class="node">
<title>odb</title>
<path fill="none" stroke="black" d="M560,-568.73C560,-570.53 547.9,-572 533,-572 518.1,-572 506,-570.53 506,-568.73 506,-568.73 506,-539.27 506,-539.27 506,-537.47 518.1,-536 533,-536 547.9,-536 560,-537.47 560,-539.27 560,-539.27 560,-568.73 560,-568.73"/>
<path fill="none" stroke="black" d="M560,-568.73C560,-566.92 547.9,-565.45 533,-565.45 518.1,-565.45 506,-566.92 506,-568.73"/>
<text text-anchor="middle" x="533" y="-550.3" font-family="Times,serif" font-size="14.00">odb</text>
</g>
<!-- Bator&#45;&gt;odb -->
<g id="edge10" class="edge">
<title>Bator&#45;&gt;odb</title>
<path fill="none" stroke="black" d="M664.82,-614.02C641.49,-604.03 607.27,-589.25 569.29,-572.07"/>
<polygon fill="black" stroke="black" points="570.64,-568.84 560.09,-567.9 567.75,-575.22 570.64,-568.84"/>
</g>
<!-- odb_can_ori -->
<g id="node19" class="node">
<title>odb_can_ori</title>
<path fill="none" stroke="black" d="M904.5,-568.73C904.5,-570.53 881.87,-572 854,-572 826.13,-572 803.5,-570.53 803.5,-568.73 803.5,-568.73 803.5,-539.27 803.5,-539.27 803.5,-537.47 826.13,-536 854,-536 881.87,-536 904.5,-537.47 904.5,-539.27 904.5,-539.27 904.5,-568.73 904.5,-568.73"/>
<path fill="none" stroke="black" d="M904.5,-568.73C904.5,-566.92 881.87,-565.45 854,-565.45 826.13,-565.45 803.5,-566.92 803.5,-568.73"/>
<text text-anchor="middle" x="854" y="-550.3" font-family="Times,serif" font-size="14.00">odb_can_ori</text>
</g>
<!-- Bator&#45;&gt;odb_can_ori -->
<g id="edge11" class="edge">
<title>Bator&#45;&gt;odb_can_ori</title>
<path fill="none" stroke="black" d="M721.04,-613.63C744.84,-603.14 779.47,-587.87 807.42,-575.54"/>
<polygon fill="black" stroke="black" points="808.88,-578.72 816.62,-571.48 806.06,-572.32 808.88,-578.72"/>
</g>
<!-- Oulan -->
<g id="node3" class="node">
<title>Oulan</title>
<g id="a_node3"><a xlink:href="../Observations/Oulan/index.html" xlink:title="Oulan">
<polygon fill="none" stroke="black" points="547.5,-791 488.5,-791 488.5,-755 547.5,-755 547.5,-791"/>
<text text-anchor="middle" x="518" y="-769.3" font-family="Times,serif" font-size="14.00">Oulan</text>
</a>
</g>
</g>
<!-- OBSOUL -->
<g id="node13" class="node">
<title>OBSOUL</title>
<polygon fill="none" stroke="black" points="590,-718 472,-718 472,-682 596,-682 596,-712 590,-718"/>
<polyline fill="none" stroke="black" points="590,-718 590,-712 "/>
<polyline fill="none" stroke="black" points="596,-712 590,-712 "/>
<text text-anchor="middle" x="534" y="-696.3" font-family="Times,serif" font-size="14.00">oulan/OBSOUL</text>
</g>
<!-- Oulan&#45;&gt;OBSOUL -->
<g id="edge7" class="edge">
<title>Oulan&#45;&gt;OBSOUL</title>
<path fill="none" stroke="black" d="M521.87,-754.81C523.68,-746.79 525.88,-737.05 527.9,-728.07"/>
<polygon fill="black" stroke="black" points="531.38,-728.55 530.16,-718.03 524.55,-727.01 531.38,-728.55"/>
</g>
<!-- FirstGuess -->
<g id="node4" class="node">
<title>FirstGuess</title>
<polygon fill="none" stroke="black" points="399.5,-645 304.5,-645 304.5,-609 399.5,-609 399.5,-645"/>
<text text-anchor="middle" x="352" y="-623.3" font-family="Times,serif" font-size="14.00">FirstGuess</text>
</g>
<!-- first_guess -->
<g id="node21" class="node">
<title>first_guess</title>
<polygon fill="none" stroke="black" points="342,-572 254,-572 254,-536 348,-536 348,-566 342,-572"/>
<polyline fill="none" stroke="black" points="342,-572 342,-566 "/>
<polyline fill="none" stroke="black" points="348,-566 342,-566 "/>
<text text-anchor="middle" x="301" y="-550.3" font-family="Times,serif" font-size="14.00">first_guess</text>
</g>
<!-- FirstGuess&#45;&gt;first_guess -->
<g id="edge4" class="edge">
<title>FirstGuess&#45;&gt;first_guess</title>
<path fill="none" stroke="black" d="M339.65,-608.81C333.52,-600.27 325.98,-589.77 319.19,-580.32"/>
<polygon fill="black" stroke="black" points="321.91,-578.11 313.23,-572.03 316.22,-582.19 321.91,-578.11"/>
</g>
<!-- first_guess_sfx -->
<g id="node22" class="node">
<title>first_guess_sfx</title>
<polygon fill="none" stroke="black" points="482,-572 366,-572 366,-536 488,-536 488,-566 482,-572"/>
<polyline fill="none" stroke="black" points="482,-572 482,-566 "/>
<polyline fill="none" stroke="black" points="488,-566 482,-566 "/>
<text text-anchor="middle" x="427" y="-550.3" font-family="Times,serif" font-size="14.00">first_guess_sfx</text>
</g>
<!-- FirstGuess&#45;&gt;first_guess_sfx -->
<g id="edge5" class="edge">
<title>FirstGuess&#45;&gt;first_guess_sfx</title>
<path fill="none" stroke="black" d="M370.16,-608.81C379.55,-599.92 391.18,-588.91 401.47,-579.17"/>
<polygon fill="black" stroke="black" points="404.16,-581.45 409.01,-572.03 399.34,-576.36 404.16,-581.45"/>
</g>
<!-- Fetch_assim_data -->
<g id="node5" class="node">
<title>Fetch_assim_data</title>
<polygon fill="none" stroke="black" points="171.5,-645 28.5,-645 28.5,-609 171.5,-609 171.5,-645"/>
<text text-anchor="middle" x="100" y="-623.3" font-family="Times,serif" font-size="14.00">Fetch_assim_data</text>
</g>
<!-- VarBC_very_fg -->
<g id="node24" class="node">
<title>VarBC_very_fg</title>
<g id="a_node24"><a xlink:title="VarBC very first guess">
<polygon fill="none" stroke="black" points="198,-572 102,-572 102,-536 204,-536 204,-566 198,-572"/>
<polyline fill="none" stroke="black" points="198,-572 198,-566 "/>
<polyline fill="none" stroke="black" points="204,-566 198,-566 "/>
<text text-anchor="middle" x="153" y="-550.3" font-family="Times,serif" font-size="14.00">VarBC.cycle</text>
</a>
</g>
</g>
<!-- Fetch_assim_data&#45;&gt;VarBC_very_fg -->
<g id="edge2" class="edge">
<title>Fetch_assim_data&#45;&gt;VarBC_very_fg</title>
<path fill="none" stroke="black" d="M112.83,-608.81C119.21,-600.27 127.05,-589.77 134.1,-580.32"/>
<polygon fill="black" stroke="black" points="137.11,-582.14 140.29,-572.03 131.5,-577.95 137.11,-582.14"/>
</g>
<!-- stabal96 -->
<g id="node27" class="node">
<title>stabal96</title>
<g id="a_node27"><a xlink:href="../DataAssimilation/Structurefunctions/index.html" xlink:title="Structure Functions">
<polygon fill="none" stroke="black" points="134,-518 0,-518 0,-482 140,-482 140,-512 134,-518"/>
<polyline fill="none" stroke="black" points="134,-518 134,-512 "/>
<polyline fill="none" stroke="black" points="140,-512 134,-512 "/>
<text text-anchor="middle" x="70" y="-496.3" font-family="Times,serif" font-size="14.00">stabal96.{cv,bal}</text>
</a>
</g>
</g>
<!-- Fetch_assim_data&#45;&gt;stabal96 -->
<g id="edge3" class="edge">
<title>Fetch_assim_data&#45;&gt;stabal96</title>
<path fill="none" stroke="black" d="M95.89,-608.88C90.89,-588.05 82.39,-552.64 76.5,-528.09"/>
<polygon fill="black" stroke="black" points="79.89,-527.22 74.16,-518.31 73.09,-528.85 79.89,-527.22"/>
</g>
<!-- Canari -->
<g id="node6" class="node">
<title>Canari</title>
<g id="a_node6"><a xlink:href="../DataAssimilation/Surface/CANARI/index.html" xlink:title="Canari">
<polygon fill="none" stroke="black" points="714,-464 650,-464 650,-428 714,-428 714,-464"/>
<text text-anchor="middle" x="682" y="-442.3" font-family="Times,serif" font-size="14.00">Canari</text>
</a>
</g>
</g>
<!-- ICMSHANALp0000sfx -->
<g id="node11" class="node">
<title>ICMSHANALp0000sfx</title>
<g id="a_node11"><a xlink:title="Surface Analysis">
<polygon fill="none" stroke="black" points="838,-391 662,-391 662,-355 844,-355 844,-385 838,-391"/>
<polyline fill="none" stroke="black" points="838,-391 838,-385 "/>
<polyline fill="none" stroke="black" points="844,-385 838,-385 "/>
<text text-anchor="middle" x="753" y="-369.3" font-family="Times,serif" font-size="14.00">ICMSHANAL+0000.sfx</text>
</a>
</g>
</g>
<!-- Canari&#45;&gt;ICMSHANALp0000sfx -->
<g id="edge16" class="edge">
<title>Canari&#45;&gt;ICMSHANALp0000sfx</title>
<path fill="none" stroke="black" d="M699.19,-427.81C708.08,-418.92 719.09,-407.91 728.83,-398.17"/>
<polygon fill="black" stroke="black" points="731.37,-400.57 735.97,-391.03 726.43,-395.63 731.37,-400.57"/>
</g>
<!-- odb_can_merge -->
<g id="node16" class="node">
<title>odb_can_merge</title>
<path fill="none" stroke="black" d="M643.5,-387.73C643.5,-389.53 615.04,-391 580,-391 544.96,-391 516.5,-389.53 516.5,-387.73 516.5,-387.73 516.5,-358.27 516.5,-358.27 516.5,-356.47 544.96,-355 580,-355 615.04,-355 643.5,-356.47 643.5,-358.27 643.5,-358.27 643.5,-387.73 643.5,-387.73"/>
<path fill="none" stroke="black" d="M643.5,-387.73C643.5,-385.92 615.04,-384.45 580,-384.45 544.96,-384.45 516.5,-385.92 516.5,-387.73"/>
<text text-anchor="middle" x="580" y="-369.3" font-family="Times,serif" font-size="14.00">odb_can_merge</text>
</g>
<!-- Canari&#45;&gt;odb_can_merge -->
<g id="edge17" class="edge">
<title>Canari&#45;&gt;odb_can_merge</title>
<path fill="none" stroke="black" d="M657.57,-427.99C644.17,-418.67 627.37,-406.97 612.84,-396.86"/>
<polygon fill="black" stroke="black" points="614.79,-393.95 604.59,-391.11 610.79,-399.7 614.79,-393.95"/>
</g>
<!-- odb_can -->
<g id="node18" class="node">
<title>odb_can</title>
<path fill="none" stroke="black" d="M936,-387.73C936,-389.53 919.42,-391 899,-391 878.58,-391 862,-389.53 862,-387.73 862,-387.73 862,-358.27 862,-358.27 862,-356.47 878.58,-355 899,-355 919.42,-355 936,-356.47 936,-358.27 936,-358.27 936,-387.73 936,-387.73"/>
<path fill="none" stroke="black" d="M936,-387.73C936,-385.92 919.42,-384.45 899,-384.45 878.58,-384.45 862,-385.92 862,-387.73"/>
<text text-anchor="middle" x="899" y="-369.3" font-family="Times,serif" font-size="14.00">odb_can</text>
</g>
<!-- Canari&#45;&gt;odb_can -->
<g id="edge18" class="edge">
<title>Canari&#45;&gt;odb_can</title>
<path fill="none" stroke="black" d="M714.3,-435.31C746.84,-425.43 798.69,-409.39 852.24,-391.19"/>
<polygon fill="black" stroke="black" points="853.57,-394.43 861.9,-387.89 851.3,-387.81 853.57,-394.43"/>
</g>
<!-- Screening -->
<g id="node7" class="node">
<title>Screening</title>
<g id="a_node7"><a xlink:href="../DataAssimilation/Screening/index.html" xlink:title="Screening">
<polygon fill="none" stroke="black" points="397.5,-464 308.5,-464 308.5,-428 397.5,-428 397.5,-464"/>
<text text-anchor="middle" x="353" y="-442.3" font-family="Times,serif" font-size="14.00">Screening</text>
</a>
</g>
</g>
<!-- odb_ccma -->
<g id="node15" class="node">
<title>odb_ccma</title>
<path fill="none" stroke="black" d="M498,-387.73C498,-389.53 478.73,-391 455,-391 431.27,-391 412,-389.53 412,-387.73 412,-387.73 412,-358.27 412,-358.27 412,-356.47 431.27,-355 455,-355 478.73,-355 498,-356.47 498,-358.27 498,-358.27 498,-387.73 498,-387.73"/>
<path fill="none" stroke="black" d="M498,-387.73C498,-385.92 478.73,-384.45 455,-384.45 431.27,-384.45 412,-385.92 412,-387.73"/>
<text text-anchor="middle" x="455" y="-369.3" font-family="Times,serif" font-size="14.00">odb_ccma</text>
</g>
<!-- Screening&#45;&gt;odb_ccma -->
<g id="edge22" class="edge">
<title>Screening&#45;&gt;odb_ccma</title>
<path fill="none" stroke="black" d="M377.43,-427.99C390.83,-418.67 407.63,-406.97 422.16,-396.86"/>
<polygon fill="black" stroke="black" points="424.21,-399.7 430.41,-391.11 420.21,-393.95 424.21,-399.7"/>
</g>
<!-- odbvar -->
<g id="node17" class="node">
<title>odbvar</title>
<path fill="none" stroke="black" d="M394,-387.73C394,-389.53 379.21,-391 361,-391 342.79,-391 328,-389.53 328,-387.73 328,-387.73 328,-358.27 328,-358.27 328,-356.47 342.79,-355 361,-355 379.21,-355 394,-356.47 394,-358.27 394,-358.27 394,-387.73 394,-387.73"/>
<path fill="none" stroke="black" d="M394,-387.73C394,-385.92 379.21,-384.45 361,-384.45 342.79,-384.45 328,-385.92 328,-387.73"/>
<text text-anchor="middle" x="361" y="-369.3" font-family="Times,serif" font-size="14.00">odbvar</text>
</g>
<!-- Screening&#45;&gt;odbvar -->
<g id="edge23" class="edge">
<title>Screening&#45;&gt;odbvar</title>
<path fill="none" stroke="black" d="M354.94,-427.81C355.84,-419.79 356.94,-410.05 357.95,-401.07"/>
<polygon fill="black" stroke="black" points="361.44,-401.36 359.08,-391.03 354.48,-400.57 361.44,-401.36"/>
</g>
<!-- VarBC_fg -->
<g id="node25" class="node">
<title>VarBC_fg</title>
<g id="a_node25"><a xlink:title="VarBC first guess">
<polygon fill="none" stroke="black" points="304,-391 208,-391 208,-355 310,-355 310,-385 304,-391"/>
<polyline fill="none" stroke="black" points="304,-391 304,-385 "/>
<polyline fill="none" stroke="black" points="310,-385 304,-385 "/>
<text text-anchor="middle" x="259" y="-369.3" font-family="Times,serif" font-size="14.00">VarBC.cycle</text>
</a>
</g>
</g>
<!-- Screening&#45;&gt;VarBC_fg -->
<g id="edge24" class="edge">
<title>Screening&#45;&gt;VarBC_fg</title>
<path fill="none" stroke="black" d="M330.25,-427.81C318.12,-418.66 303.03,-407.26 289.87,-397.32"/>
<polygon fill="black" stroke="black" points="291.63,-394.26 281.55,-391.03 287.42,-399.85 291.63,-394.26"/>
</g>
<!-- Minim -->
<g id="node8" class="node">
<title>Minim</title>
<g id="a_node8"><a xlink:href="http://www.umr-cnrm.fr/gmapdoc/IMG/pdf/ykminim45.pdf" xlink:title="Minim">
<polygon fill="none" stroke="black" points="290,-304 228,-304 228,-268 290,-268 290,-304"/>
<text text-anchor="middle" x="259" y="-282.3" font-family="Times,serif" font-size="14.00">Minim</text>
</a>
</g>
</g>
<!-- MXMIN1999p0000 -->
<g id="node10" class="node">
<title>MXMIN1999p0000</title>
<g id="a_node10"><a xlink:title="Upper air Analysis">
<polygon fill="none" stroke="black" points="598,-196 448,-196 448,-160 604,-160 604,-190 598,-196"/>
<polyline fill="none" stroke="black" points="598,-196 598,-190 "/>
<polyline fill="none" stroke="black" points="604,-190 598,-190 "/>
<text text-anchor="middle" x="526" y="-174.3" font-family="Times,serif" font-size="14.00">MXMIN1999+0000</text>
</a>
</g>
</g>
<!-- Minim&#45;&gt;MXMIN1999p0000 -->
<g id="edge28" class="edge">
<title>Minim&#45;&gt;MXMIN1999p0000</title>
<path fill="none" stroke="black" d="M290.15,-272.63C335.18,-254.76 419.04,-221.46 473.67,-199.78"/>
<polygon fill="black" stroke="black" points="475.17,-202.94 483.18,-196 472.59,-196.44 475.17,-202.94"/>
</g>
<!-- VarBC_an -->
<g id="node26" class="node">
<title>VarBC_an</title>
<g id="a_node26"><a xlink:title="VarBC analysis">
<polygon fill="none" stroke="black" points="304,-196 208,-196 208,-160 310,-160 310,-190 304,-196"/>
<polyline fill="none" stroke="black" points="304,-196 304,-190 "/>
<polyline fill="none" stroke="black" points="310,-190 304,-190 "/>
<text text-anchor="middle" x="259" y="-174.3" font-family="Times,serif" font-size="14.00">VarBC.cycle</text>
</a>
</g>
</g>
<!-- Minim&#45;&gt;VarBC_an -->
<g id="edge29" class="edge">
<title>Minim&#45;&gt;VarBC_an</title>
<path fill="none" stroke="black" d="M259,-267.97C259,-251.38 259,-225.88 259,-206.43"/>
<polygon fill="black" stroke="black" points="262.5,-206.34 259,-196.34 255.5,-206.34 262.5,-206.34"/>
</g>
<!-- Forecast -->
<g id="node9" class="node">
<title>Forecast</title>
<g id="a_node9"><a xlink:href="../ForecastModel/Forecast/index.html" xlink:title="Forecast">
<polygon fill="none" stroke="black" points="690,-36 612,-36 612,0 690,0 690,-36"/>
<text text-anchor="middle" x="651" y="-14.3" font-family="Times,serif" font-size="14.00">Forecast</text>
</a>
</g>
</g>
<!-- fc_start -->
<g id="node20" class="node">
<title>fc_start</title>
<polygon fill="none" stroke="black" points="632.5,-109 567.5,-109 567.5,-73 638.5,-73 638.5,-103 632.5,-109"/>
<polyline fill="none" stroke="black" points="632.5,-109 632.5,-103 "/>
<polyline fill="none" stroke="black" points="638.5,-103 632.5,-103 "/>
<text text-anchor="middle" x="603" y="-87.3" font-family="Times,serif" font-size="14.00">fc_start</text>
</g>
<!-- MXMIN1999p0000&#45;&gt;fc_start -->
<g id="edge37" class="edge">
<title>MXMIN1999p0000&#45;&gt;fc_start</title>
<path fill="none" stroke="black" stroke-dasharray="5,2" d="M541.58,-159.8C552.75,-147.47 567.96,-130.68 580.45,-116.89"/>
<polygon fill="black" stroke="black" points="583.32,-118.94 587.44,-109.18 578.13,-114.24 583.32,-118.94"/>
<text text-anchor="middle" x="593" y="-130.8" font-family="Times,serif" font-size="14.00">Minim</text>
</g>
<!-- fc_start_sfx -->
<g id="node23" class="node">
<title>fc_start_sfx</title>
<polygon fill="none" stroke="black" points="765,-250 673,-250 673,-214 771,-214 771,-244 765,-250"/>
<polyline fill="none" stroke="black" points="765,-250 765,-244 "/>
<polyline fill="none" stroke="black" points="771,-244 765,-244 "/>
<text text-anchor="middle" x="722" y="-228.3" font-family="Times,serif" font-size="14.00">fc_start_sfx</text>
</g>
<!-- ICMSHANALp0000sfx&#45;&gt;fc_start_sfx -->
<g id="edge36" class="edge">
<title>ICMSHANALp0000sfx&#45;&gt;fc_start_sfx</title>
<path fill="none" stroke="black" stroke-dasharray="5,2" d="M749.2,-354.96C743.92,-331.3 734.32,-288.26 728.06,-260.15"/>
<polygon fill="black" stroke="black" points="731.43,-259.18 725.83,-250.18 724.59,-260.71 731.43,-259.18"/>
<text text-anchor="middle" x="770" y="-325.8" font-family="Times,serif" font-size="14.00">Canari</text>
</g>
<!-- obYYYYMMDD&#45;&gt;Bator -->
<g id="edge8" class="edge">
<title>obYYYYMMDD&#45;&gt;Bator</title>
<path fill="none" stroke="black" d="M450.73,-827.89C441.86,-795.37 428.14,-724.11 463,-682 487.12,-652.87 595.86,-637.68 654.77,-631.47"/>
<polygon fill="black" stroke="black" points="655.22,-634.94 664.82,-630.45 654.52,-627.98 655.22,-634.94"/>
</g>
<!-- obYYYYMMDD&#45;&gt;Oulan -->
<g id="edge6" class="edge">
<title>obYYYYMMDD&#45;&gt;Oulan</title>
<path fill="none" stroke="black" d="M471.01,-827.81C478.62,-819.09 488.01,-808.34 496.39,-798.75"/>
<polygon fill="black" stroke="black" points="499.19,-800.86 503.13,-791.03 493.92,-796.26 499.19,-800.86"/>
</g>
<!-- OBSOUL&#45;&gt;Bator -->
<g id="edge9" class="edge">
<title>OBSOUL&#45;&gt;Bator</title>
<path fill="none" stroke="black" d="M572.08,-681.99C597.42,-670.68 630.54,-655.89 655.71,-644.65"/>
<polygon fill="black" stroke="black" points="657.23,-647.8 664.94,-640.53 654.38,-641.41 657.23,-647.8"/>
</g>
<!-- odb&#45;&gt;Screening -->
<g id="edge19" class="edge">
<title>odb&#45;&gt;Screening</title>
<path fill="none" stroke="black" d="M506.44,-537.36C475.92,-519.39 425.59,-489.75 390.94,-469.35"/>
<polygon fill="black" stroke="black" points="392.45,-466.17 382.06,-464.11 388.9,-472.2 392.45,-466.17"/>
</g>
<!-- odb_ccma&#45;&gt;Minim -->
<g id="edge25" class="edge">
<title>odb_ccma&#45;&gt;Minim</title>
<path fill="none" stroke="black" d="M417.67,-355.81C383.86,-341.15 334.18,-319.6 299.44,-304.54"/>
<polygon fill="black" stroke="black" points="300.63,-301.24 290.06,-300.47 297.84,-307.66 300.63,-301.24"/>
</g>
<!-- odb_can_ori&#45;&gt;Canari -->
<g id="edge12" class="edge">
<title>odb_can_ori&#45;&gt;Canari</title>
<path fill="none" stroke="black" d="M826.37,-535.97C797.11,-517.94 750.8,-489.4 718.55,-469.53"/>
<polygon fill="black" stroke="black" points="720.2,-466.43 709.85,-464.16 716.53,-472.39 720.2,-466.43"/>
</g>
<!-- fc_start&#45;&gt;Forecast -->
<g id="edge30" class="edge">
<title>fc_start&#45;&gt;Forecast</title>
<path fill="none" stroke="black" d="M614.62,-72.81C620.4,-64.27 627.49,-53.77 633.88,-44.32"/>
<polygon fill="black" stroke="black" points="636.79,-46.27 639.49,-36.03 630.99,-42.35 636.79,-46.27"/>
</g>
<!-- first_guess&#45;&gt;Canari -->
<g id="edge13" class="edge">
<title>first_guess&#45;&gt;Canari</title>
<path fill="none" stroke="black" d="M346.84,-535.89C389.45,-520.4 454.92,-497.68 513,-482 555.73,-470.46 605.42,-460.59 639.81,-454.3"/>
<polygon fill="black" stroke="black" points="640.74,-457.68 649.96,-452.46 639.5,-450.8 640.74,-457.68"/>
</g>
<!-- first_guess&#45;&gt;Screening -->
<g id="edge20" class="edge">
<title>first_guess&#45;&gt;Screening</title>
<path fill="none" stroke="black" d="M309.35,-535.97C317.64,-519.07 330.47,-492.94 340.07,-473.36"/>
<polygon fill="black" stroke="black" points="343.23,-474.86 344.49,-464.34 336.95,-471.78 343.23,-474.86"/>
</g>
<!-- first_guess&#45;&gt;Minim -->
<g id="edge26" class="edge">
<title>first_guess&#45;&gt;Minim</title>
<path fill="none" stroke="black" d="M285.36,-535.71C261.23,-507.74 215.96,-449.76 199,-391 194.56,-375.63 193.34,-369.97 199,-355 205.36,-338.17 218,-322.82 230.05,-310.97"/>
<polygon fill="black" stroke="black" points="232.51,-313.46 237.41,-304.07 227.72,-308.36 232.51,-313.46"/>
</g>
<!-- first_guess_sfx&#45;&gt;Canari -->
<g id="edge14" class="edge">
<title>first_guess_sfx&#45;&gt;Canari</title>
<path fill="none" stroke="black" d="M467.97,-535.97C515.25,-516.31 592.6,-484.16 640.23,-464.37"/>
<polygon fill="black" stroke="black" points="641.73,-467.53 649.63,-460.46 639.05,-461.06 641.73,-467.53"/>
</g>
<!-- fc_start_sfx&#45;&gt;Forecast -->
<g id="edge31" class="edge">
<title>fc_start_sfx&#45;&gt;Forecast</title>
<path fill="none" stroke="black" d="M716.19,-213.65C703.81,-176.68 674.75,-89.91 659.97,-45.78"/>
<polygon fill="black" stroke="black" points="663.29,-44.66 656.79,-36.29 656.65,-46.89 663.29,-44.66"/>
</g>
<!-- VarBC_very_fg&#45;&gt;Screening -->
<g id="edge21" class="edge">
<title>VarBC_very_fg&#45;&gt;Screening</title>
<path fill="none" stroke="black" d="M185.13,-535.97C219.44,-517.79 273.92,-488.91 311.46,-469.02"/>
<polygon fill="black" stroke="black" points="313.42,-471.94 320.61,-464.16 310.14,-465.75 313.42,-471.94"/>
</g>
<!-- VarBC_fg&#45;&gt;Minim -->
<g id="edge27" class="edge">
<title>VarBC_fg&#45;&gt;Minim</title>
<path fill="none" stroke="black" d="M259,-354.8C259,-343.16 259,-327.55 259,-314.24"/>
<polygon fill="black" stroke="black" points="262.5,-314.18 259,-304.18 255.5,-314.18 262.5,-314.18"/>
</g>
<!-- stabal96&#45;&gt;Minim -->
<g id="edge35" class="edge">
<title>stabal96&#45;&gt;Minim</title>
<path fill="none" stroke="black" d="M74.84,-481.81C85.51,-446.86 114.35,-367.02 166,-322 180.57,-309.3 200.19,-301.02 217.66,-295.71"/>
<polygon fill="black" stroke="black" points="218.95,-298.98 227.64,-292.92 217.07,-292.24 218.95,-298.98"/>
</g>
<!-- ECMWF_CANARI_SST_SIC -->
<g id="node28" class="node">
<title>ECMWF_CANARI_SST_SIC</title>
<polygon fill="none" stroke="black" points="779.5,-572 578.5,-572 578.5,-536 785.5,-536 785.5,-566 779.5,-572"/>
<polyline fill="none" stroke="black" points="779.5,-572 779.5,-566 "/>
<polyline fill="none" stroke="black" points="785.5,-566 779.5,-566 "/>
<text text-anchor="middle" x="682" y="-550.3" font-family="Times,serif" font-size="14.00">ECMWF_CANARI_SST_SIC</text>
</g>
<!-- ECMWF_CANARI_SST_SIC&#45;&gt;Canari -->
<g id="edge15" class="edge">
<title>ECMWF_CANARI_SST_SIC&#45;&gt;Canari</title>
<path fill="none" stroke="black" d="M682,-535.97C682,-519.38 682,-493.88 682,-474.43"/>
<polygon fill="black" stroke="black" points="685.5,-474.34 682,-464.34 678.5,-474.34 685.5,-474.34"/>
</g>
<!-- LISTE_NOIRE_DIAP -->
<g id="node29" class="node">
<title>LISTE_NOIRE_DIAP</title>
<g id="a_node29"><a xlink:href="../Observations/Bator/index.html#LISTE_NOIRE_DIAP-1" xlink:title="LISTE_NOIRE_DIAP">
<polygon fill="none" stroke="black" points="766.5,-718 613.5,-718 613.5,-682 772.5,-682 772.5,-712 766.5,-718"/>
<polyline fill="none" stroke="black" points="766.5,-718 766.5,-712 "/>
<polyline fill="none" stroke="black" points="772.5,-712 766.5,-712 "/>
<text text-anchor="middle" x="693" y="-696.3" font-family="Times,serif" font-size="14.00">LISTE_NOIRE_DIAP</text>
</a>
</g>
</g>
<!-- LISTE_NOIRE_DIAP&#45;&gt;Bator -->
<g id="edge32" class="edge">
<title>LISTE_NOIRE_DIAP&#45;&gt;Bator</title>
<path fill="none" stroke="black" d="M693,-681.81C693,-673.79 693,-664.05 693,-655.07"/>
<polygon fill="black" stroke="black" points="696.5,-655.03 693,-645.03 689.5,-655.03 696.5,-655.03"/>
</g>
<!-- LISTE_LOC -->
<g id="node30" class="node">
<title>LISTE_LOC</title>
<g id="a_node30"><a xlink:href="../Observations/Bator/index.html#LISTE_LOC-1" xlink:title="LISTE_LOC">
<polygon fill="none" stroke="black" points="882,-718 790,-718 790,-682 888,-682 888,-712 882,-718"/>
<polyline fill="none" stroke="black" points="882,-718 882,-712 "/>
<polyline fill="none" stroke="black" points="888,-712 882,-712 "/>
<text text-anchor="middle" x="839" y="-696.3" font-family="Times,serif" font-size="14.00">LISTE_LOC</text>
</a>
</g>
</g>
<!-- LISTE_LOC&#45;&gt;Bator -->
<g id="edge33" class="edge">
<title>LISTE_LOC&#45;&gt;Bator</title>
<path fill="none" stroke="black" d="M804.03,-681.99C781.79,-671.18 753.01,-657.18 730.32,-646.15"/>
<polygon fill="black" stroke="black" points="731.85,-643 721.33,-641.78 728.79,-649.3 731.85,-643"/>
</g>
<!-- param_batorcfg -->
<g id="node31" class="node">
<title>param_batorcfg</title>
<polygon fill="none" stroke="black" points="1029.5,-718 906.5,-718 906.5,-682 1035.5,-682 1035.5,-712 1029.5,-718"/>
<polyline fill="none" stroke="black" points="1029.5,-718 1029.5,-712 "/>
<polyline fill="none" stroke="black" points="1035.5,-712 1029.5,-712 "/>
<text text-anchor="middle" x="971" y="-696.3" font-family="Times,serif" font-size="14.00">param_batorcfg</text>
</g>
<!-- param_batorcfg&#45;&gt;Bator -->
<g id="edge34" class="edge">
<title>param_batorcfg&#45;&gt;Bator</title>
<path fill="none" stroke="black" d="M906.17,-682.44C851.84,-668.57 776.13,-649.23 731.09,-637.73"/>
<polygon fill="black" stroke="black" points="731.7,-634.27 721.14,-635.19 729.97,-641.05 731.7,-634.27"/>
</g>
</g>
</svg>
