<?xml version="1.0" encoding="UTF-8" standalone="no"?>
<!DOCTYPE svg PUBLIC "-//W3C//DTD SVG 1.1//EN"
 "http://www.w3.org/Graphics/SVG/1.1/DTD/svg11.dtd">
<!-- Generated by graphviz version 2.43.0 (0)
 -->
<!-- Title: Harmonie Pages: 1 -->
<svg width="1136pt" height="1008pt"
 viewBox="0.00 0.00 1136.00 1008.00" xmlns="http://www.w3.org/2000/svg" xmlns:xlink="http://www.w3.org/1999/xlink">
<g id="graph0" class="graph" transform="scale(1 1) rotate(0) translate(4 1004)">
<title>Harmonie</title>
<polygon fill="white" stroke="transparent" points="-4,4 -4,-1004 1132,-1004 1132,4 -4,4"/>
<!-- Prepare_ob -->
<g id="node1" class="node">
<title>Prepare_ob</title>
<g id="a_node1"><a xlink:href="../Observations/ObservationData/index.html" xlink:title="Prepare_ob">
<polygon fill="none" stroke="black" points="361,-1000 263,-1000 263,-964 361,-964 361,-1000"/>
<text text-anchor="middle" x="312" y="-978.3" font-family="Times,serif" font-size="14.00">Prepare_ob</text>
</a>
</g>
</g>
<!-- obYYYYMMDD -->
<g id="node18" class="node">
<title>obYYYYMMDD</title>
<polygon fill="none" stroke="black" points="419,-927 199,-927 199,-891 425,-891 425,-921 419,-927"/>
<polyline fill="none" stroke="black" points="419,-927 419,-921 "/>
<polyline fill="none" stroke="black" points="425,-921 419,-921 "/>
<text text-anchor="middle" x="312" y="-905.3" font-family="Times,serif" font-size="14.00">observations/ob$YYYYMMDD</text>
</g>
<!-- Prepare_ob&#45;&gt;obYYYYMMDD -->
<g id="edge2" class="edge">
<title>Prepare_ob&#45;&gt;obYYYYMMDD</title>
<path fill="none" stroke="black" d="M312,-963.81C312,-955.79 312,-946.05 312,-937.07"/>
<polygon fill="black" stroke="black" points="315.5,-937.03 312,-927.03 308.5,-937.03 315.5,-937.03"/>
</g>
<!-- Boundary_strategy -->
<g id="node2" class="node">
<title>Boundary_strategy</title>
<g id="a_node2"><a xlink:href="../Boundaries/BoundaryFilePreparation/index.html" xlink:title="Boundary_strategy">
<polygon fill="none" stroke="black" points="790,-1000 638,-1000 638,-964 790,-964 790,-1000"/>
<text text-anchor="middle" x="714" y="-978.3" font-family="Times,serif" font-size="14.00">Boundary_strategy</text>
</a>
</g>
</g>
<!-- bdstrategy_archive -->
<g id="node16" class="node">
<title>bdstrategy_archive</title>
<polygon fill="none" stroke="black" points="755.5,-927 666.5,-927 666.5,-891 761.5,-891 761.5,-921 755.5,-927"/>
<polyline fill="none" stroke="black" points="755.5,-927 755.5,-921 "/>
<polyline fill="none" stroke="black" points="761.5,-921 755.5,-921 "/>
<text text-anchor="middle" x="714" y="-905.3" font-family="Times,serif" font-size="14.00">bdstrategy</text>
</g>
<!-- Boundary_strategy&#45;&gt;bdstrategy_archive -->
<g id="edge1" class="edge">
<title>Boundary_strategy&#45;&gt;bdstrategy_archive</title>
<path fill="none" stroke="black" d="M714,-963.81C714,-955.79 714,-946.05 714,-937.07"/>
<polygon fill="black" stroke="black" points="717.5,-937.03 714,-927.03 710.5,-937.03 717.5,-937.03"/>
</g>
<!-- Bator -->
<g id="node3" class="node">
<title>Bator</title>
<g id="a_node3"><a xlink:href="../Observations/Bator/index.html" xlink:title="Bator">
<polygon fill="none" stroke="black" points="360,-694 304,-694 304,-658 360,-658 360,-694"/>
<text text-anchor="middle" x="332" y="-672.3" font-family="Times,serif" font-size="14.00">Bator</text>
</a>
</g>
</g>
<!-- odb -->
<g id="node20" class="node">
<title>odb</title>
<path fill="none" stroke="black" d="M311,-603.73C311,-605.53 298.9,-607 284,-607 269.1,-607 257,-605.53 257,-603.73 257,-603.73 257,-574.27 257,-574.27 257,-572.47 269.1,-571 284,-571 298.9,-571 311,-572.47 311,-574.27 311,-574.27 311,-603.73 311,-603.73"/>
<path fill="none" stroke="black" d="M311,-603.73C311,-601.92 298.9,-600.45 284,-600.45 269.1,-600.45 257,-601.92 257,-603.73"/>
<text text-anchor="middle" x="284" y="-585.3" font-family="Times,serif" font-size="14.00">odb</text>
</g>
<!-- Bator&#45;&gt;odb -->
<g id="edge14" class="edge">
<title>Bator&#45;&gt;odb</title>
<path fill="none" stroke="black" d="M322.29,-657.8C315.52,-645.82 306.37,-629.62 298.71,-616.06"/>
<polygon fill="black" stroke="black" points="301.66,-614.16 293.7,-607.18 295.57,-617.6 301.66,-614.16"/>
</g>
<!-- odb_can_ori -->
<g id="node25" class="node">
<title>odb_can_ori</title>
<path fill="none" stroke="black" d="M430.5,-603.73C430.5,-605.53 407.87,-607 380,-607 352.13,-607 329.5,-605.53 329.5,-603.73 329.5,-603.73 329.5,-574.27 329.5,-574.27 329.5,-572.47 352.13,-571 380,-571 407.87,-571 430.5,-572.47 430.5,-574.27 430.5,-574.27 430.5,-603.73 430.5,-603.73"/>
<path fill="none" stroke="black" d="M430.5,-603.73C430.5,-601.92 407.87,-600.45 380,-600.45 352.13,-600.45 329.5,-601.92 329.5,-603.73"/>
<text text-anchor="middle" x="380" y="-585.3" font-family="Times,serif" font-size="14.00">odb_can_ori</text>
</g>
<!-- Bator&#45;&gt;odb_can_ori -->
<g id="edge15" class="edge">
<title>Bator&#45;&gt;odb_can_ori</title>
<path fill="none" stroke="black" d="M341.71,-657.8C348.48,-645.82 357.63,-629.62 365.29,-616.06"/>
<polygon fill="black" stroke="black" points="368.43,-617.6 370.3,-607.18 362.34,-614.16 368.43,-617.6"/>
</g>
<!-- Oulan -->
<g id="node4" class="node">
<title>Oulan</title>
<g id="a_node4"><a xlink:href="../Observations/Oulan/index.html" xlink:title="Oulan">
<polygon fill="none" stroke="black" points="258.5,-840 199.5,-840 199.5,-804 258.5,-804 258.5,-840"/>
<text text-anchor="middle" x="229" y="-818.3" font-family="Times,serif" font-size="14.00">Oulan</text>
</a>
</g>
</g>
<!-- OBSOUL -->
<g id="node19" class="node">
<title>OBSOUL</title>
<polygon fill="none" stroke="black" points="150,-767 32,-767 32,-731 156,-731 156,-761 150,-767"/>
<polyline fill="none" stroke="black" points="150,-767 150,-761 "/>
<polyline fill="none" stroke="black" points="156,-761 150,-761 "/>
<text text-anchor="middle" x="94" y="-745.3" font-family="Times,serif" font-size="14.00">oulan/OBSOUL</text>
</g>
<!-- Oulan&#45;&gt;OBSOUL -->
<g id="edge7" class="edge">
<title>Oulan&#45;&gt;OBSOUL</title>
<path fill="none" stroke="black" d="M199.37,-805.42C180.58,-795.53 155.99,-782.6 135.29,-771.72"/>
<polygon fill="black" stroke="black" points="136.87,-768.59 126.39,-767.04 133.61,-774.79 136.87,-768.59"/>
</g>
<!-- FirstGuess -->
<g id="node5" class="node">
<title>FirstGuess</title>
<polygon fill="none" stroke="black" points="700.5,-694 605.5,-694 605.5,-658 700.5,-658 700.5,-694"/>
<text text-anchor="middle" x="653" y="-672.3" font-family="Times,serif" font-size="14.00">FirstGuess</text>
</g>
<!-- first_guess -->
<g id="node27" class="node">
<title>first_guess</title>
<polygon fill="none" stroke="black" points="537,-607 449,-607 449,-571 543,-571 543,-601 537,-607"/>
<polyline fill="none" stroke="black" points="537,-607 537,-601 "/>
<polyline fill="none" stroke="black" points="543,-601 537,-601 "/>
<text text-anchor="middle" x="496" y="-585.3" font-family="Times,serif" font-size="14.00">first_guess</text>
</g>
<!-- FirstGuess&#45;&gt;first_guess -->
<g id="edge9" class="edge">
<title>FirstGuess&#45;&gt;first_guess</title>
<path fill="none" stroke="black" d="M621.23,-657.8C596.78,-644.56 562.83,-626.18 536.45,-611.9"/>
<polygon fill="black" stroke="black" points="537.92,-608.71 527.46,-607.03 534.58,-614.87 537.92,-608.71"/>
</g>
<!-- very_first_guess -->
<g id="node28" class="node">
<title>very_first_guess</title>
<polygon fill="none" stroke="black" points="827,-607 701,-607 701,-571 833,-571 833,-601 827,-607"/>
<polyline fill="none" stroke="black" points="827,-607 827,-601 "/>
<polyline fill="none" stroke="black" points="833,-601 827,-601 "/>
<text text-anchor="middle" x="767" y="-585.3" font-family="Times,serif" font-size="14.00">very_first_guess</text>
</g>
<!-- FirstGuess&#45;&gt;very_first_guess -->
<g id="edge10" class="edge">
<title>FirstGuess&#45;&gt;very_first_guess</title>
<path fill="none" stroke="black" d="M676.07,-657.8C693.3,-644.95 717.03,-627.26 735.93,-613.17"/>
<polygon fill="black" stroke="black" points="738.04,-615.96 743.96,-607.18 733.86,-610.35 738.04,-615.96"/>
</g>
<!-- first_guess_sfx -->
<g id="node31" class="node">
<title>first_guess_sfx</title>
<polygon fill="none" stroke="black" points="677,-607 561,-607 561,-571 683,-571 683,-601 677,-607"/>
<polyline fill="none" stroke="black" points="677,-607 677,-601 "/>
<polyline fill="none" stroke="black" points="683,-601 677,-601 "/>
<text text-anchor="middle" x="622" y="-585.3" font-family="Times,serif" font-size="14.00">first_guess_sfx</text>
</g>
<!-- FirstGuess&#45;&gt;first_guess_sfx -->
<g id="edge11" class="edge">
<title>FirstGuess&#45;&gt;first_guess_sfx</title>
<path fill="none" stroke="black" d="M646.73,-657.8C642.44,-646.05 636.68,-630.24 631.79,-616.84"/>
<polygon fill="black" stroke="black" points="634.98,-615.37 628.26,-607.18 628.4,-617.77 634.98,-615.37"/>
</g>
<!-- Fetch_assim_data -->
<g id="node6" class="node">
<title>Fetch_assim_data</title>
<polygon fill="none" stroke="black" points="180.5,-694 37.5,-694 37.5,-658 180.5,-658 180.5,-694"/>
<text text-anchor="middle" x="109" y="-672.3" font-family="Times,serif" font-size="14.00">Fetch_assim_data</text>
</g>
<!-- VarBC_very_fg -->
<g id="node34" class="node">
<title>VarBC_very_fg</title>
<polygon fill="none" stroke="black" points="233,-607 137,-607 137,-571 239,-571 239,-601 233,-607"/>
<polyline fill="none" stroke="black" points="233,-607 233,-601 "/>
<polyline fill="none" stroke="black" points="239,-601 233,-601 "/>
<text text-anchor="middle" x="188" y="-585.3" font-family="Times,serif" font-size="14.00">VarBC.cycle</text>
</g>
<!-- Fetch_assim_data&#45;&gt;VarBC_very_fg -->
<g id="edge3" class="edge">
<title>Fetch_assim_data&#45;&gt;VarBC_very_fg</title>
<path fill="none" stroke="black" d="M124.99,-657.8C136.55,-645.36 152.34,-628.36 165.23,-614.5"/>
<polygon fill="black" stroke="black" points="167.79,-616.88 172.04,-607.18 162.67,-612.12 167.79,-616.88"/>
</g>
<!-- stabal96cv -->
<g id="node38" class="node">
<title>stabal96cv</title>
<g id="a_node38"><a xlink:href="../DataAssimilation/Structurefunctions/index.html" xlink:title="stabal96cv">
<polygon fill="none" stroke="black" points="155,-553 67,-553 67,-517 161,-517 161,-547 155,-553"/>
<polyline fill="none" stroke="black" points="155,-553 155,-547 "/>
<polyline fill="none" stroke="black" points="161,-547 155,-547 "/>
<text text-anchor="middle" x="114" y="-531.3" font-family="Times,serif" font-size="14.00">stabal96cv</text>
</a>
</g>
</g>
<!-- Fetch_assim_data&#45;&gt;stabal96cv -->
<g id="edge4" class="edge">
<title>Fetch_assim_data&#45;&gt;stabal96cv</title>
<path fill="none" stroke="black" d="M109.61,-657.96C110.46,-634.4 112,-591.64 113.01,-563.53"/>
<polygon fill="black" stroke="black" points="116.52,-563.3 113.38,-553.18 109.52,-563.05 116.52,-563.3"/>
</g>
<!-- stabal96bal -->
<g id="node39" class="node">
<title>stabal96bal</title>
<g id="a_node39"><a xlink:href="../DataAssimilation/Structurefunctions/index.html" xlink:title="stabal96bal">
<polygon fill="none" stroke="black" points="94,-445 0,-445 0,-409 100,-409 100,-439 94,-445"/>
<polyline fill="none" stroke="black" points="94,-445 94,-439 "/>
<polyline fill="none" stroke="black" points="100,-439 94,-439 "/>
<text text-anchor="middle" x="50" y="-423.3" font-family="Times,serif" font-size="14.00">stabal96bal</text>
</a>
</g>
</g>
<!-- Fetch_assim_data&#45;&gt;stabal96bal -->
<g id="edge5" class="edge">
<title>Fetch_assim_data&#45;&gt;stabal96bal</title>
<path fill="none" stroke="black" d="M101.3,-657.6C91.31,-634.27 74.09,-591.34 65,-553 57.15,-519.88 53.3,-480.79 51.49,-455.25"/>
<polygon fill="black" stroke="black" points="54.97,-454.95 50.83,-445.2 47.99,-455.41 54.97,-454.95"/>
</g>
<!-- Interpol_ec_sst -->
<g id="node7" class="node">
<title>Interpol_ec_sst</title>
<polygon fill="none" stroke="black" points="898,-767 774,-767 774,-731 898,-731 898,-767"/>
<text text-anchor="middle" x="836" y="-745.3" font-family="Times,serif" font-size="14.00">Interpol_ec_sst</text>
</g>
<!-- ECMWF_CANARI_SST_SIC_YYYYMMDD_HH -->
<g id="node17" class="node">
<title>ECMWF_CANARI_SST_SIC_YYYYMMDD_HH</title>
<polygon fill="none" stroke="black" points="1122,-694 760,-694 760,-658 1128,-658 1128,-688 1122,-694"/>
<polyline fill="none" stroke="black" points="1122,-694 1122,-688 "/>
<polyline fill="none" stroke="black" points="1128,-688 1122,-688 "/>
<text text-anchor="middle" x="944" y="-672.3" font-family="Times,serif" font-size="14.00">ECMWF_CANARI_SST_SIC_$YYYY$MM$DD_$HH</text>
</g>
<!-- Interpol_ec_sst&#45;&gt;ECMWF_CANARI_SST_SIC_YYYYMMDD_HH -->
<g id="edge17" class="edge">
<title>Interpol_ec_sst&#45;&gt;ECMWF_CANARI_SST_SIC_YYYYMMDD_HH</title>
<path fill="none" stroke="black" d="M861.87,-730.99C876.06,-721.67 893.84,-709.97 909.23,-699.86"/>
<polygon fill="black" stroke="black" points="911.53,-702.53 917.97,-694.11 907.69,-696.68 911.53,-702.53"/>
</g>
<!-- Canari -->
<g id="node8" class="node">
<title>Canari</title>
<g id="a_node8"><a xlink:href="../DataAssimilation/Surface/CANARI/index.html" xlink:title="Canari">
<polygon fill="none" stroke="black" points="679,-499 615,-499 615,-463 679,-463 679,-499"/>
<text text-anchor="middle" x="647" y="-477.3" font-family="Times,serif" font-size="14.00">Canari</text>
</a>
</g>
</g>
<!-- ICMSHANALp0000sfx -->
<g id="node13" class="node">
<title>ICMSHANALp0000sfx</title>
<polygon fill="none" stroke="black" points="903,-391 727,-391 727,-355 909,-355 909,-385 903,-391"/>
<polyline fill="none" stroke="black" points="903,-391 903,-385 "/>
<polyline fill="none" stroke="black" points="909,-385 903,-385 "/>
<text text-anchor="middle" x="818" y="-369.3" font-family="Times,serif" font-size="14.00">ICMSHANAL+0000.sfx</text>
</g>
<!-- Canari&#45;&gt;ICMSHANALp0000sfx -->
<g id="edge22" class="edge">
<title>Canari&#45;&gt;ICMSHANALp0000sfx</title>
<path fill="none" stroke="black" d="M674.47,-462.97C703.56,-444.94 749.6,-416.4 781.66,-396.53"/>
<polygon fill="black" stroke="black" points="783.66,-399.41 790.31,-391.16 779.97,-393.46 783.66,-399.41"/>
</g>
<!-- ICMSHANALp0000 -->
<g id="node14" class="node">
<title>ICMSHANALp0000</title>
<polygon fill="none" stroke="black" points="1078.5,-391 927.5,-391 927.5,-355 1084.5,-355 1084.5,-385 1078.5,-391"/>
<polyline fill="none" stroke="black" points="1078.5,-391 1078.5,-385 "/>
<polyline fill="none" stroke="black" points="1084.5,-385 1078.5,-385 "/>
<text text-anchor="middle" x="1006" y="-369.3" font-family="Times,serif" font-size="14.00">ICMSHANAL+0000</text>
</g>
<!-- Canari&#45;&gt;ICMSHANALp0000 -->
<g id="edge23" class="edge">
<title>Canari&#45;&gt;ICMSHANALp0000</title>
<path fill="none" stroke="black" d="M679.17,-470.5C737.35,-453.32 861.18,-416.76 938.6,-393.9"/>
<polygon fill="black" stroke="black" points="939.67,-397.23 948.27,-391.05 937.69,-390.52 939.67,-397.23"/>
</g>
<!-- odb_can_merge -->
<g id="node22" class="node">
<title>odb_can_merge</title>
<path fill="none" stroke="black" d="M616.5,-387.73C616.5,-389.53 588.04,-391 553,-391 517.96,-391 489.5,-389.53 489.5,-387.73 489.5,-387.73 489.5,-358.27 489.5,-358.27 489.5,-356.47 517.96,-355 553,-355 588.04,-355 616.5,-356.47 616.5,-358.27 616.5,-358.27 616.5,-387.73 616.5,-387.73"/>
<path fill="none" stroke="black" d="M616.5,-387.73C616.5,-385.92 588.04,-384.45 553,-384.45 517.96,-384.45 489.5,-385.92 489.5,-387.73"/>
<text text-anchor="middle" x="553" y="-369.3" font-family="Times,serif" font-size="14.00">odb_can_merge</text>
</g>
<!-- Canari&#45;&gt;odb_can_merge -->
<g id="edge24" class="edge">
<title>Canari&#45;&gt;odb_can_merge</title>
<path fill="none" stroke="black" d="M631.9,-462.97C616.57,-445.69 592.68,-418.74 575.2,-399.03"/>
<polygon fill="black" stroke="black" points="577.63,-396.5 568.38,-391.34 572.39,-401.14 577.63,-396.5"/>
</g>
<!-- odb_can -->
<g id="node24" class="node">
<title>odb_can</title>
<path fill="none" stroke="black" d="M709,-387.73C709,-389.53 692.42,-391 672,-391 651.58,-391 635,-389.53 635,-387.73 635,-387.73 635,-358.27 635,-358.27 635,-356.47 651.58,-355 672,-355 692.42,-355 709,-356.47 709,-358.27 709,-358.27 709,-387.73 709,-387.73"/>
<path fill="none" stroke="black" d="M709,-387.73C709,-385.92 692.42,-384.45 672,-384.45 651.58,-384.45 635,-385.92 635,-387.73"/>
<text text-anchor="middle" x="672" y="-369.3" font-family="Times,serif" font-size="14.00">odb_can</text>
</g>
<!-- Canari&#45;&gt;odb_can -->
<g id="edge25" class="edge">
<title>Canari&#45;&gt;odb_can</title>
<path fill="none" stroke="black" d="M651.02,-462.97C654.95,-446.3 661,-420.65 665.59,-401.16"/>
<polygon fill="black" stroke="black" points="669.02,-401.88 667.91,-391.34 662.21,-400.27 669.02,-401.88"/>
</g>
<!-- Screening -->
<g id="node9" class="node">
<title>Screening</title>
<g id="a_node9"><a xlink:href="../DataAssimilation/Screening/index.html" xlink:title="Screening">
<polygon fill="none" stroke="black" points="324.5,-499 235.5,-499 235.5,-463 324.5,-463 324.5,-499"/>
<text text-anchor="middle" x="280" y="-477.3" font-family="Times,serif" font-size="14.00">Screening</text>
</a>
</g>
</g>
<!-- odb_ccma -->
<g id="node21" class="node">
<title>odb_ccma</title>
<path fill="none" stroke="black" d="M433,-387.73C433,-389.53 413.73,-391 390,-391 366.27,-391 347,-389.53 347,-387.73 347,-387.73 347,-358.27 347,-358.27 347,-356.47 366.27,-355 390,-355 413.73,-355 433,-356.47 433,-358.27 433,-358.27 433,-387.73 433,-387.73"/>
<path fill="none" stroke="black" d="M433,-387.73C433,-385.92 413.73,-384.45 390,-384.45 366.27,-384.45 347,-385.92 347,-387.73"/>
<text text-anchor="middle" x="390" y="-369.3" font-family="Times,serif" font-size="14.00">odb_ccma</text>
</g>
<!-- Screening&#45;&gt;odb_ccma -->
<g id="edge29" class="edge">
<title>Screening&#45;&gt;odb_ccma</title>
<path fill="none" stroke="black" d="M297.67,-462.97C315.77,-445.53 344.07,-418.26 364.57,-398.51"/>
<polygon fill="black" stroke="black" points="367.23,-400.8 372.01,-391.34 362.38,-395.76 367.23,-400.8"/>
</g>
<!-- odbvar -->
<g id="node23" class="node">
<title>odbvar</title>
<path fill="none" stroke="black" d="M209,-387.73C209,-389.53 194.21,-391 176,-391 157.79,-391 143,-389.53 143,-387.73 143,-387.73 143,-358.27 143,-358.27 143,-356.47 157.79,-355 176,-355 194.21,-355 209,-356.47 209,-358.27 209,-358.27 209,-387.73 209,-387.73"/>
<path fill="none" stroke="black" d="M209,-387.73C209,-385.92 194.21,-384.45 176,-384.45 157.79,-384.45 143,-385.92 143,-387.73"/>
<text text-anchor="middle" x="176" y="-369.3" font-family="Times,serif" font-size="14.00">odbvar</text>
</g>
<!-- Screening&#45;&gt;odbvar -->
<g id="edge30" class="edge">
<title>Screening&#45;&gt;odbvar</title>
<path fill="none" stroke="black" d="M263.29,-462.97C246.18,-445.53 219.43,-418.26 200.05,-398.51"/>
<polygon fill="black" stroke="black" points="202.52,-396.03 193.01,-391.34 197.52,-400.93 202.52,-396.03"/>
</g>
<!-- VarBC_fg -->
<g id="node35" class="node">
<title>VarBC_fg</title>
<polygon fill="none" stroke="black" points="323,-391 227,-391 227,-355 329,-355 329,-385 323,-391"/>
<polyline fill="none" stroke="black" points="323,-391 323,-385 "/>
<polyline fill="none" stroke="black" points="329,-385 323,-385 "/>
<text text-anchor="middle" x="278" y="-369.3" font-family="Times,serif" font-size="14.00">VarBC.cycle</text>
</g>
<!-- Screening&#45;&gt;VarBC_fg -->
<g id="edge31" class="edge">
<title>Screening&#45;&gt;VarBC_fg</title>
<path fill="none" stroke="black" d="M279.68,-462.97C279.37,-446.38 278.88,-420.88 278.52,-401.43"/>
<polygon fill="black" stroke="black" points="282.02,-401.27 278.33,-391.34 275.02,-401.4 282.02,-401.27"/>
</g>
<!-- Minim -->
<g id="node10" class="node">
<title>Minim</title>
<g id="a_node10"><a xlink:href="http://www.umr-cnrm.fr/gmapdoc/IMG/pdf/ykminim45.pdf" xlink:title="Minim">
<polygon fill="none" stroke="black" points="343,-304 281,-304 281,-268 343,-268 343,-304"/>
<text text-anchor="middle" x="312" y="-282.3" font-family="Times,serif" font-size="14.00">Minim</text>
</a>
</g>
</g>
<!-- MXMIN1999p0000 -->
<g id="node12" class="node">
<title>MXMIN1999p0000</title>
<polygon fill="none" stroke="black" points="384,-196 234,-196 234,-160 390,-160 390,-190 384,-196"/>
<polyline fill="none" stroke="black" points="384,-196 384,-190 "/>
<polyline fill="none" stroke="black" points="390,-190 384,-190 "/>
<text text-anchor="middle" x="312" y="-174.3" font-family="Times,serif" font-size="14.00">MXMIN1999+0000</text>
</g>
<!-- Minim&#45;&gt;MXMIN1999p0000 -->
<g id="edge35" class="edge">
<title>Minim&#45;&gt;MXMIN1999p0000</title>
<path fill="none" stroke="black" d="M312,-267.97C312,-251.38 312,-225.88 312,-206.43"/>
<polygon fill="black" stroke="black" points="315.5,-206.34 312,-196.34 308.5,-206.34 315.5,-206.34"/>
</g>
<!-- VarBC_an -->
<g id="node36" class="node">
<title>VarBC_an</title>
<polygon fill="none" stroke="black" points="504,-196 408,-196 408,-160 510,-160 510,-190 504,-196"/>
<polyline fill="none" stroke="black" points="504,-196 504,-190 "/>
<polyline fill="none" stroke="black" points="510,-190 504,-190 "/>
<text text-anchor="middle" x="459" y="-174.3" font-family="Times,serif" font-size="14.00">VarBC.cycle</text>
</g>
<!-- Minim&#45;&gt;VarBC_an -->
<g id="edge36" class="edge">
<title>Minim&#45;&gt;VarBC_an</title>
<path fill="none" stroke="black" d="M335.62,-267.97C360.33,-250.15 399.29,-222.06 426.81,-202.21"/>
<polygon fill="black" stroke="black" points="428.89,-205.03 434.95,-196.34 424.79,-199.35 428.89,-205.03"/>
</g>
<!-- Forecast -->
<g id="node11" class="node">
<title>Forecast</title>
<g id="a_node11"><a xlink:href="../ForecastModel/Forecast/index.html" xlink:title="Forecast">
<polygon fill="none" stroke="black" points="565,-36 487,-36 487,0 565,0 565,-36"/>
<text text-anchor="middle" x="526" y="-14.3" font-family="Times,serif" font-size="14.00">Forecast</text>
</a>
</g>
</g>
<!-- fc_start -->
<g id="node26" class="node">
<title>fc_start</title>
<polygon fill="none" stroke="black" points="483.5,-109 418.5,-109 418.5,-73 489.5,-73 489.5,-103 483.5,-109"/>
<polyline fill="none" stroke="black" points="483.5,-109 483.5,-103 "/>
<polyline fill="none" stroke="black" points="489.5,-103 483.5,-103 "/>
<text text-anchor="middle" x="454" y="-87.3" font-family="Times,serif" font-size="14.00">fc_start</text>
</g>
<!-- MXMIN1999p0000&#45;&gt;fc_start -->
<g id="edge48" class="edge">
<title>MXMIN1999p0000&#45;&gt;fc_start</title>
<path fill="none" stroke="black" stroke-dasharray="5,2" d="M340.74,-159.8C362.58,-146.72 392.82,-128.62 416.56,-114.41"/>
<polygon fill="black" stroke="black" points="418.52,-117.31 425.31,-109.18 414.93,-111.31 418.52,-117.31"/>
<text text-anchor="middle" x="414" y="-130.8" font-family="Times,serif" font-size="14.00">Minim</text>
</g>
<!-- PREPfa -->
<g id="node15" class="node">
<title>PREPfa</title>
<polygon fill="none" stroke="black" points="769,-304 703,-304 703,-268 775,-268 775,-298 769,-304"/>
<polyline fill="none" stroke="black" points="769,-304 769,-298 "/>
<polyline fill="none" stroke="black" points="775,-298 769,-298 "/>
<text text-anchor="middle" x="739" y="-282.3" font-family="Times,serif" font-size="14.00">PREP.fa</text>
</g>
<!-- ICMSHANALp0000sfx&#45;&gt;PREPfa -->
<g id="edge47" class="edge">
<title>ICMSHANALp0000sfx&#45;&gt;PREPfa</title>
<path fill="none" stroke="black" stroke-dasharray="5,2" d="M799.15,-354.96C793.2,-349.37 786.7,-343.05 781,-337 773.53,-329.08 765.76,-320.07 758.96,-311.9"/>
<polygon fill="black" stroke="black" points="761.59,-309.58 752.53,-304.08 756.18,-314.03 761.59,-309.58"/>
<text text-anchor="middle" x="805" y="-325.8" font-family="Times,serif" font-size="14.00">Canari</text>
</g>
<!-- first_guess_sfx_ln -->
<g id="node32" class="node">
<title>first_guess_sfx_ln</title>
<polygon fill="none" stroke="black" points="909,-304 793,-304 793,-268 915,-268 915,-298 909,-304"/>
<polyline fill="none" stroke="black" points="909,-304 909,-298 "/>
<polyline fill="none" stroke="black" points="915,-298 909,-298 "/>
<text text-anchor="middle" x="854" y="-282.3" font-family="Times,serif" font-size="14.00">first_guess_sfx</text>
</g>
<!-- ICMSHANALp0000sfx&#45;&gt;first_guess_sfx_ln -->
<g id="edge46" class="edge">
<title>ICMSHANALp0000sfx&#45;&gt;first_guess_sfx_ln</title>
<path fill="none" stroke="black" stroke-dasharray="5,2" d="M825.29,-354.8C830.31,-342.93 837.09,-326.93 842.8,-313.45"/>
<polygon fill="black" stroke="black" points="846.05,-314.75 846.73,-304.18 839.6,-312.02 846.05,-314.75"/>
<text text-anchor="middle" x="862" y="-325.8" font-family="Times,serif" font-size="14.00">Canari</text>
</g>
<!-- fc_start_sfx -->
<g id="node33" class="node">
<title>fc_start_sfx</title>
<polygon fill="none" stroke="black" points="627,-250 535,-250 535,-214 633,-214 633,-244 627,-250"/>
<polyline fill="none" stroke="black" points="627,-250 627,-244 "/>
<polyline fill="none" stroke="black" points="633,-244 627,-244 "/>
<text text-anchor="middle" x="584" y="-228.3" font-family="Times,serif" font-size="14.00">fc_start_sfx</text>
</g>
<!-- ICMSHANALp0000sfx&#45;&gt;fc_start_sfx -->
<g id="edge45" class="edge">
<title>ICMSHANALp0000sfx&#45;&gt;fc_start_sfx</title>
<path fill="none" stroke="black" stroke-dasharray="5,2" d="M756.62,-355C742.55,-350.06 727.93,-344.05 715,-337 674.74,-315.04 634.31,-280.6 609.23,-257.44"/>
<polygon fill="black" stroke="black" points="611.34,-254.62 601.65,-250.34 606.56,-259.73 611.34,-254.62"/>
<text text-anchor="middle" x="739" y="-325.8" font-family="Times,serif" font-size="14.00">Canari</text>
</g>
<!-- CANARI -->
<g id="node29" class="node">
<title>CANARI</title>
<polygon fill="none" stroke="black" points="1037,-304 969,-304 969,-268 1043,-268 1043,-298 1037,-304"/>
<polyline fill="none" stroke="black" points="1037,-304 1037,-298 "/>
<polyline fill="none" stroke="black" points="1043,-298 1037,-298 "/>
<text text-anchor="middle" x="1006" y="-282.3" font-family="Times,serif" font-size="14.00">CANARI</text>
</g>
<!-- ICMSHANALp0000&#45;&gt;CANARI -->
<g id="edge44" class="edge">
<title>ICMSHANALp0000&#45;&gt;CANARI</title>
<path fill="none" stroke="black" stroke-dasharray="5,2" d="M1006,-354.8C1006,-343.16 1006,-327.55 1006,-314.24"/>
<polygon fill="black" stroke="black" points="1009.5,-314.18 1006,-304.18 1002.5,-314.18 1009.5,-314.18"/>
<text text-anchor="middle" x="1030" y="-325.8" font-family="Times,serif" font-size="14.00">Canari</text>
</g>
<!-- bdstrategy -->
<g id="node37" class="node">
<title>bdstrategy</title>
<polygon fill="none" stroke="black" points="755.5,-840 666.5,-840 666.5,-804 761.5,-804 761.5,-834 755.5,-840"/>
<polyline fill="none" stroke="black" points="755.5,-840 755.5,-834 "/>
<polyline fill="none" stroke="black" points="761.5,-834 755.5,-834 "/>
<text text-anchor="middle" x="714" y="-818.3" font-family="Times,serif" font-size="14.00">bdstrategy</text>
</g>
<!-- bdstrategy_archive&#45;&gt;bdstrategy -->
<g id="edge49" class="edge">
<title>bdstrategy_archive&#45;&gt;bdstrategy</title>
<path fill="none" stroke="black" stroke-dasharray="5,2" d="M714,-890.8C714,-879.16 714,-863.55 714,-850.24"/>
<polygon fill="black" stroke="black" points="717.5,-850.18 714,-840.18 710.5,-850.18 717.5,-850.18"/>
<text text-anchor="middle" x="782" y="-861.8" font-family="Times,serif" font-size="14.00">Boundary_strategy</text>
</g>
<!-- ECMWF_CANARI_SST_SIC -->
<g id="node30" class="node">
<title>ECMWF_CANARI_SST_SIC</title>
<polygon fill="none" stroke="black" points="1052.5,-607 851.5,-607 851.5,-571 1058.5,-571 1058.5,-601 1052.5,-607"/>
<polyline fill="none" stroke="black" points="1052.5,-607 1052.5,-601 "/>
<polyline fill="none" stroke="black" points="1058.5,-601 1052.5,-601 "/>
<text text-anchor="middle" x="955" y="-585.3" font-family="Times,serif" font-size="14.00">ECMWF_CANARI_SST_SIC</text>
</g>
<!-- ECMWF_CANARI_SST_SIC_YYYYMMDD_HH&#45;&gt;ECMWF_CANARI_SST_SIC -->
<g id="edge50" class="edge">
<title>ECMWF_CANARI_SST_SIC_YYYYMMDD_HH&#45;&gt;ECMWF_CANARI_SST_SIC</title>
<path fill="none" stroke="black" stroke-dasharray="5,2" d="M946.23,-657.8C947.73,-646.16 949.75,-630.55 951.48,-617.24"/>
<polygon fill="black" stroke="black" points="954.96,-617.54 952.78,-607.18 948.02,-616.64 954.96,-617.54"/>
<text text-anchor="middle" x="1019.5" y="-628.8" font-family="Times,serif" font-size="14.00">Interpol_ec_sst (cp)</text>
</g>
<!-- obYYYYMMDD&#45;&gt;Bator -->
<g id="edge12" class="edge">
<title>obYYYYMMDD&#45;&gt;Bator</title>
<path fill="none" stroke="black" d="M313.5,-890.64C316.96,-850.74 325.48,-752.27 329.64,-704.24"/>
<polygon fill="black" stroke="black" points="333.13,-704.51 330.51,-694.25 326.16,-703.91 333.13,-704.51"/>
</g>
<!-- obYYYYMMDD&#45;&gt;Oulan -->
<g id="edge6" class="edge">
<title>obYYYYMMDD&#45;&gt;Oulan</title>
<path fill="none" stroke="black" d="M295.2,-890.8C283.05,-878.36 266.46,-861.36 252.93,-847.5"/>
<polygon fill="black" stroke="black" points="255.26,-844.88 245.77,-840.18 250.25,-849.78 255.26,-844.88"/>
</g>
<!-- OBSOUL&#45;&gt;Bator -->
<g id="edge13" class="edge">
<title>OBSOUL&#45;&gt;Bator</title>
<path fill="none" stroke="black" d="M151.01,-730.99C195.32,-717.78 255.54,-699.81 294.09,-688.31"/>
<polygon fill="black" stroke="black" points="295.3,-691.6 303.88,-685.39 293.3,-684.89 295.3,-691.6"/>
</g>
<!-- odb&#45;&gt;Screening -->
<g id="edge26" class="edge">
<title>odb&#45;&gt;Screening</title>
<path fill="none" stroke="black" d="M283.36,-570.97C282.73,-554.38 281.77,-528.88 281.04,-509.43"/>
<polygon fill="black" stroke="black" points="284.53,-509.2 280.65,-499.34 277.53,-509.47 284.53,-509.2"/>
</g>
<!-- odb_ccma&#45;&gt;Minim -->
<g id="edge32" class="edge">
<title>odb_ccma&#45;&gt;Minim</title>
<path fill="none" stroke="black" d="M374.22,-354.8C362.9,-342.47 347.49,-325.68 334.84,-311.89"/>
<polygon fill="black" stroke="black" points="337.1,-309.18 327.76,-304.18 331.94,-313.91 337.1,-309.18"/>
</g>
<!-- odb_can_ori&#45;&gt;Canari -->
<g id="edge18" class="edge">
<title>odb_can_ori&#45;&gt;Canari</title>
<path fill="none" stroke="black" d="M416.37,-571.41C449.59,-556.48 500.2,-534.3 545,-517 564.54,-509.46 586.49,-501.82 605,-495.61"/>
<polygon fill="black" stroke="black" points="606.23,-498.89 614.62,-492.42 604.02,-492.25 606.23,-498.89"/>
</g>
<!-- fc_start&#45;&gt;Forecast -->
<g id="edge37" class="edge">
<title>fc_start&#45;&gt;Forecast</title>
<path fill="none" stroke="black" d="M471.43,-72.81C480.45,-63.92 491.61,-52.91 501.49,-43.17"/>
<polygon fill="black" stroke="black" points="504.07,-45.54 508.73,-36.03 499.15,-40.56 504.07,-45.54"/>
</g>
<!-- first_guess&#45;&gt;Canari -->
<g id="edge19" class="edge">
<title>first_guess&#45;&gt;Canari</title>
<path fill="none" stroke="black" d="M520.26,-570.97C545.65,-553.15 585.66,-525.06 613.93,-505.21"/>
<polygon fill="black" stroke="black" points="616.12,-507.95 622.3,-499.34 612.1,-502.22 616.12,-507.95"/>
</g>
<!-- first_guess&#45;&gt;Screening -->
<g id="edge27" class="edge">
<title>first_guess&#45;&gt;Screening</title>
<path fill="none" stroke="black" d="M461.3,-570.97C424.01,-552.67 364.66,-523.55 324.09,-503.64"/>
<polygon fill="black" stroke="black" points="325.5,-500.43 314.98,-499.16 322.41,-506.71 325.5,-500.43"/>
</g>
<!-- first_guess&#45;&gt;Minim -->
<g id="edge33" class="edge">
<title>first_guess&#45;&gt;Minim</title>
<path fill="none" stroke="black" d="M496.65,-570.75C497.31,-529.12 493.57,-421.68 442,-355 419.74,-326.22 381.84,-308.38 352.69,-298.24"/>
<polygon fill="black" stroke="black" points="353.77,-294.91 343.18,-295.09 351.57,-301.56 353.77,-294.91"/>
</g>
<!-- ECMWF_CANARI_SST_SIC&#45;&gt;Canari -->
<g id="edge20" class="edge">
<title>ECMWF_CANARI_SST_SIC&#45;&gt;Canari</title>
<path fill="none" stroke="black" d="M905.51,-570.97C845.52,-550.32 745.45,-515.88 689.03,-496.46"/>
<polygon fill="black" stroke="black" points="689.95,-493.08 679.36,-493.14 687.67,-499.7 689.95,-493.08"/>
</g>
<!-- first_guess_sfx&#45;&gt;Canari -->
<g id="edge21" class="edge">
<title>first_guess_sfx&#45;&gt;Canari</title>
<path fill="none" stroke="black" d="M626.02,-570.97C629.95,-554.3 636,-528.65 640.59,-509.16"/>
<polygon fill="black" stroke="black" points="644.02,-509.88 642.91,-499.34 637.21,-508.27 644.02,-509.88"/>
</g>
<!-- fc_start_sfx&#45;&gt;Forecast -->
<g id="edge38" class="edge">
<title>fc_start_sfx&#45;&gt;Forecast</title>
<path fill="none" stroke="black" d="M579.25,-213.65C569.16,-176.76 545.5,-90.27 533.4,-46.06"/>
<polygon fill="black" stroke="black" points="536.75,-45.01 530.73,-36.29 529.99,-46.86 536.75,-45.01"/>
</g>
<!-- VarBC_very_fg&#45;&gt;Screening -->
<g id="edge28" class="edge">
<title>VarBC_very_fg&#45;&gt;Screening</title>
<path fill="none" stroke="black" d="M202.78,-570.97C217.78,-553.69 241.17,-526.74 258.27,-507.03"/>
<polygon fill="black" stroke="black" points="261.04,-509.19 264.95,-499.34 255.75,-504.6 261.04,-509.19"/>
</g>
<!-- VarBC_fg&#45;&gt;Minim -->
<g id="edge34" class="edge">
<title>VarBC_fg&#45;&gt;Minim</title>
<path fill="none" stroke="black" d="M284.88,-354.8C289.58,-343.05 295.9,-327.24 301.26,-313.84"/>
<polygon fill="black" stroke="black" points="304.67,-314.76 305.13,-304.18 298.17,-312.16 304.67,-314.76"/>
</g>
<!-- bdstrategy&#45;&gt;FirstGuess -->
<g id="edge8" class="edge">
<title>bdstrategy&#45;&gt;FirstGuess</title>
<path fill="none" stroke="black" d="M706.76,-803.92C696.22,-779.02 676.53,-732.54 664.13,-703.27"/>
<polygon fill="black" stroke="black" points="667.35,-701.9 660.23,-694.06 660.91,-704.64 667.35,-701.9"/>
</g>
<!-- bdstrategy&#45;&gt;Interpol_ec_sst -->
<g id="edge16" class="edge">
<title>bdstrategy&#45;&gt;Interpol_ec_sst</title>
<path fill="none" stroke="black" d="M743.22,-803.99C759.55,-794.49 780.09,-782.54 797.69,-772.29"/>
<polygon fill="black" stroke="black" points="799.71,-775.17 806.59,-767.11 796.19,-769.12 799.71,-775.17"/>
</g>
<!-- stabal96cv&#45;&gt;Minim -->
<g id="edge42" class="edge">
<title>stabal96cv&#45;&gt;Minim</title>
<path fill="none" stroke="black" d="M110.55,-516.83C104.65,-482.24 96.59,-403.35 134,-355 166.75,-312.67 229.2,-296.69 270.73,-290.65"/>
<polygon fill="black" stroke="black" points="271.35,-294.1 280.81,-289.32 270.43,-287.16 271.35,-294.1"/>
</g>
<!-- stabal96bal&#45;&gt;Minim -->
<g id="edge43" class="edge">
<title>stabal96bal&#45;&gt;Minim</title>
<path fill="none" stroke="black" d="M53.32,-408.87C58.84,-385.3 72.28,-343.37 101,-322 127.18,-302.52 216.89,-293.29 270.54,-289.42"/>
<polygon fill="black" stroke="black" points="271.03,-292.89 280.76,-288.71 270.55,-285.91 271.03,-292.89"/>
</g>
<!-- LISTE_NOIRE_DIAP -->
<g id="node40" class="node">
<title>LISTE_NOIRE_DIAP</title>
<g id="a_node40"><a xlink:href="../Observations/Bator/index.html#LISTE_NOIRE_DIAP-1" xlink:title="LISTE_NOIRE_DIAP">
<polygon fill="none" stroke="black" points="512.5,-767 359.5,-767 359.5,-731 518.5,-731 518.5,-761 512.5,-767"/>
<polyline fill="none" stroke="black" points="512.5,-767 512.5,-761 "/>
<polyline fill="none" stroke="black" points="518.5,-761 512.5,-761 "/>
<text text-anchor="middle" x="439" y="-745.3" font-family="Times,serif" font-size="14.00">LISTE_NOIRE_DIAP</text>
</a>
</g>
</g>
<!-- LISTE_NOIRE_DIAP&#45;&gt;Bator -->
<g id="edge39" class="edge">
<title>LISTE_NOIRE_DIAP&#45;&gt;Bator</title>
<path fill="none" stroke="black" d="M413.37,-730.99C399.31,-721.67 381.69,-709.97 366.45,-699.86"/>
<polygon fill="black" stroke="black" points="368.06,-696.73 357.79,-694.11 364.19,-702.56 368.06,-696.73"/>
</g>
<!-- LISTE_LOC -->
<g id="node41" class="node">
<title>LISTE_LOC</title>
<g id="a_node41"><a xlink:href="../Observations/Bator/index.html#LISTE_LOC-1" xlink:title="LISTE_LOC">
<polygon fill="none" stroke="black" points="628,-767 536,-767 536,-731 634,-731 634,-761 628,-767"/>
<polyline fill="none" stroke="black" points="628,-767 628,-761 "/>
<polyline fill="none" stroke="black" points="634,-761 628,-761 "/>
<text text-anchor="middle" x="585" y="-745.3" font-family="Times,serif" font-size="14.00">LISTE_LOC</text>
</a>
</g>
</g>
<!-- LISTE_LOC&#45;&gt;Bator -->
<g id="edge40" class="edge">
<title>LISTE_LOC&#45;&gt;Bator</title>
<path fill="none" stroke="black" d="M535.89,-733.28C533.23,-732.51 530.58,-731.74 528,-731 473.23,-715.29 409.59,-697.92 370.05,-687.23"/>
<polygon fill="black" stroke="black" points="370.86,-683.82 360.29,-684.59 369.03,-690.58 370.86,-683.82"/>
</g>
<!-- param_batorcfg -->
<g id="node42" class="node">
<title>param_batorcfg</title>
<polygon fill="none" stroke="black" points="297.5,-767 174.5,-767 174.5,-731 303.5,-731 303.5,-761 297.5,-767"/>
<polyline fill="none" stroke="black" points="297.5,-767 297.5,-761 "/>
<polyline fill="none" stroke="black" points="303.5,-761 297.5,-761 "/>
<text text-anchor="middle" x="239" y="-745.3" font-family="Times,serif" font-size="14.00">param_batorcfg</text>
</g>
<!-- param_batorcfg&#45;&gt;Bator -->
<g id="edge41" class="edge">
<title>param_batorcfg&#45;&gt;Bator</title>
<path fill="none" stroke="black" d="M261.51,-730.81C273.51,-721.66 288.43,-710.26 301.46,-700.32"/>
<polygon fill="black" stroke="black" points="303.87,-702.88 309.69,-694.03 299.62,-697.32 303.87,-702.88"/>
</g>
</g>
</svg>
