<?xml version="1.0" encoding="UTF-8" standalone="no"?>
<!DOCTYPE svg PUBLIC "-//W3C//DTD SVG 1.1//EN"
 "http://www.w3.org/Graphics/SVG/1.1/DTD/svg11.dtd">
<!-- Generated by graphviz version 2.43.0 (0)
 -->
<!-- Title: Harmonie Pages: 1 -->
<svg width="1436pt" height="938pt"
 viewBox="0.00 0.00 1436.00 938.00" xmlns="http://www.w3.org/2000/svg" xmlns:xlink="http://www.w3.org/1999/xlink">
<g id="graph0" class="graph" transform="scale(1 1) rotate(0) translate(4 934)">
<title>Harmonie</title>
<polygon fill="white" stroke="transparent" points="-4,4 -4,-934 1432,-934 1432,4 -4,4"/>
<!-- Prepare_ob -->
<g id="node1" class="node">
<title>Prepare_ob</title>
<g id="a_node1"><a xlink:href="../Observations/ObservationData/index.html" xlink:title="Prepare_ob">
<polygon fill="none" stroke="black" points="716,-930 618,-930 618,-894 716,-894 716,-930"/>
<text text-anchor="middle" x="667" y="-908.3" font-family="Times,serif" font-size="14.00">Prepare_ob</text>
</a>
</g>
</g>
<!-- obYYYYMMDD -->
<g id="node19" class="node">
<title>obYYYYMMDD</title>
<polygon fill="none" stroke="black" points="774,-857 554,-857 554,-821 780,-821 780,-851 774,-857"/>
<polyline fill="none" stroke="black" points="774,-857 774,-851 "/>
<polyline fill="none" stroke="black" points="780,-851 774,-851 "/>
<text text-anchor="middle" x="667" y="-835.3" font-family="Times,serif" font-size="14.00">observations/ob$YYYYMMDD</text>
</g>
<!-- Prepare_ob&#45;&gt;obYYYYMMDD -->
<g id="edge2" class="edge">
<title>Prepare_ob&#45;&gt;obYYYYMMDD</title>
<path fill="none" stroke="black" d="M667,-893.81C667,-885.79 667,-876.05 667,-867.07"/>
<polygon fill="black" stroke="black" points="670.5,-867.03 667,-857.03 663.5,-867.03 670.5,-867.03"/>
</g>
<!-- Boundary_strategy -->
<g id="node2" class="node">
<title>Boundary_strategy</title>
<g id="a_node2"><a xlink:href="../Boundaries/BoundaryFilePreparation/index.html" xlink:title="Boundary_strategy">
<polygon fill="none" stroke="black" points="1169,-930 1017,-930 1017,-894 1169,-894 1169,-930"/>
<text text-anchor="middle" x="1093" y="-908.3" font-family="Times,serif" font-size="14.00">Boundary_strategy</text>
</a>
</g>
</g>
<!-- bdstrategy_archive -->
<g id="node16" class="node">
<title>bdstrategy_archive</title>
<polygon fill="none" stroke="black" points="1134.5,-857 1045.5,-857 1045.5,-821 1140.5,-821 1140.5,-851 1134.5,-857"/>
<polyline fill="none" stroke="black" points="1134.5,-857 1134.5,-851 "/>
<polyline fill="none" stroke="black" points="1140.5,-851 1134.5,-851 "/>
<text text-anchor="middle" x="1093" y="-835.3" font-family="Times,serif" font-size="14.00">bdstrategy</text>
</g>
<!-- Boundary_strategy&#45;&gt;bdstrategy_archive -->
<g id="edge1" class="edge">
<title>Boundary_strategy&#45;&gt;bdstrategy_archive</title>
<path fill="none" stroke="black" d="M1093,-893.81C1093,-885.79 1093,-876.05 1093,-867.07"/>
<polygon fill="black" stroke="black" points="1096.5,-867.03 1093,-857.03 1089.5,-867.03 1096.5,-867.03"/>
</g>
<!-- Bator -->
<g id="node3" class="node">
<title>Bator</title>
<g id="a_node3"><a xlink:href="../Observations/Bator/index.html" xlink:title="Bator">
<polygon fill="none" stroke="black" points="480,-624 424,-624 424,-588 480,-588 480,-624"/>
<text text-anchor="middle" x="452" y="-602.3" font-family="Times,serif" font-size="14.00">Bator</text>
</a>
</g>
</g>
<!-- odb -->
<g id="node21" class="node">
<title>odb</title>
<path fill="none" stroke="black" d="M338,-533.73C338,-535.53 325.9,-537 311,-537 296.1,-537 284,-535.53 284,-533.73 284,-533.73 284,-504.27 284,-504.27 284,-502.47 296.1,-501 311,-501 325.9,-501 338,-502.47 338,-504.27 338,-504.27 338,-533.73 338,-533.73"/>
<path fill="none" stroke="black" d="M338,-533.73C338,-531.92 325.9,-530.45 311,-530.45 296.1,-530.45 284,-531.92 284,-533.73"/>
<text text-anchor="middle" x="311" y="-515.3" font-family="Times,serif" font-size="14.00">odb</text>
</g>
<!-- Bator&#45;&gt;odb -->
<g id="edge14" class="edge">
<title>Bator&#45;&gt;odb</title>
<path fill="none" stroke="black" d="M423.81,-588C401.43,-574.51 370.03,-555.59 346.04,-541.12"/>
<polygon fill="black" stroke="black" points="347.61,-537.98 337.24,-535.82 344,-543.98 347.61,-537.98"/>
</g>
<!-- odb_can_ori -->
<g id="node26" class="node">
<title>odb_can_ori</title>
<path fill="none" stroke="black" d="M556.5,-533.73C556.5,-535.53 533.87,-537 506,-537 478.13,-537 455.5,-535.53 455.5,-533.73 455.5,-533.73 455.5,-504.27 455.5,-504.27 455.5,-502.47 478.13,-501 506,-501 533.87,-501 556.5,-502.47 556.5,-504.27 556.5,-504.27 556.5,-533.73 556.5,-533.73"/>
<path fill="none" stroke="black" d="M556.5,-533.73C556.5,-531.92 533.87,-530.45 506,-530.45 478.13,-530.45 455.5,-531.92 455.5,-533.73"/>
<text text-anchor="middle" x="506" y="-515.3" font-family="Times,serif" font-size="14.00">odb_can_ori</text>
</g>
<!-- Bator&#45;&gt;odb_can_ori -->
<g id="edge15" class="edge">
<title>Bator&#45;&gt;odb_can_ori</title>
<path fill="none" stroke="black" d="M462.93,-587.8C470.61,-575.7 481.03,-559.3 489.69,-545.67"/>
<polygon fill="black" stroke="black" points="492.68,-547.49 495.09,-537.18 486.77,-543.74 492.68,-547.49"/>
</g>
<!-- Oulan -->
<g id="node4" class="node">
<title>Oulan</title>
<g id="a_node4"><a xlink:href="../Observations/Oulan/index.html" xlink:title="Oulan">
<polygon fill="none" stroke="black" points="650.5,-770 591.5,-770 591.5,-734 650.5,-734 650.5,-770"/>
<text text-anchor="middle" x="621" y="-748.3" font-family="Times,serif" font-size="14.00">Oulan</text>
</a>
</g>
</g>
<!-- OBSOUL -->
<g id="node20" class="node">
<title>OBSOUL</title>
<polygon fill="none" stroke="black" points="653,-697 535,-697 535,-661 659,-661 659,-691 653,-697"/>
<polyline fill="none" stroke="black" points="653,-697 653,-691 "/>
<polyline fill="none" stroke="black" points="659,-691 653,-691 "/>
<text text-anchor="middle" x="597" y="-675.3" font-family="Times,serif" font-size="14.00">oulan/OBSOUL</text>
</g>
<!-- Oulan&#45;&gt;OBSOUL -->
<g id="edge7" class="edge">
<title>Oulan&#45;&gt;OBSOUL</title>
<path fill="none" stroke="black" d="M615.19,-733.81C612.45,-725.7 609.11,-715.84 606.05,-706.78"/>
<polygon fill="black" stroke="black" points="609.27,-705.38 602.76,-697.03 602.64,-707.62 609.27,-705.38"/>
</g>
<!-- FirstGuess -->
<g id="node5" class="node">
<title>FirstGuess</title>
<polygon fill="none" stroke="black" points="1015.5,-624 920.5,-624 920.5,-588 1015.5,-588 1015.5,-624"/>
<text text-anchor="middle" x="968" y="-602.3" font-family="Times,serif" font-size="14.00">FirstGuess</text>
</g>
<!-- first_guess -->
<g id="node28" class="node">
<title>first_guess</title>
<polygon fill="none" stroke="black" points="675,-537 587,-537 587,-501 681,-501 681,-531 675,-537"/>
<polyline fill="none" stroke="black" points="675,-537 675,-531 "/>
<polyline fill="none" stroke="black" points="681,-531 675,-531 "/>
<text text-anchor="middle" x="634" y="-515.3" font-family="Times,serif" font-size="14.00">first_guess</text>
</g>
<!-- FirstGuess&#45;&gt;first_guess -->
<g id="edge9" class="edge">
<title>FirstGuess&#45;&gt;first_guess</title>
<path fill="none" stroke="black" d="M920.15,-592.82C859.71,-577.44 755.82,-551 691.24,-534.57"/>
<polygon fill="black" stroke="black" points="691.78,-531.09 681.23,-532.02 690.05,-537.88 691.78,-531.09"/>
</g>
<!-- very_first_guess -->
<g id="node29" class="node">
<title>very_first_guess</title>
<polygon fill="none" stroke="black" points="977,-537 851,-537 851,-501 983,-501 983,-531 977,-537"/>
<polyline fill="none" stroke="black" points="977,-537 977,-531 "/>
<polyline fill="none" stroke="black" points="983,-531 977,-531 "/>
<text text-anchor="middle" x="917" y="-515.3" font-family="Times,serif" font-size="14.00">very_first_guess</text>
</g>
<!-- FirstGuess&#45;&gt;very_first_guess -->
<g id="edge10" class="edge">
<title>FirstGuess&#45;&gt;very_first_guess</title>
<path fill="none" stroke="black" d="M957.68,-587.8C950.49,-575.82 940.77,-559.62 932.63,-546.06"/>
<polygon fill="black" stroke="black" points="935.45,-543.95 927.31,-537.18 929.45,-547.55 935.45,-543.95"/>
</g>
<!-- first_guess_sfx -->
<g id="node32" class="node">
<title>first_guess_sfx</title>
<polygon fill="none" stroke="black" points="1273,-304 1157,-304 1157,-268 1279,-268 1279,-298 1273,-304"/>
<polyline fill="none" stroke="black" points="1273,-304 1273,-298 "/>
<polyline fill="none" stroke="black" points="1279,-298 1273,-298 "/>
<text text-anchor="middle" x="1218" y="-282.3" font-family="Times,serif" font-size="14.00">first_guess_sfx</text>
</g>
<!-- FirstGuess&#45;&gt;first_guess_sfx -->
<g id="edge11" class="edge">
<title>FirstGuess&#45;&gt;first_guess_sfx</title>
<path fill="none" stroke="black" d="M1015.53,-594.82C1077.8,-581.02 1183.17,-555.92 1218,-537 1227.96,-531.59 1237,-531.33 1237,-520 1237,-520 1237,-520 1237,-372 1237,-352.09 1231.97,-330.17 1227.09,-313.58"/>
<polygon fill="black" stroke="black" points="1230.43,-312.52 1224.12,-304.01 1223.74,-314.6 1230.43,-312.52"/>
</g>
<!-- Fetch_assim_data -->
<g id="node6" class="node">
<title>Fetch_assim_data</title>
<polygon fill="none" stroke="black" points="444.5,-464 301.5,-464 301.5,-428 444.5,-428 444.5,-464"/>
<text text-anchor="middle" x="373" y="-442.3" font-family="Times,serif" font-size="14.00">Fetch_assim_data</text>
</g>
<!-- VarBC -->
<g id="node34" class="node">
<title>VarBC</title>
<polygon fill="none" stroke="black" points="284,-391 188,-391 188,-355 290,-355 290,-385 284,-391"/>
<polyline fill="none" stroke="black" points="284,-391 284,-385 "/>
<polyline fill="none" stroke="black" points="290,-385 284,-385 "/>
<text text-anchor="middle" x="239" y="-369.3" font-family="Times,serif" font-size="14.00">VarBC.cycle</text>
</g>
<!-- Fetch_assim_data&#45;&gt;VarBC -->
<g id="edge3" class="edge">
<title>Fetch_assim_data&#45;&gt;VarBC</title>
<path fill="none" stroke="black" d="M340.9,-427.99C322.72,-418.36 299.78,-406.21 280.28,-395.87"/>
<polygon fill="black" stroke="black" points="281.77,-392.7 271.3,-391.11 278.5,-398.89 281.77,-392.7"/>
</g>
<!-- stabal96cv -->
<g id="node36" class="node">
<title>stabal96cv</title>
<g id="a_node36"><a xlink:href="../DataAssimilation/Structurefunctions/index.html" xlink:title="stabal96cv">
<polygon fill="none" stroke="black" points="396,-391 308,-391 308,-355 402,-355 402,-385 396,-391"/>
<polyline fill="none" stroke="black" points="396,-391 396,-385 "/>
<polyline fill="none" stroke="black" points="402,-385 396,-385 "/>
<text text-anchor="middle" x="355" y="-369.3" font-family="Times,serif" font-size="14.00">stabal96cv</text>
</a>
</g>
</g>
<!-- Fetch_assim_data&#45;&gt;stabal96cv -->
<g id="edge4" class="edge">
<title>Fetch_assim_data&#45;&gt;stabal96cv</title>
<path fill="none" stroke="black" d="M368.64,-427.81C366.59,-419.7 364.09,-409.84 361.79,-400.78"/>
<polygon fill="black" stroke="black" points="365.17,-399.86 359.32,-391.03 358.38,-401.58 365.17,-399.86"/>
</g>
<!-- stabal96bal -->
<g id="node37" class="node">
<title>stabal96bal</title>
<g id="a_node37"><a xlink:href="../DataAssimilation/Structurefunctions/index.html" xlink:title="stabal96bal">
<polygon fill="none" stroke="black" points="514,-391 420,-391 420,-355 520,-355 520,-385 514,-391"/>
<polyline fill="none" stroke="black" points="514,-391 514,-385 "/>
<polyline fill="none" stroke="black" points="520,-385 514,-385 "/>
<text text-anchor="middle" x="470" y="-369.3" font-family="Times,serif" font-size="14.00">stabal96bal</text>
</a>
</g>
</g>
<!-- Fetch_assim_data&#45;&gt;stabal96bal -->
<g id="edge5" class="edge">
<title>Fetch_assim_data&#45;&gt;stabal96bal</title>
<path fill="none" stroke="black" d="M396.48,-427.81C409.11,-418.57 424.86,-407.04 438.53,-397.03"/>
<polygon fill="black" stroke="black" points="440.73,-399.76 446.74,-391.03 436.6,-394.11 440.73,-399.76"/>
</g>
<!-- Interpol_ec_sst -->
<g id="node7" class="node">
<title>Interpol_ec_sst</title>
<polygon fill="none" stroke="black" points="1233,-697 1109,-697 1109,-661 1233,-661 1233,-697"/>
<text text-anchor="middle" x="1171" y="-675.3" font-family="Times,serif" font-size="14.00">Interpol_ec_sst</text>
</g>
<!-- ECMWF_CANARI_SST_SIC_YYYYMMDD_HH -->
<g id="node18" class="node">
<title>ECMWF_CANARI_SST_SIC_YYYYMMDD_HH</title>
<polygon fill="none" stroke="black" points="1422,-624 1060,-624 1060,-588 1428,-588 1428,-618 1422,-624"/>
<polyline fill="none" stroke="black" points="1422,-624 1422,-618 "/>
<polyline fill="none" stroke="black" points="1428,-618 1422,-618 "/>
<text text-anchor="middle" x="1244" y="-602.3" font-family="Times,serif" font-size="14.00">ECMWF_CANARI_SST_SIC_$YYYY$MM$DD_$HH</text>
</g>
<!-- Interpol_ec_sst&#45;&gt;ECMWF_CANARI_SST_SIC_YYYYMMDD_HH -->
<g id="edge17" class="edge">
<title>Interpol_ec_sst&#45;&gt;ECMWF_CANARI_SST_SIC_YYYYMMDD_HH</title>
<path fill="none" stroke="black" d="M1188.67,-660.81C1197.82,-651.92 1209.14,-640.91 1219.15,-631.17"/>
<polygon fill="black" stroke="black" points="1221.76,-633.51 1226.49,-624.03 1216.88,-628.49 1221.76,-633.51"/>
</g>
<!-- Canari -->
<g id="node8" class="node">
<title>Canari</title>
<g id="a_node8"><a xlink:href="../DataAssimilation/Surface/CANARI/index.html" xlink:title="Canari">
<polygon fill="none" stroke="black" points="927,-464 863,-464 863,-428 927,-428 927,-464"/>
<text text-anchor="middle" x="895" y="-442.3" font-family="Times,serif" font-size="14.00">Canari</text>
</a>
</g>
</g>
<!-- ICMSHANALp0000sfx -->
<g id="node13" class="node">
<title>ICMSHANALp0000sfx</title>
<polygon fill="none" stroke="black" points="1165,-391 989,-391 989,-355 1171,-355 1171,-385 1165,-391"/>
<polyline fill="none" stroke="black" points="1165,-391 1165,-385 "/>
<polyline fill="none" stroke="black" points="1171,-385 1165,-385 "/>
<text text-anchor="middle" x="1080" y="-369.3" font-family="Times,serif" font-size="14.00">ICMSHANAL+0000.sfx</text>
</g>
<!-- Canari&#45;&gt;ICMSHANALp0000sfx -->
<g id="edge22" class="edge">
<title>Canari&#45;&gt;ICMSHANALp0000sfx</title>
<path fill="none" stroke="black" d="M927.22,-432.63C954.43,-422.19 993.96,-407.02 1025.99,-394.73"/>
<polygon fill="black" stroke="black" points="1027.59,-397.86 1035.67,-391.01 1025.08,-391.33 1027.59,-397.86"/>
</g>
<!-- ICMSHANALp0000 -->
<g id="node14" class="node">
<title>ICMSHANALp0000</title>
<polygon fill="none" stroke="black" points="727.5,-391 576.5,-391 576.5,-355 733.5,-355 733.5,-385 727.5,-391"/>
<polyline fill="none" stroke="black" points="727.5,-391 727.5,-385 "/>
<polyline fill="none" stroke="black" points="733.5,-385 727.5,-385 "/>
<text text-anchor="middle" x="655" y="-369.3" font-family="Times,serif" font-size="14.00">ICMSHANAL+0000</text>
</g>
<!-- Canari&#45;&gt;ICMSHANALp0000 -->
<g id="edge23" class="edge">
<title>Canari&#45;&gt;ICMSHANALp0000</title>
<path fill="none" stroke="black" d="M862.63,-435.42C826.87,-424.85 768.28,-407.51 722.44,-393.95"/>
<polygon fill="black" stroke="black" points="723.15,-390.51 712.57,-391.03 721.17,-397.22 723.15,-390.51"/>
</g>
<!-- odb_can_merge -->
<g id="node23" class="node">
<title>odb_can_merge</title>
<path fill="none" stroke="black" d="M878.5,-387.73C878.5,-389.53 850.04,-391 815,-391 779.96,-391 751.5,-389.53 751.5,-387.73 751.5,-387.73 751.5,-358.27 751.5,-358.27 751.5,-356.47 779.96,-355 815,-355 850.04,-355 878.5,-356.47 878.5,-358.27 878.5,-358.27 878.5,-387.73 878.5,-387.73"/>
<path fill="none" stroke="black" d="M878.5,-387.73C878.5,-385.92 850.04,-384.45 815,-384.45 779.96,-384.45 751.5,-385.92 751.5,-387.73"/>
<text text-anchor="middle" x="815" y="-369.3" font-family="Times,serif" font-size="14.00">odb_can_merge</text>
</g>
<!-- Canari&#45;&gt;odb_can_merge -->
<g id="edge24" class="edge">
<title>Canari&#45;&gt;odb_can_merge</title>
<path fill="none" stroke="black" d="M875.63,-427.81C865.51,-418.83 852.96,-407.69 841.91,-397.89"/>
<polygon fill="black" stroke="black" points="843.99,-395.05 834.19,-391.03 839.34,-400.28 843.99,-395.05"/>
</g>
<!-- odb_can -->
<g id="node25" class="node">
<title>odb_can</title>
<path fill="none" stroke="black" d="M971,-387.73C971,-389.53 954.42,-391 934,-391 913.58,-391 897,-389.53 897,-387.73 897,-387.73 897,-358.27 897,-358.27 897,-356.47 913.58,-355 934,-355 954.42,-355 971,-356.47 971,-358.27 971,-358.27 971,-387.73 971,-387.73"/>
<path fill="none" stroke="black" d="M971,-387.73C971,-385.92 954.42,-384.45 934,-384.45 913.58,-384.45 897,-385.92 897,-387.73"/>
<text text-anchor="middle" x="934" y="-369.3" font-family="Times,serif" font-size="14.00">odb_can</text>
</g>
<!-- Canari&#45;&gt;odb_can -->
<g id="edge25" class="edge">
<title>Canari&#45;&gt;odb_can</title>
<path fill="none" stroke="black" d="M904.44,-427.81C909.04,-419.44 914.67,-409.2 919.77,-399.9"/>
<polygon fill="black" stroke="black" points="922.9,-401.48 924.65,-391.03 916.76,-398.11 922.9,-401.48"/>
</g>
<!-- Screening -->
<g id="node9" class="node">
<title>Screening</title>
<g id="a_node9"><a xlink:href="../DataAssimilation/Screening/index.html" xlink:title="Screening">
<polygon fill="none" stroke="black" points="283.5,-464 194.5,-464 194.5,-428 283.5,-428 283.5,-464"/>
<text text-anchor="middle" x="239" y="-442.3" font-family="Times,serif" font-size="14.00">Screening</text>
</a>
</g>
</g>
<!-- odb_ccma -->
<g id="node22" class="node">
<title>odb_ccma</title>
<path fill="none" stroke="black" d="M86,-387.73C86,-389.53 66.73,-391 43,-391 19.27,-391 0,-389.53 0,-387.73 0,-387.73 0,-358.27 0,-358.27 0,-356.47 19.27,-355 43,-355 66.73,-355 86,-356.47 86,-358.27 86,-358.27 86,-387.73 86,-387.73"/>
<path fill="none" stroke="black" d="M86,-387.73C86,-385.92 66.73,-384.45 43,-384.45 19.27,-384.45 0,-385.92 0,-387.73"/>
<text text-anchor="middle" x="43" y="-369.3" font-family="Times,serif" font-size="14.00">odb_ccma</text>
</g>
<!-- Screening&#45;&gt;odb_ccma -->
<g id="edge29" class="edge">
<title>Screening&#45;&gt;odb_ccma</title>
<path fill="none" stroke="black" d="M194.03,-428.71C164.76,-418.11 126.46,-404.23 95.76,-393.11"/>
<polygon fill="black" stroke="black" points="96.67,-389.72 86.07,-389.6 94.28,-396.3 96.67,-389.72"/>
</g>
<!-- odbvar -->
<g id="node24" class="node">
<title>odbvar</title>
<path fill="none" stroke="black" d="M170,-387.73C170,-389.53 155.21,-391 137,-391 118.79,-391 104,-389.53 104,-387.73 104,-387.73 104,-358.27 104,-358.27 104,-356.47 118.79,-355 137,-355 155.21,-355 170,-356.47 170,-358.27 170,-358.27 170,-387.73 170,-387.73"/>
<path fill="none" stroke="black" d="M170,-387.73C170,-385.92 155.21,-384.45 137,-384.45 118.79,-384.45 104,-385.92 104,-387.73"/>
<text text-anchor="middle" x="137" y="-369.3" font-family="Times,serif" font-size="14.00">odbvar</text>
</g>
<!-- Screening&#45;&gt;odbvar -->
<g id="edge30" class="edge">
<title>Screening&#45;&gt;odbvar</title>
<path fill="none" stroke="black" d="M214.57,-427.99C200.97,-418.53 183.88,-406.63 169.2,-396.41"/>
<polygon fill="black" stroke="black" points="171.09,-393.46 160.88,-390.62 167.09,-399.21 171.09,-393.46"/>
</g>
<!-- Screening&#45;&gt;VarBC -->
<g id="edge31" class="edge">
<title>Screening&#45;&gt;VarBC</title>
<path fill="none" stroke="black" d="M233.12,-427.81C232.28,-419.79 232.05,-410.05 232.42,-401.07"/>
<polygon fill="black" stroke="black" points="235.92,-401.25 233.14,-391.03 228.94,-400.75 235.92,-401.25"/>
</g>
<!-- Minim -->
<g id="node10" class="node">
<title>Minim</title>
<g id="a_node10"><a xlink:href="http://www.umr-cnrm.fr/gmapdoc/IMG/pdf/ykminim45.pdf" xlink:title="Minim">
<polygon fill="none" stroke="black" points="386,-304 324,-304 324,-268 386,-268 386,-304"/>
<text text-anchor="middle" x="355" y="-282.3" font-family="Times,serif" font-size="14.00">Minim</text>
</a>
</g>
</g>
<!-- MXMIN1999p0000 -->
<g id="node12" class="node">
<title>MXMIN1999p0000</title>
<polygon fill="none" stroke="black" points="317,-196 167,-196 167,-160 323,-160 323,-190 317,-196"/>
<polyline fill="none" stroke="black" points="317,-196 317,-190 "/>
<polyline fill="none" stroke="black" points="323,-190 317,-190 "/>
<text text-anchor="middle" x="245" y="-174.3" font-family="Times,serif" font-size="14.00">MXMIN1999+0000</text>
</g>
<!-- Minim&#45;&gt;MXMIN1999p0000 -->
<g id="edge35" class="edge">
<title>Minim&#45;&gt;MXMIN1999p0000</title>
<path fill="none" stroke="black" d="M337.33,-267.97C319.23,-250.53 290.93,-223.26 270.43,-203.51"/>
<polygon fill="black" stroke="black" points="272.62,-200.76 262.99,-196.34 267.77,-205.8 272.62,-200.76"/>
</g>
<!-- VarBC_archive -->
<g id="node17" class="node">
<title>VarBC_archive</title>
<polygon fill="none" stroke="black" points="437,-196 341,-196 341,-160 443,-160 443,-190 437,-196"/>
<polyline fill="none" stroke="black" points="437,-196 437,-190 "/>
<polyline fill="none" stroke="black" points="443,-190 437,-190 "/>
<text text-anchor="middle" x="392" y="-174.3" font-family="Times,serif" font-size="14.00">VarBC.cycle</text>
</g>
<!-- Minim&#45;&gt;VarBC_archive -->
<g id="edge36" class="edge">
<title>Minim&#45;&gt;VarBC_archive</title>
<path fill="none" stroke="black" d="M360.94,-267.97C366.79,-251.22 375.8,-225.41 382.61,-205.89"/>
<polygon fill="black" stroke="black" points="385.96,-206.94 385.95,-196.34 379.35,-204.63 385.96,-206.94"/>
</g>
<!-- Forecast -->
<g id="node11" class="node">
<title>Forecast</title>
<g id="a_node11"><a xlink:href="../ForecastModel/Forecast/index.html" xlink:title="Forecast">
<polygon fill="none" stroke="black" points="1001,-36 923,-36 923,0 1001,0 1001,-36"/>
<text text-anchor="middle" x="962" y="-14.3" font-family="Times,serif" font-size="14.00">Forecast</text>
</a>
</g>
</g>
<!-- fc_start -->
<g id="node27" class="node">
<title>fc_start</title>
<polygon fill="none" stroke="black" points="959.5,-109 894.5,-109 894.5,-73 965.5,-73 965.5,-103 959.5,-109"/>
<polyline fill="none" stroke="black" points="959.5,-109 959.5,-103 "/>
<polyline fill="none" stroke="black" points="965.5,-103 959.5,-103 "/>
<text text-anchor="middle" x="930" y="-87.3" font-family="Times,serif" font-size="14.00">fc_start</text>
</g>
<!-- MXMIN1999p0000&#45;&gt;fc_start -->
<g id="edge48" class="edge">
<title>MXMIN1999p0000&#45;&gt;fc_start</title>
<path fill="none" stroke="black" stroke-dasharray="5,2" d="M323.2,-161.41C326.17,-160.92 329.11,-160.45 332,-160 537.21,-128.34 784.16,-104.86 884.4,-95.93"/>
<polygon fill="black" stroke="black" points="884.83,-99.41 894.48,-95.04 884.21,-92.44 884.83,-99.41"/>
<text text-anchor="middle" x="600" y="-130.8" font-family="Times,serif" font-size="14.00">Minim</text>
</g>
<!-- PREPfa -->
<g id="node15" class="node">
<title>PREPfa</title>
<polygon fill="none" stroke="black" points="1095,-304 1029,-304 1029,-268 1101,-268 1101,-298 1095,-304"/>
<polyline fill="none" stroke="black" points="1095,-304 1095,-298 "/>
<polyline fill="none" stroke="black" points="1101,-298 1095,-298 "/>
<text text-anchor="middle" x="1065" y="-282.3" font-family="Times,serif" font-size="14.00">PREP.fa</text>
</g>
<!-- ICMSHANALp0000sfx&#45;&gt;PREPfa -->
<g id="edge47" class="edge">
<title>ICMSHANALp0000sfx&#45;&gt;PREPfa</title>
<path fill="none" stroke="black" stroke-dasharray="5,2" d="M1071.75,-354.93C1069.44,-349.35 1067.22,-343.03 1066,-337 1064.54,-329.8 1063.93,-321.89 1063.78,-314.53"/>
<polygon fill="black" stroke="black" points="1067.28,-314.31 1063.83,-304.29 1060.28,-314.27 1067.28,-314.31"/>
<text text-anchor="middle" x="1090" y="-325.8" font-family="Times,serif" font-size="14.00">Canari</text>
</g>
<!-- ICMSHANALp0000sfx&#45;&gt;first_guess_sfx -->
<g id="edge46" class="edge">
<title>ICMSHANALp0000sfx&#45;&gt;first_guess_sfx</title>
<path fill="none" stroke="black" stroke-dasharray="5,2" d="M1096.83,-354.71C1107.62,-344.29 1122.31,-331.29 1137,-322 1144.98,-316.96 1153.8,-312.31 1162.61,-308.17"/>
<polygon fill="black" stroke="black" points="1164.08,-311.35 1171.74,-304.04 1161.19,-304.97 1164.08,-311.35"/>
<text text-anchor="middle" x="1161" y="-325.8" font-family="Times,serif" font-size="14.00">Canari</text>
</g>
<!-- fc_start_sfx -->
<g id="node33" class="node">
<title>fc_start_sfx</title>
<polygon fill="none" stroke="black" points="1037,-250 945,-250 945,-214 1043,-214 1043,-244 1037,-250"/>
<polyline fill="none" stroke="black" points="1037,-250 1037,-244 "/>
<polyline fill="none" stroke="black" points="1043,-244 1037,-244 "/>
<text text-anchor="middle" x="994" y="-228.3" font-family="Times,serif" font-size="14.00">fc_start_sfx</text>
</g>
<!-- ICMSHANALp0000sfx&#45;&gt;fc_start_sfx -->
<g id="edge45" class="edge">
<title>ICMSHANALp0000sfx&#45;&gt;fc_start_sfx</title>
<path fill="none" stroke="black" stroke-dasharray="5,2" d="M1032.49,-354.87C1024.65,-350.16 1017.34,-344.28 1012,-337 995.78,-314.92 992.37,-283.15 992.33,-260.54"/>
<polygon fill="black" stroke="black" points="995.84,-260.34 992.55,-250.27 988.84,-260.19 995.84,-260.34"/>
<text text-anchor="middle" x="1036" y="-325.8" font-family="Times,serif" font-size="14.00">Canari</text>
</g>
<!-- CANARI -->
<g id="node30" class="node">
<title>CANARI</title>
<polygon fill="none" stroke="black" points="686,-304 618,-304 618,-268 692,-268 692,-298 686,-304"/>
<polyline fill="none" stroke="black" points="686,-304 686,-298 "/>
<polyline fill="none" stroke="black" points="692,-298 686,-298 "/>
<text text-anchor="middle" x="655" y="-282.3" font-family="Times,serif" font-size="14.00">CANARI</text>
</g>
<!-- ICMSHANALp0000&#45;&gt;CANARI -->
<g id="edge44" class="edge">
<title>ICMSHANALp0000&#45;&gt;CANARI</title>
<path fill="none" stroke="black" stroke-dasharray="5,2" d="M655,-354.8C655,-343.16 655,-327.55 655,-314.24"/>
<polygon fill="black" stroke="black" points="658.5,-314.18 655,-304.18 651.5,-314.18 658.5,-314.18"/>
<text text-anchor="middle" x="679" y="-325.8" font-family="Times,serif" font-size="14.00">Canari</text>
</g>
<!-- bdstrategy -->
<g id="node35" class="node">
<title>bdstrategy</title>
<polygon fill="none" stroke="black" points="1134.5,-770 1045.5,-770 1045.5,-734 1140.5,-734 1140.5,-764 1134.5,-770"/>
<polyline fill="none" stroke="black" points="1134.5,-770 1134.5,-764 "/>
<polyline fill="none" stroke="black" points="1140.5,-764 1134.5,-764 "/>
<text text-anchor="middle" x="1093" y="-748.3" font-family="Times,serif" font-size="14.00">bdstrategy</text>
</g>
<!-- bdstrategy_archive&#45;&gt;bdstrategy -->
<g id="edge49" class="edge">
<title>bdstrategy_archive&#45;&gt;bdstrategy</title>
<path fill="none" stroke="black" stroke-dasharray="5,2" d="M1093,-820.8C1093,-809.16 1093,-793.55 1093,-780.24"/>
<polygon fill="black" stroke="black" points="1096.5,-780.18 1093,-770.18 1089.5,-780.18 1096.5,-780.18"/>
<text text-anchor="middle" x="1161" y="-791.8" font-family="Times,serif" font-size="14.00">Boundary_strategy</text>
</g>
<!-- ECMWF_CANARI_SST_SIC -->
<g id="node31" class="node">
<title>ECMWF_CANARI_SST_SIC</title>
<polygon fill="none" stroke="black" points="1202.5,-537 1001.5,-537 1001.5,-501 1208.5,-501 1208.5,-531 1202.5,-537"/>
<polyline fill="none" stroke="black" points="1202.5,-537 1202.5,-531 "/>
<polyline fill="none" stroke="black" points="1208.5,-531 1202.5,-531 "/>
<text text-anchor="middle" x="1105" y="-515.3" font-family="Times,serif" font-size="14.00">ECMWF_CANARI_SST_SIC</text>
</g>
<!-- ECMWF_CANARI_SST_SIC_YYYYMMDD_HH&#45;&gt;ECMWF_CANARI_SST_SIC -->
<g id="edge50" class="edge">
<title>ECMWF_CANARI_SST_SIC_YYYYMMDD_HH&#45;&gt;ECMWF_CANARI_SST_SIC</title>
<path fill="none" stroke="black" stroke-dasharray="5,2" d="M1215.87,-587.8C1194.49,-574.72 1164.89,-556.62 1141.65,-542.41"/>
<polygon fill="black" stroke="black" points="1143.44,-539.41 1133.09,-537.18 1139.79,-545.38 1143.44,-539.41"/>
<text text-anchor="middle" x="1251.5" y="-558.8" font-family="Times,serif" font-size="14.00">Interpol_ec_sst (cp)</text>
</g>
<!-- obYYYYMMDD&#45;&gt;Bator -->
<g id="edge12" class="edge">
<title>obYYYYMMDD&#45;&gt;Bator</title>
<path fill="none" stroke="black" d="M673.34,-820.95C684.89,-786.61 704.97,-708.35 668,-661 646.38,-633.31 546.55,-617.71 490.48,-611"/>
<polygon fill="black" stroke="black" points="490.56,-607.49 480.22,-609.81 489.75,-614.44 490.56,-607.49"/>
</g>
<!-- obYYYYMMDD&#45;&gt;Oulan -->
<g id="edge6" class="edge">
<title>obYYYYMMDD&#45;&gt;Oulan</title>
<path fill="none" stroke="black" d="M657.69,-820.8C651.21,-808.82 642.44,-792.62 635.1,-779.06"/>
<polygon fill="black" stroke="black" points="638.13,-777.3 630.29,-770.18 631.98,-780.64 638.13,-777.3"/>
</g>
<!-- OBSOUL&#45;&gt;Bator -->
<g id="edge13" class="edge">
<title>OBSOUL&#45;&gt;Bator</title>
<path fill="none" stroke="black" d="M562.27,-660.99C540.28,-650.22 511.85,-636.31 489.37,-625.3"/>
<polygon fill="black" stroke="black" points="490.65,-622.03 480.13,-620.78 487.57,-628.32 490.65,-622.03"/>
</g>
<!-- odb&#45;&gt;Screening -->
<g id="edge26" class="edge">
<title>odb&#45;&gt;Screening</title>
<path fill="none" stroke="black" d="M293.94,-501.17C284.92,-492.29 273.7,-481.21 263.74,-471.4"/>
<polygon fill="black" stroke="black" points="266.02,-468.73 256.44,-464.2 261.1,-473.71 266.02,-468.73"/>
</g>
<!-- odb_ccma&#45;&gt;Minim -->
<g id="edge32" class="edge">
<title>odb_ccma&#45;&gt;Minim</title>
<path fill="none" stroke="black" d="M86.07,-357.7C89.08,-356.77 92.08,-355.86 95,-355 171.8,-332.43 262.43,-309.57 313.87,-296.95"/>
<polygon fill="black" stroke="black" points="314.73,-300.34 323.62,-294.56 313.07,-293.54 314.73,-300.34"/>
</g>
<!-- odb_can_ori&#45;&gt;Canari -->
<g id="edge18" class="edge">
<title>odb_can_ori&#45;&gt;Canari</title>
<path fill="none" stroke="black" d="M556.65,-505.62C563.81,-503.99 571.08,-502.41 578,-501 676.01,-481.1 792.07,-462.61 852.94,-453.3"/>
<polygon fill="black" stroke="black" points="853.57,-456.74 862.93,-451.78 852.52,-449.82 853.57,-456.74"/>
</g>
<!-- fc_start&#45;&gt;Forecast -->
<g id="edge37" class="edge">
<title>fc_start&#45;&gt;Forecast</title>
<path fill="none" stroke="black" d="M937.75,-72.81C941.48,-64.53 946.04,-54.41 950.19,-45.19"/>
<polygon fill="black" stroke="black" points="953.41,-46.58 954.33,-36.03 947.03,-43.71 953.41,-46.58"/>
</g>
<!-- first_guess&#45;&gt;Canari -->
<g id="edge19" class="edge">
<title>first_guess&#45;&gt;Canari</title>
<path fill="none" stroke="black" d="M681.27,-505.14C730.26,-491.81 806.12,-471.18 853.05,-458.41"/>
<polygon fill="black" stroke="black" points="854.17,-461.74 862.9,-455.73 852.33,-454.98 854.17,-461.74"/>
</g>
<!-- first_guess&#45;&gt;Screening -->
<g id="edge27" class="edge">
<title>first_guess&#45;&gt;Screening</title>
<path fill="none" stroke="black" d="M586.96,-505.52C579.96,-503.88 572.81,-502.31 566,-501 448.5,-478.45 413.68,-490.42 293.61,-464.16"/>
<polygon fill="black" stroke="black" points="294.19,-460.7 283.67,-461.94 292.66,-467.53 294.19,-460.7"/>
</g>
<!-- first_guess&#45;&gt;Minim -->
<g id="edge33" class="edge">
<title>first_guess&#45;&gt;Minim</title>
<path fill="none" stroke="black" d="M627.3,-500.97C613.61,-468.26 579.42,-396.24 529,-355 489.99,-323.09 434.23,-304.87 396.42,-295.47"/>
<polygon fill="black" stroke="black" points="396.81,-291.96 386.27,-293.05 395.18,-298.77 396.81,-291.96"/>
</g>
<!-- ECMWF_CANARI_SST_SIC&#45;&gt;Canari -->
<g id="edge20" class="edge">
<title>ECMWF_CANARI_SST_SIC&#45;&gt;Canari</title>
<path fill="none" stroke="black" d="M1054.7,-500.99C1018.7,-488.82 970.79,-472.62 936.87,-461.15"/>
<polygon fill="black" stroke="black" points="937.85,-457.79 927.25,-457.9 935.61,-464.42 937.85,-457.79"/>
</g>
<!-- first_guess_sfx&#45;&gt;Canari -->
<g id="edge21" class="edge">
<title>first_guess_sfx&#45;&gt;Canari</title>
<path fill="none" stroke="black" d="M1216.79,-304.31C1214.17,-327.69 1205.94,-368.98 1180,-391 1143.99,-421.57 1007.68,-436.34 937.43,-442.04"/>
<polygon fill="black" stroke="black" points="936.85,-438.58 927.16,-442.85 937.4,-445.56 936.85,-438.58"/>
</g>
<!-- fc_start_sfx&#45;&gt;Forecast -->
<g id="edge38" class="edge">
<title>fc_start_sfx&#45;&gt;Forecast</title>
<path fill="none" stroke="black" d="M992.6,-213.83C990.07,-184.72 984.15,-123.85 975,-73 973.42,-64.23 971.29,-54.75 969.21,-46.22"/>
<polygon fill="black" stroke="black" points="972.57,-45.24 966.73,-36.4 965.78,-46.95 972.57,-45.24"/>
</g>
<!-- VarBC&#45;&gt;Screening -->
<g id="edge28" class="edge">
<title>VarBC&#45;&gt;Screening</title>
<path fill="none" stroke="black" d="M244.86,-391.03C245.71,-399.03 245.95,-408.77 245.59,-417.75"/>
<polygon fill="black" stroke="black" points="242.09,-417.59 244.88,-427.81 249.07,-418.08 242.09,-417.59"/>
</g>
<!-- VarBC&#45;&gt;Minim -->
<g id="edge34" class="edge">
<title>VarBC&#45;&gt;Minim</title>
<path fill="none" stroke="black" d="M262.47,-354.8C280.01,-341.95 304.15,-324.26 323.38,-310.17"/>
<polygon fill="black" stroke="black" points="325.56,-312.91 331.56,-304.18 321.43,-307.26 325.56,-312.91"/>
</g>
<!-- bdstrategy&#45;&gt;FirstGuess -->
<g id="edge8" class="edge">
<title>bdstrategy&#45;&gt;FirstGuess</title>
<path fill="none" stroke="black" d="M1078.17,-733.92C1056.18,-708.58 1014.81,-660.92 989.49,-631.76"/>
<polygon fill="black" stroke="black" points="992.01,-629.32 982.81,-624.06 986.72,-633.91 992.01,-629.32"/>
</g>
<!-- bdstrategy&#45;&gt;Interpol_ec_sst -->
<g id="edge16" class="edge">
<title>bdstrategy&#45;&gt;Interpol_ec_sst</title>
<path fill="none" stroke="black" d="M1111.88,-733.81C1121.75,-724.83 1133.98,-713.69 1144.76,-703.89"/>
<polygon fill="black" stroke="black" points="1147.25,-706.35 1152.29,-697.03 1142.54,-701.17 1147.25,-706.35"/>
</g>
<!-- stabal96cv&#45;&gt;Minim -->
<g id="edge42" class="edge">
<title>stabal96cv&#45;&gt;Minim</title>
<path fill="none" stroke="black" d="M355,-354.8C355,-343.16 355,-327.55 355,-314.24"/>
<polygon fill="black" stroke="black" points="358.5,-314.18 355,-304.18 351.5,-314.18 358.5,-314.18"/>
</g>
<!-- stabal96bal&#45;&gt;Minim -->
<g id="edge43" class="edge">
<title>stabal96bal&#45;&gt;Minim</title>
<path fill="none" stroke="black" d="M446.73,-354.8C429.35,-341.95 405.41,-324.26 386.34,-310.17"/>
<polygon fill="black" stroke="black" points="388.36,-307.3 378.24,-304.18 384.2,-312.93 388.36,-307.3"/>
</g>
<!-- LISTE_NOIRE_DIAP -->
<g id="node38" class="node">
<title>LISTE_NOIRE_DIAP</title>
<g id="a_node38"><a xlink:href="../Observations/Bator/index.html#LISTE_NOIRE_DIAP-1" xlink:title="LISTE_NOIRE_DIAP">
<polygon fill="none" stroke="black" points="247.5,-697 94.5,-697 94.5,-661 253.5,-661 253.5,-691 247.5,-697"/>
<polyline fill="none" stroke="black" points="247.5,-697 247.5,-691 "/>
<polyline fill="none" stroke="black" points="253.5,-691 247.5,-691 "/>
<text text-anchor="middle" x="174" y="-675.3" font-family="Times,serif" font-size="14.00">LISTE_NOIRE_DIAP</text>
</a>
</g>
</g>
<!-- LISTE_NOIRE_DIAP&#45;&gt;Bator -->
<g id="edge39" class="edge">
<title>LISTE_NOIRE_DIAP&#45;&gt;Bator</title>
<path fill="none" stroke="black" d="M240.59,-660.99C294.83,-647.14 369.49,-628.07 414.04,-616.7"/>
<polygon fill="black" stroke="black" points="415.05,-620.05 423.87,-614.18 413.32,-613.27 415.05,-620.05"/>
</g>
<!-- LISTE_LOC -->
<g id="node39" class="node">
<title>LISTE_LOC</title>
<g id="a_node39"><a xlink:href="../Observations/Bator/index.html#LISTE_LOC-1" xlink:title="LISTE_LOC">
<polygon fill="none" stroke="black" points="363,-697 271,-697 271,-661 369,-661 369,-691 363,-697"/>
<polyline fill="none" stroke="black" points="363,-697 363,-691 "/>
<polyline fill="none" stroke="black" points="369,-691 363,-691 "/>
<text text-anchor="middle" x="320" y="-675.3" font-family="Times,serif" font-size="14.00">LISTE_LOC</text>
</a>
</g>
</g>
<!-- LISTE_LOC&#45;&gt;Bator -->
<g id="edge40" class="edge">
<title>LISTE_LOC&#45;&gt;Bator</title>
<path fill="none" stroke="black" d="M351.62,-660.99C370.67,-650.75 395.02,-637.65 414.96,-626.92"/>
<polygon fill="black" stroke="black" points="416.64,-630 423.78,-622.18 413.32,-623.83 416.64,-630"/>
</g>
<!-- param_batorcfg -->
<g id="node40" class="node">
<title>param_batorcfg</title>
<polygon fill="none" stroke="black" points="510.5,-697 387.5,-697 387.5,-661 516.5,-661 516.5,-691 510.5,-697"/>
<polyline fill="none" stroke="black" points="510.5,-697 510.5,-691 "/>
<polyline fill="none" stroke="black" points="516.5,-691 510.5,-691 "/>
<text text-anchor="middle" x="452" y="-675.3" font-family="Times,serif" font-size="14.00">param_batorcfg</text>
</g>
<!-- param_batorcfg&#45;&gt;Bator -->
<g id="edge41" class="edge">
<title>param_batorcfg&#45;&gt;Bator</title>
<path fill="none" stroke="black" d="M452,-660.81C452,-652.79 452,-643.05 452,-634.07"/>
<polygon fill="black" stroke="black" points="455.5,-634.03 452,-624.03 448.5,-634.03 455.5,-634.03"/>
</g>
</g>
</svg>
