<?xml version="1.0" encoding="UTF-8" standalone="no"?>
<!DOCTYPE svg PUBLIC "-//W3C//DTD SVG 1.1//EN"
 "http://www.w3.org/Graphics/SVG/1.1/DTD/svg11.dtd">
<!-- Generated by graphviz version 2.43.0 (0)
 -->
<!-- Title: Harmonie Pages: 1 -->
<svg width="1179pt" height="938pt"
 viewBox="0.00 0.00 1178.50 938.00" xmlns="http://www.w3.org/2000/svg" xmlns:xlink="http://www.w3.org/1999/xlink">
<g id="graph0" class="graph" transform="scale(1 1) rotate(0) translate(4 934)">
<title>Harmonie</title>
<polygon fill="white" stroke="transparent" points="-4,4 -4,-934 1174.5,-934 1174.5,4 -4,4"/>
<!-- Prepare_ob -->
<g id="node1" class="node">
<title>Prepare_ob</title>
<g id="a_node1"><a xlink:href="../Observations/ObservationData/index.html" xlink:title="Prepare_ob">
<polygon fill="none" stroke="black" points="591,-930 493,-930 493,-894 591,-894 591,-930"/>
<text text-anchor="middle" x="542" y="-908.3" font-family="Times,serif" font-size="14.00">Prepare_ob</text>
</a>
</g>
</g>
<!-- obYYYYMMDD -->
<g id="node19" class="node">
<title>obYYYYMMDD</title>
<polygon fill="none" stroke="black" points="649,-857 429,-857 429,-821 655,-821 655,-851 649,-857"/>
<polyline fill="none" stroke="black" points="649,-857 649,-851 "/>
<polyline fill="none" stroke="black" points="655,-851 649,-851 "/>
<text text-anchor="middle" x="542" y="-835.3" font-family="Times,serif" font-size="14.00">observations/ob$YYYYMMDD</text>
</g>
<!-- Prepare_ob&#45;&gt;obYYYYMMDD -->
<g id="edge2" class="edge">
<title>Prepare_ob&#45;&gt;obYYYYMMDD</title>
<path fill="none" stroke="black" d="M542,-893.81C542,-885.79 542,-876.05 542,-867.07"/>
<polygon fill="black" stroke="black" points="545.5,-867.03 542,-857.03 538.5,-867.03 545.5,-867.03"/>
</g>
<!-- Boundary_strategy -->
<g id="node2" class="node">
<title>Boundary_strategy</title>
<g id="a_node2"><a xlink:href="../Boundaries/BoundaryFilePreparation/index.html" xlink:title="Boundary_strategy">
<polygon fill="none" stroke="black" points="824,-930 672,-930 672,-894 824,-894 824,-930"/>
<text text-anchor="middle" x="748" y="-908.3" font-family="Times,serif" font-size="14.00">Boundary_strategy</text>
</a>
</g>
</g>
<!-- bdstrategy_archive -->
<g id="node16" class="node">
<title>bdstrategy_archive</title>
<polygon fill="none" stroke="black" points="789.5,-857 700.5,-857 700.5,-821 795.5,-821 795.5,-851 789.5,-857"/>
<polyline fill="none" stroke="black" points="789.5,-857 789.5,-851 "/>
<polyline fill="none" stroke="black" points="795.5,-851 789.5,-851 "/>
<text text-anchor="middle" x="748" y="-835.3" font-family="Times,serif" font-size="14.00">bdstrategy</text>
</g>
<!-- Boundary_strategy&#45;&gt;bdstrategy_archive -->
<g id="edge1" class="edge">
<title>Boundary_strategy&#45;&gt;bdstrategy_archive</title>
<path fill="none" stroke="black" d="M748,-893.81C748,-885.79 748,-876.05 748,-867.07"/>
<polygon fill="black" stroke="black" points="751.5,-867.03 748,-857.03 744.5,-867.03 751.5,-867.03"/>
</g>
<!-- Bator -->
<g id="node3" class="node">
<title>Bator</title>
<g id="a_node3"><a xlink:href="../Observations/Bator/index.html" xlink:title="Bator">
<polygon fill="none" stroke="black" points="410,-624 354,-624 354,-588 410,-588 410,-624"/>
<text text-anchor="middle" x="382" y="-602.3" font-family="Times,serif" font-size="14.00">Bator</text>
</a>
</g>
</g>
<!-- odb -->
<g id="node21" class="node">
<title>odb</title>
<path fill="none" stroke="black" d="M290,-533.73C290,-535.53 277.9,-537 263,-537 248.1,-537 236,-535.53 236,-533.73 236,-533.73 236,-504.27 236,-504.27 236,-502.47 248.1,-501 263,-501 277.9,-501 290,-502.47 290,-504.27 290,-504.27 290,-533.73 290,-533.73"/>
<path fill="none" stroke="black" d="M290,-533.73C290,-531.92 277.9,-530.45 263,-530.45 248.1,-530.45 236,-531.92 236,-533.73"/>
<text text-anchor="middle" x="263" y="-515.3" font-family="Times,serif" font-size="14.00">odb</text>
</g>
<!-- Bator&#45;&gt;odb -->
<g id="edge14" class="edge">
<title>Bator&#45;&gt;odb</title>
<path fill="none" stroke="black" d="M357.92,-587.8C339.5,-574.64 313.95,-556.4 294,-542.15"/>
<polygon fill="black" stroke="black" points="296.01,-539.27 285.83,-536.31 291.94,-544.97 296.01,-539.27"/>
</g>
<!-- odb_can_ori -->
<g id="node26" class="node">
<title>odb_can_ori</title>
<path fill="none" stroke="black" d="M529.5,-533.73C529.5,-535.53 506.87,-537 479,-537 451.13,-537 428.5,-535.53 428.5,-533.73 428.5,-533.73 428.5,-504.27 428.5,-504.27 428.5,-502.47 451.13,-501 479,-501 506.87,-501 529.5,-502.47 529.5,-504.27 529.5,-504.27 529.5,-533.73 529.5,-533.73"/>
<path fill="none" stroke="black" d="M529.5,-533.73C529.5,-531.92 506.87,-530.45 479,-530.45 451.13,-530.45 428.5,-531.92 428.5,-533.73"/>
<text text-anchor="middle" x="479" y="-515.3" font-family="Times,serif" font-size="14.00">odb_can_ori</text>
</g>
<!-- Bator&#45;&gt;odb_can_ori -->
<g id="edge15" class="edge">
<title>Bator&#45;&gt;odb_can_ori</title>
<path fill="none" stroke="black" d="M401.63,-587.8C415.96,-575.24 435.58,-558.05 451.47,-544.12"/>
<polygon fill="black" stroke="black" points="454.19,-546.4 459.4,-537.18 449.57,-541.13 454.19,-546.4"/>
</g>
<!-- Oulan -->
<g id="node4" class="node">
<title>Oulan</title>
<g id="a_node4"><a xlink:href="../Observations/Oulan/index.html" xlink:title="Oulan">
<polygon fill="none" stroke="black" points="411.5,-770 352.5,-770 352.5,-734 411.5,-734 411.5,-770"/>
<text text-anchor="middle" x="382" y="-748.3" font-family="Times,serif" font-size="14.00">Oulan</text>
</a>
</g>
</g>
<!-- OBSOUL -->
<g id="node20" class="node">
<title>OBSOUL</title>
<polygon fill="none" stroke="black" points="132,-697 14,-697 14,-661 138,-661 138,-691 132,-697"/>
<polyline fill="none" stroke="black" points="132,-697 132,-691 "/>
<polyline fill="none" stroke="black" points="138,-691 132,-691 "/>
<text text-anchor="middle" x="76" y="-675.3" font-family="Times,serif" font-size="14.00">oulan/OBSOUL</text>
</g>
<!-- Oulan&#45;&gt;OBSOUL -->
<g id="edge7" class="edge">
<title>Oulan&#45;&gt;OBSOUL</title>
<path fill="none" stroke="black" d="M352.3,-744.27C309.53,-734.55 227.83,-715.92 148.49,-697.34"/>
<polygon fill="black" stroke="black" points="148.87,-693.83 138.33,-694.96 147.27,-700.65 148.87,-693.83"/>
</g>
<!-- FirstGuess -->
<g id="node5" class="node">
<title>FirstGuess</title>
<polygon fill="none" stroke="black" points="700.5,-624 605.5,-624 605.5,-588 700.5,-588 700.5,-624"/>
<text text-anchor="middle" x="653" y="-602.3" font-family="Times,serif" font-size="14.00">FirstGuess</text>
</g>
<!-- first_guess -->
<g id="node28" class="node">
<title>first_guess</title>
<polygon fill="none" stroke="black" points="404,-537 316,-537 316,-501 410,-501 410,-531 404,-537"/>
<polyline fill="none" stroke="black" points="404,-537 404,-531 "/>
<polyline fill="none" stroke="black" points="410,-531 404,-531 "/>
<text text-anchor="middle" x="363" y="-515.3" font-family="Times,serif" font-size="14.00">first_guess</text>
</g>
<!-- FirstGuess&#45;&gt;first_guess -->
<g id="edge9" class="edge">
<title>FirstGuess&#45;&gt;first_guess</title>
<path fill="none" stroke="black" d="M605.45,-591.36C560.26,-578.36 490.13,-558.08 419.94,-537.26"/>
<polygon fill="black" stroke="black" points="420.62,-533.82 410.04,-534.32 418.63,-540.53 420.62,-533.82"/>
</g>
<!-- very_first_guess -->
<g id="node29" class="node">
<title>very_first_guess</title>
<polygon fill="none" stroke="black" points="674,-537 548,-537 548,-501 680,-501 680,-531 674,-537"/>
<polyline fill="none" stroke="black" points="674,-537 674,-531 "/>
<polyline fill="none" stroke="black" points="680,-531 674,-531 "/>
<text text-anchor="middle" x="614" y="-515.3" font-family="Times,serif" font-size="14.00">very_first_guess</text>
</g>
<!-- FirstGuess&#45;&gt;very_first_guess -->
<g id="edge10" class="edge">
<title>FirstGuess&#45;&gt;very_first_guess</title>
<path fill="none" stroke="black" d="M645.11,-587.8C639.66,-575.93 632.32,-559.93 626.14,-546.45"/>
<polygon fill="black" stroke="black" points="629.23,-544.8 621.88,-537.18 622.87,-547.72 629.23,-544.8"/>
</g>
<!-- first_guess_sfx -->
<g id="node32" class="node">
<title>first_guess_sfx</title>
<polygon fill="none" stroke="black" points="814,-537 698,-537 698,-501 820,-501 820,-531 814,-537"/>
<polyline fill="none" stroke="black" points="814,-537 814,-531 "/>
<polyline fill="none" stroke="black" points="820,-531 814,-531 "/>
<text text-anchor="middle" x="759" y="-515.3" font-family="Times,serif" font-size="14.00">first_guess_sfx</text>
</g>
<!-- FirstGuess&#45;&gt;first_guess_sfx -->
<g id="edge11" class="edge">
<title>FirstGuess&#45;&gt;first_guess_sfx</title>
<path fill="none" stroke="black" d="M674.45,-587.8C690.26,-575.13 711.94,-557.73 729.4,-543.74"/>
<polygon fill="black" stroke="black" points="731.97,-546.16 737.58,-537.18 727.59,-540.7 731.97,-546.16"/>
</g>
<!-- Fetch_assim_data -->
<g id="node6" class="node">
<title>Fetch_assim_data</title>
<polygon fill="none" stroke="black" points="444.5,-464 301.5,-464 301.5,-428 444.5,-428 444.5,-464"/>
<text text-anchor="middle" x="373" y="-442.3" font-family="Times,serif" font-size="14.00">Fetch_assim_data</text>
</g>
<!-- VarBC -->
<g id="node35" class="node">
<title>VarBC</title>
<polygon fill="none" stroke="black" points="284,-391 188,-391 188,-355 290,-355 290,-385 284,-391"/>
<polyline fill="none" stroke="black" points="284,-391 284,-385 "/>
<polyline fill="none" stroke="black" points="290,-385 284,-385 "/>
<text text-anchor="middle" x="239" y="-369.3" font-family="Times,serif" font-size="14.00">VarBC.cycle</text>
</g>
<!-- Fetch_assim_data&#45;&gt;VarBC -->
<g id="edge3" class="edge">
<title>Fetch_assim_data&#45;&gt;VarBC</title>
<path fill="none" stroke="black" d="M340.9,-427.99C322.72,-418.36 299.78,-406.21 280.28,-395.87"/>
<polygon fill="black" stroke="black" points="281.77,-392.7 271.3,-391.11 278.5,-398.89 281.77,-392.7"/>
</g>
<!-- stabal96cv -->
<g id="node37" class="node">
<title>stabal96cv</title>
<g id="a_node37"><a xlink:href="../DataAssimilation/Structurefunctions/index.html" xlink:title="stabal96cv">
<polygon fill="none" stroke="black" points="396,-391 308,-391 308,-355 402,-355 402,-385 396,-391"/>
<polyline fill="none" stroke="black" points="396,-391 396,-385 "/>
<polyline fill="none" stroke="black" points="402,-385 396,-385 "/>
<text text-anchor="middle" x="355" y="-369.3" font-family="Times,serif" font-size="14.00">stabal96cv</text>
</a>
</g>
</g>
<!-- Fetch_assim_data&#45;&gt;stabal96cv -->
<g id="edge4" class="edge">
<title>Fetch_assim_data&#45;&gt;stabal96cv</title>
<path fill="none" stroke="black" d="M368.64,-427.81C366.59,-419.7 364.09,-409.84 361.79,-400.78"/>
<polygon fill="black" stroke="black" points="365.17,-399.86 359.32,-391.03 358.38,-401.58 365.17,-399.86"/>
</g>
<!-- stabal96bal -->
<g id="node38" class="node">
<title>stabal96bal</title>
<g id="a_node38"><a xlink:href="../DataAssimilation/Structurefunctions/index.html" xlink:title="stabal96bal">
<polygon fill="none" stroke="black" points="514,-391 420,-391 420,-355 520,-355 520,-385 514,-391"/>
<polyline fill="none" stroke="black" points="514,-391 514,-385 "/>
<polyline fill="none" stroke="black" points="520,-385 514,-385 "/>
<text text-anchor="middle" x="470" y="-369.3" font-family="Times,serif" font-size="14.00">stabal96bal</text>
</a>
</g>
</g>
<!-- Fetch_assim_data&#45;&gt;stabal96bal -->
<g id="edge5" class="edge">
<title>Fetch_assim_data&#45;&gt;stabal96bal</title>
<path fill="none" stroke="black" d="M396.48,-427.81C409.11,-418.57 424.86,-407.04 438.53,-397.03"/>
<polygon fill="black" stroke="black" points="440.73,-399.76 446.74,-391.03 436.6,-394.11 440.73,-399.76"/>
</g>
<!-- Interpol_ec_sst -->
<g id="node7" class="node">
<title>Interpol_ec_sst</title>
<polygon fill="none" stroke="black" points="914,-697 790,-697 790,-661 914,-661 914,-697"/>
<text text-anchor="middle" x="852" y="-675.3" font-family="Times,serif" font-size="14.00">Interpol_ec_sst</text>
</g>
<!-- ECMWF_CANARI_SST_SIC_YYYYMMDD_HH -->
<g id="node18" class="node">
<title>ECMWF_CANARI_SST_SIC_YYYYMMDD_HH</title>
<polygon fill="none" stroke="black" points="1100,-624 738,-624 738,-588 1106,-588 1106,-618 1100,-624"/>
<polyline fill="none" stroke="black" points="1100,-624 1100,-618 "/>
<polyline fill="none" stroke="black" points="1106,-618 1100,-618 "/>
<text text-anchor="middle" x="922" y="-602.3" font-family="Times,serif" font-size="14.00">ECMWF_CANARI_SST_SIC_$YYYY$MM$DD_$HH</text>
</g>
<!-- Interpol_ec_sst&#45;&gt;ECMWF_CANARI_SST_SIC_YYYYMMDD_HH -->
<g id="edge17" class="edge">
<title>Interpol_ec_sst&#45;&gt;ECMWF_CANARI_SST_SIC_YYYYMMDD_HH</title>
<path fill="none" stroke="black" d="M868.95,-660.81C877.72,-651.92 888.57,-640.91 898.17,-631.17"/>
<polygon fill="black" stroke="black" points="900.68,-633.61 905.21,-624.03 895.7,-628.69 900.68,-633.61"/>
</g>
<!-- Canari -->
<g id="node8" class="node">
<title>Canari</title>
<g id="a_node8"><a xlink:href="../DataAssimilation/Surface/CANARI/index.html" xlink:title="Canari">
<polygon fill="none" stroke="black" points="791,-464 727,-464 727,-428 791,-428 791,-464"/>
<text text-anchor="middle" x="759" y="-442.3" font-family="Times,serif" font-size="14.00">Canari</text>
</a>
</g>
</g>
<!-- ICMSHANALp0000sfx -->
<g id="node13" class="node">
<title>ICMSHANALp0000sfx</title>
<polygon fill="none" stroke="black" points="844,-391 668,-391 668,-355 850,-355 850,-385 844,-391"/>
<polyline fill="none" stroke="black" points="844,-391 844,-385 "/>
<polyline fill="none" stroke="black" points="850,-385 844,-385 "/>
<text text-anchor="middle" x="759" y="-369.3" font-family="Times,serif" font-size="14.00">ICMSHANAL+0000.sfx</text>
</g>
<!-- Canari&#45;&gt;ICMSHANALp0000sfx -->
<g id="edge22" class="edge">
<title>Canari&#45;&gt;ICMSHANALp0000sfx</title>
<path fill="none" stroke="black" d="M759,-427.81C759,-419.79 759,-410.05 759,-401.07"/>
<polygon fill="black" stroke="black" points="762.5,-401.03 759,-391.03 755.5,-401.03 762.5,-401.03"/>
</g>
<!-- ICMSHANALp0000 -->
<g id="node14" class="node">
<title>ICMSHANALp0000</title>
<polygon fill="none" stroke="black" points="1019.5,-391 868.5,-391 868.5,-355 1025.5,-355 1025.5,-385 1019.5,-391"/>
<polyline fill="none" stroke="black" points="1019.5,-391 1019.5,-385 "/>
<polyline fill="none" stroke="black" points="1025.5,-385 1019.5,-385 "/>
<text text-anchor="middle" x="947" y="-369.3" font-family="Times,serif" font-size="14.00">ICMSHANAL+0000</text>
</g>
<!-- Canari&#45;&gt;ICMSHANALp0000 -->
<g id="edge23" class="edge">
<title>Canari&#45;&gt;ICMSHANALp0000</title>
<path fill="none" stroke="black" d="M791.32,-432.79C819.03,-422.33 859.54,-407.03 892.29,-394.66"/>
<polygon fill="black" stroke="black" points="893.63,-397.9 901.75,-391.09 891.16,-391.35 893.63,-397.9"/>
</g>
<!-- odb_can_merge -->
<g id="node23" class="node">
<title>odb_can_merge</title>
<path fill="none" stroke="black" d="M1170.5,-387.73C1170.5,-389.53 1142.04,-391 1107,-391 1071.96,-391 1043.5,-389.53 1043.5,-387.73 1043.5,-387.73 1043.5,-358.27 1043.5,-358.27 1043.5,-356.47 1071.96,-355 1107,-355 1142.04,-355 1170.5,-356.47 1170.5,-358.27 1170.5,-358.27 1170.5,-387.73 1170.5,-387.73"/>
<path fill="none" stroke="black" d="M1170.5,-387.73C1170.5,-385.92 1142.04,-384.45 1107,-384.45 1071.96,-384.45 1043.5,-385.92 1043.5,-387.73"/>
<text text-anchor="middle" x="1107" y="-369.3" font-family="Times,serif" font-size="14.00">odb_can_merge</text>
</g>
<!-- Canari&#45;&gt;odb_can_merge -->
<g id="edge24" class="edge">
<title>Canari&#45;&gt;odb_can_merge</title>
<path fill="none" stroke="black" d="M791.38,-439.09C841.26,-429.88 940.12,-411.28 1033.53,-391.28"/>
<polygon fill="black" stroke="black" points="1034.39,-394.68 1043.43,-389.15 1032.91,-387.83 1034.39,-394.68"/>
</g>
<!-- odb_can -->
<g id="node25" class="node">
<title>odb_can</title>
<path fill="none" stroke="black" d="M650,-387.73C650,-389.53 633.42,-391 613,-391 592.58,-391 576,-389.53 576,-387.73 576,-387.73 576,-358.27 576,-358.27 576,-356.47 592.58,-355 613,-355 633.42,-355 650,-356.47 650,-358.27 650,-358.27 650,-387.73 650,-387.73"/>
<path fill="none" stroke="black" d="M650,-387.73C650,-385.92 633.42,-384.45 613,-384.45 592.58,-384.45 576,-385.92 576,-387.73"/>
<text text-anchor="middle" x="613" y="-369.3" font-family="Times,serif" font-size="14.00">odb_can</text>
</g>
<!-- Canari&#45;&gt;odb_can -->
<g id="edge25" class="edge">
<title>Canari&#45;&gt;odb_can</title>
<path fill="none" stroke="black" d="M726.96,-429.42C705.79,-419.12 677.82,-405.52 654.88,-394.37"/>
<polygon fill="black" stroke="black" points="656.25,-391.14 645.72,-389.91 653.19,-397.43 656.25,-391.14"/>
</g>
<!-- Screening -->
<g id="node9" class="node">
<title>Screening</title>
<g id="a_node9"><a xlink:href="../DataAssimilation/Screening/index.html" xlink:title="Screening">
<polygon fill="none" stroke="black" points="283.5,-464 194.5,-464 194.5,-428 283.5,-428 283.5,-464"/>
<text text-anchor="middle" x="239" y="-442.3" font-family="Times,serif" font-size="14.00">Screening</text>
</a>
</g>
</g>
<!-- odb_ccma -->
<g id="node22" class="node">
<title>odb_ccma</title>
<path fill="none" stroke="black" d="M170,-387.73C170,-389.53 150.73,-391 127,-391 103.27,-391 84,-389.53 84,-387.73 84,-387.73 84,-358.27 84,-358.27 84,-356.47 103.27,-355 127,-355 150.73,-355 170,-356.47 170,-358.27 170,-358.27 170,-387.73 170,-387.73"/>
<path fill="none" stroke="black" d="M170,-387.73C170,-385.92 150.73,-384.45 127,-384.45 103.27,-384.45 84,-385.92 84,-387.73"/>
<text text-anchor="middle" x="127" y="-369.3" font-family="Times,serif" font-size="14.00">odb_ccma</text>
</g>
<!-- Screening&#45;&gt;odb_ccma -->
<g id="edge29" class="edge">
<title>Screening&#45;&gt;odb_ccma</title>
<path fill="none" stroke="black" d="M212.17,-427.99C197.21,-418.51 178.4,-406.58 162.26,-396.35"/>
<polygon fill="black" stroke="black" points="163.93,-393.27 153.61,-390.87 160.18,-399.18 163.93,-393.27"/>
</g>
<!-- odbvar -->
<g id="node24" class="node">
<title>odbvar</title>
<path fill="none" stroke="black" d="M66,-387.73C66,-389.53 51.21,-391 33,-391 14.79,-391 0,-389.53 0,-387.73 0,-387.73 0,-358.27 0,-358.27 0,-356.47 14.79,-355 33,-355 51.21,-355 66,-356.47 66,-358.27 66,-358.27 66,-387.73 66,-387.73"/>
<path fill="none" stroke="black" d="M66,-387.73C66,-385.92 51.21,-384.45 33,-384.45 14.79,-384.45 0,-385.92 0,-387.73"/>
<text text-anchor="middle" x="33" y="-369.3" font-family="Times,serif" font-size="14.00">odbvar</text>
</g>
<!-- Screening&#45;&gt;odbvar -->
<g id="edge30" class="edge">
<title>Screening&#45;&gt;odbvar</title>
<path fill="none" stroke="black" d="M194.18,-431.13C163.25,-421.36 121.03,-407.62 76.03,-391.28"/>
<polygon fill="black" stroke="black" points="76.99,-387.9 66.39,-387.75 74.58,-394.47 76.99,-387.9"/>
</g>
<!-- Screening&#45;&gt;VarBC -->
<g id="edge31" class="edge">
<title>Screening&#45;&gt;VarBC</title>
<path fill="none" stroke="black" d="M233.12,-427.81C232.28,-419.79 232.05,-410.05 232.42,-401.07"/>
<polygon fill="black" stroke="black" points="235.92,-401.25 233.14,-391.03 228.94,-400.75 235.92,-401.25"/>
</g>
<!-- Minim -->
<g id="node10" class="node">
<title>Minim</title>
<g id="a_node10"><a xlink:href="http://www.umr-cnrm.fr/gmapdoc/IMG/pdf/ykminim45.pdf" xlink:title="Minim">
<polygon fill="none" stroke="black" points="403,-304 341,-304 341,-268 403,-268 403,-304"/>
<text text-anchor="middle" x="372" y="-282.3" font-family="Times,serif" font-size="14.00">Minim</text>
</a>
</g>
</g>
<!-- MXMIN1999p0000 -->
<g id="node12" class="node">
<title>MXMIN1999p0000</title>
<polygon fill="none" stroke="black" points="444,-196 294,-196 294,-160 450,-160 450,-190 444,-196"/>
<polyline fill="none" stroke="black" points="444,-196 444,-190 "/>
<polyline fill="none" stroke="black" points="450,-190 444,-190 "/>
<text text-anchor="middle" x="372" y="-174.3" font-family="Times,serif" font-size="14.00">MXMIN1999+0000</text>
</g>
<!-- Minim&#45;&gt;MXMIN1999p0000 -->
<g id="edge35" class="edge">
<title>Minim&#45;&gt;MXMIN1999p0000</title>
<path fill="none" stroke="black" d="M372,-267.97C372,-251.38 372,-225.88 372,-206.43"/>
<polygon fill="black" stroke="black" points="375.5,-206.34 372,-196.34 368.5,-206.34 375.5,-206.34"/>
</g>
<!-- VarBC_archive -->
<g id="node17" class="node">
<title>VarBC_archive</title>
<polygon fill="none" stroke="black" points="564,-196 468,-196 468,-160 570,-160 570,-190 564,-196"/>
<polyline fill="none" stroke="black" points="564,-196 564,-190 "/>
<polyline fill="none" stroke="black" points="570,-190 564,-190 "/>
<text text-anchor="middle" x="519" y="-174.3" font-family="Times,serif" font-size="14.00">VarBC.cycle</text>
</g>
<!-- Minim&#45;&gt;VarBC_archive -->
<g id="edge36" class="edge">
<title>Minim&#45;&gt;VarBC_archive</title>
<path fill="none" stroke="black" d="M395.62,-267.97C420.33,-250.15 459.29,-222.06 486.81,-202.21"/>
<polygon fill="black" stroke="black" points="488.89,-205.03 494.95,-196.34 484.79,-199.35 488.89,-205.03"/>
</g>
<!-- Forecast -->
<g id="node11" class="node">
<title>Forecast</title>
<g id="a_node11"><a xlink:href="../ForecastModel/Forecast/index.html" xlink:title="Forecast">
<polygon fill="none" stroke="black" points="637,-36 559,-36 559,0 637,0 637,-36"/>
<text text-anchor="middle" x="598" y="-14.3" font-family="Times,serif" font-size="14.00">Forecast</text>
</a>
</g>
</g>
<!-- fc_start -->
<g id="node27" class="node">
<title>fc_start</title>
<polygon fill="none" stroke="black" points="555.5,-109 490.5,-109 490.5,-73 561.5,-73 561.5,-103 555.5,-109"/>
<polyline fill="none" stroke="black" points="555.5,-109 555.5,-103 "/>
<polyline fill="none" stroke="black" points="561.5,-103 555.5,-103 "/>
<text text-anchor="middle" x="526" y="-87.3" font-family="Times,serif" font-size="14.00">fc_start</text>
</g>
<!-- MXMIN1999p0000&#45;&gt;fc_start -->
<g id="edge48" class="edge">
<title>MXMIN1999p0000&#45;&gt;fc_start</title>
<path fill="none" stroke="black" stroke-dasharray="5,2" d="M403.16,-159.8C427.14,-146.56 460.45,-128.18 486.33,-113.9"/>
<polygon fill="black" stroke="black" points="488.08,-116.93 495.15,-109.03 484.7,-110.8 488.08,-116.93"/>
<text text-anchor="middle" x="481" y="-130.8" font-family="Times,serif" font-size="14.00">Minim</text>
</g>
<!-- PREPfa -->
<g id="node15" class="node">
<title>PREPfa</title>
<polygon fill="none" stroke="black" points="738,-304 672,-304 672,-268 744,-268 744,-298 738,-304"/>
<polyline fill="none" stroke="black" points="738,-304 738,-298 "/>
<polyline fill="none" stroke="black" points="744,-298 738,-298 "/>
<text text-anchor="middle" x="708" y="-282.3" font-family="Times,serif" font-size="14.00">PREP.fa</text>
</g>
<!-- ICMSHANALp0000sfx&#45;&gt;PREPfa -->
<g id="edge47" class="edge">
<title>ICMSHANALp0000sfx&#45;&gt;PREPfa</title>
<path fill="none" stroke="black" stroke-dasharray="5,2" d="M748.68,-354.8C741.49,-342.82 731.77,-326.62 723.63,-313.06"/>
<polygon fill="black" stroke="black" points="726.45,-310.95 718.31,-304.18 720.45,-314.55 726.45,-310.95"/>
<text text-anchor="middle" x="760" y="-325.8" font-family="Times,serif" font-size="14.00">Canari</text>
</g>
<!-- first_guess_sfx_ln -->
<g id="node33" class="node">
<title>first_guess_sfx_ln</title>
<polygon fill="none" stroke="black" points="878,-304 762,-304 762,-268 884,-268 884,-298 878,-304"/>
<polyline fill="none" stroke="black" points="878,-304 878,-298 "/>
<polyline fill="none" stroke="black" points="884,-298 878,-298 "/>
<text text-anchor="middle" x="823" y="-282.3" font-family="Times,serif" font-size="14.00">first_guess_sfx</text>
</g>
<!-- ICMSHANALp0000sfx&#45;&gt;first_guess_sfx_ln -->
<g id="edge46" class="edge">
<title>ICMSHANALp0000sfx&#45;&gt;first_guess_sfx_ln</title>
<path fill="none" stroke="black" stroke-dasharray="5,2" d="M773.74,-354.78C778.4,-349.19 783.5,-342.9 788,-337 793.88,-329.29 800.03,-320.69 805.51,-312.84"/>
<polygon fill="black" stroke="black" points="808.55,-314.59 811.35,-304.37 802.79,-310.61 808.55,-314.59"/>
<text text-anchor="middle" x="822" y="-325.8" font-family="Times,serif" font-size="14.00">Canari</text>
</g>
<!-- fc_start_sfx -->
<g id="node34" class="node">
<title>fc_start_sfx</title>
<polygon fill="none" stroke="black" points="677,-250 585,-250 585,-214 683,-214 683,-244 677,-250"/>
<polyline fill="none" stroke="black" points="677,-250 677,-244 "/>
<polyline fill="none" stroke="black" points="683,-244 677,-244 "/>
<text text-anchor="middle" x="634" y="-228.3" font-family="Times,serif" font-size="14.00">fc_start_sfx</text>
</g>
<!-- ICMSHANALp0000sfx&#45;&gt;fc_start_sfx -->
<g id="edge45" class="edge">
<title>ICMSHANALp0000sfx&#45;&gt;fc_start_sfx</title>
<path fill="none" stroke="black" stroke-dasharray="5,2" d="M704.14,-354.9C694.63,-350.19 685.43,-344.3 678,-337 656.64,-316.04 645.11,-283.11 639.28,-259.93"/>
<polygon fill="black" stroke="black" points="642.66,-258.99 636.99,-250.04 635.84,-260.57 642.66,-258.99"/>
<text text-anchor="middle" x="702" y="-325.8" font-family="Times,serif" font-size="14.00">Canari</text>
</g>
<!-- CANARI -->
<g id="node30" class="node">
<title>CANARI</title>
<polygon fill="none" stroke="black" points="978,-304 910,-304 910,-268 984,-268 984,-298 978,-304"/>
<polyline fill="none" stroke="black" points="978,-304 978,-298 "/>
<polyline fill="none" stroke="black" points="984,-298 978,-298 "/>
<text text-anchor="middle" x="947" y="-282.3" font-family="Times,serif" font-size="14.00">CANARI</text>
</g>
<!-- ICMSHANALp0000&#45;&gt;CANARI -->
<g id="edge44" class="edge">
<title>ICMSHANALp0000&#45;&gt;CANARI</title>
<path fill="none" stroke="black" stroke-dasharray="5,2" d="M947,-354.8C947,-343.16 947,-327.55 947,-314.24"/>
<polygon fill="black" stroke="black" points="950.5,-314.18 947,-304.18 943.5,-314.18 950.5,-314.18"/>
<text text-anchor="middle" x="971" y="-325.8" font-family="Times,serif" font-size="14.00">Canari</text>
</g>
<!-- bdstrategy -->
<g id="node36" class="node">
<title>bdstrategy</title>
<polygon fill="none" stroke="black" points="789.5,-770 700.5,-770 700.5,-734 795.5,-734 795.5,-764 789.5,-770"/>
<polyline fill="none" stroke="black" points="789.5,-770 789.5,-764 "/>
<polyline fill="none" stroke="black" points="795.5,-764 789.5,-764 "/>
<text text-anchor="middle" x="748" y="-748.3" font-family="Times,serif" font-size="14.00">bdstrategy</text>
</g>
<!-- bdstrategy_archive&#45;&gt;bdstrategy -->
<g id="edge49" class="edge">
<title>bdstrategy_archive&#45;&gt;bdstrategy</title>
<path fill="none" stroke="black" stroke-dasharray="5,2" d="M748,-820.8C748,-809.16 748,-793.55 748,-780.24"/>
<polygon fill="black" stroke="black" points="751.5,-780.18 748,-770.18 744.5,-780.18 751.5,-780.18"/>
<text text-anchor="middle" x="816" y="-791.8" font-family="Times,serif" font-size="14.00">Boundary_strategy</text>
</g>
<!-- ECMWF_CANARI_SST_SIC -->
<g id="node31" class="node">
<title>ECMWF_CANARI_SST_SIC</title>
<polygon fill="none" stroke="black" points="1039.5,-537 838.5,-537 838.5,-501 1045.5,-501 1045.5,-531 1039.5,-537"/>
<polyline fill="none" stroke="black" points="1039.5,-537 1039.5,-531 "/>
<polyline fill="none" stroke="black" points="1045.5,-531 1039.5,-531 "/>
<text text-anchor="middle" x="942" y="-515.3" font-family="Times,serif" font-size="14.00">ECMWF_CANARI_SST_SIC</text>
</g>
<!-- ECMWF_CANARI_SST_SIC_YYYYMMDD_HH&#45;&gt;ECMWF_CANARI_SST_SIC -->
<g id="edge50" class="edge">
<title>ECMWF_CANARI_SST_SIC_YYYYMMDD_HH&#45;&gt;ECMWF_CANARI_SST_SIC</title>
<path fill="none" stroke="black" stroke-dasharray="5,2" d="M926.05,-587.8C928.79,-576.16 932.46,-560.55 935.59,-547.24"/>
<polygon fill="black" stroke="black" points="939.08,-547.71 937.96,-537.18 932.26,-546.11 939.08,-547.71"/>
<text text-anchor="middle" x="1002.5" y="-558.8" font-family="Times,serif" font-size="14.00">Interpol_ec_sst (cp)</text>
</g>
<!-- obYYYYMMDD&#45;&gt;Bator -->
<g id="edge12" class="edge">
<title>obYYYYMMDD&#45;&gt;Bator</title>
<path fill="none" stroke="black" d="M555.03,-820.99C579.34,-787.06 625.82,-710.02 588,-661 567.67,-634.66 474.09,-618.66 420.31,-611.49"/>
<polygon fill="black" stroke="black" points="420.49,-607.98 410.12,-610.17 419.59,-614.92 420.49,-607.98"/>
</g>
<!-- obYYYYMMDD&#45;&gt;Oulan -->
<g id="edge6" class="edge">
<title>obYYYYMMDD&#45;&gt;Oulan</title>
<path fill="none" stroke="black" d="M509.62,-820.8C483.86,-807.11 447.74,-787.93 420.5,-773.45"/>
<polygon fill="black" stroke="black" points="422.11,-770.34 411.63,-768.74 418.82,-776.52 422.11,-770.34"/>
</g>
<!-- OBSOUL&#45;&gt;Bator -->
<g id="edge13" class="edge">
<title>OBSOUL&#45;&gt;Bator</title>
<path fill="none" stroke="black" d="M138.33,-663.04C141.26,-662.35 144.16,-661.67 147,-661 216.34,-644.73 297.31,-626.24 343.82,-615.66"/>
<polygon fill="black" stroke="black" points="344.79,-619.03 353.77,-613.4 343.24,-612.2 344.79,-619.03"/>
</g>
<!-- odb&#45;&gt;Screening -->
<g id="edge26" class="edge">
<title>odb&#45;&gt;Screening</title>
<path fill="none" stroke="black" d="M257.19,-500.81C254.45,-492.7 251.11,-482.84 248.05,-473.78"/>
<polygon fill="black" stroke="black" points="251.27,-472.38 244.76,-464.03 244.64,-474.62 251.27,-472.38"/>
</g>
<!-- odb_ccma&#45;&gt;Minim -->
<g id="edge32" class="edge">
<title>odb_ccma&#45;&gt;Minim</title>
<path fill="none" stroke="black" d="M170.24,-357C215.7,-341.23 286.7,-316.59 331.22,-301.15"/>
<polygon fill="black" stroke="black" points="332.54,-304.39 340.84,-297.81 330.25,-297.78 332.54,-304.39"/>
</g>
<!-- odb_can_ori&#45;&gt;Canari -->
<g id="edge18" class="edge">
<title>odb_can_ori&#45;&gt;Canari</title>
<path fill="none" stroke="black" d="M529.68,-503.41C532.83,-502.57 535.95,-501.76 539,-501 575.19,-491.91 584.72,-491.71 621,-483 653.24,-475.26 689.5,-465.77 716.76,-458.48"/>
<polygon fill="black" stroke="black" points="717.99,-461.77 726.75,-455.8 716.18,-455.01 717.99,-461.77"/>
</g>
<!-- fc_start&#45;&gt;Forecast -->
<g id="edge37" class="edge">
<title>fc_start&#45;&gt;Forecast</title>
<path fill="none" stroke="black" d="M543.43,-72.81C552.45,-63.92 563.61,-52.91 573.49,-43.17"/>
<polygon fill="black" stroke="black" points="576.07,-45.54 580.73,-36.03 571.15,-40.56 576.07,-45.54"/>
</g>
<!-- first_guess&#45;&gt;Canari -->
<g id="edge19" class="edge">
<title>first_guess&#45;&gt;Canari</title>
<path fill="none" stroke="black" d="M410.21,-503.05C413.17,-502.31 416.12,-501.61 419,-501 481.65,-487.65 498.69,-492.76 562,-483 615.58,-474.74 676.97,-463.19 716.79,-455.42"/>
<polygon fill="black" stroke="black" points="717.53,-458.84 726.67,-453.48 716.19,-451.97 717.53,-458.84"/>
</g>
<!-- first_guess&#45;&gt;Screening -->
<g id="edge27" class="edge">
<title>first_guess&#45;&gt;Screening</title>
<path fill="none" stroke="black" d="M333.3,-500.99C316.7,-491.49 295.82,-479.54 277.93,-469.29"/>
<polygon fill="black" stroke="black" points="279.31,-466.05 268.89,-464.11 275.83,-472.12 279.31,-466.05"/>
</g>
<!-- first_guess&#45;&gt;Minim -->
<g id="edge33" class="edge">
<title>first_guess&#45;&gt;Minim</title>
<path fill="none" stroke="black" d="M404.84,-500.93C446.11,-481.4 506.21,-444.99 529,-391 535.22,-376.26 537.78,-368.37 529,-355 503.52,-316.19 450.62,-299.42 413.29,-292.25"/>
<polygon fill="black" stroke="black" points="413.67,-288.76 403.21,-290.47 412.45,-295.65 413.67,-288.76"/>
</g>
<!-- ECMWF_CANARI_SST_SIC&#45;&gt;Canari -->
<g id="edge20" class="edge">
<title>ECMWF_CANARI_SST_SIC&#45;&gt;Canari</title>
<path fill="none" stroke="black" d="M898.17,-500.99C868.53,-489.49 829.63,-474.4 800.49,-463.1"/>
<polygon fill="black" stroke="black" points="801.6,-459.77 791.01,-459.42 799.07,-466.3 801.6,-459.77"/>
</g>
<!-- first_guess_sfx&#45;&gt;Canari -->
<g id="edge21" class="edge">
<title>first_guess_sfx&#45;&gt;Canari</title>
<path fill="none" stroke="black" d="M759,-500.81C759,-492.79 759,-483.05 759,-474.07"/>
<polygon fill="black" stroke="black" points="762.5,-474.03 759,-464.03 755.5,-474.03 762.5,-474.03"/>
</g>
<!-- fc_start_sfx&#45;&gt;Forecast -->
<g id="edge38" class="edge">
<title>fc_start_sfx&#45;&gt;Forecast</title>
<path fill="none" stroke="black" d="M631.05,-213.65C624.8,-176.83 610.16,-90.64 602.64,-46.34"/>
<polygon fill="black" stroke="black" points="606.06,-45.56 600.94,-36.29 599.16,-46.74 606.06,-45.56"/>
</g>
<!-- VarBC&#45;&gt;Screening -->
<g id="edge28" class="edge">
<title>VarBC&#45;&gt;Screening</title>
<path fill="none" stroke="black" d="M244.86,-391.03C245.71,-399.03 245.95,-408.77 245.59,-417.75"/>
<polygon fill="black" stroke="black" points="242.09,-417.59 244.88,-427.81 249.07,-418.08 242.09,-417.59"/>
</g>
<!-- VarBC&#45;&gt;Minim -->
<g id="edge34" class="edge">
<title>VarBC&#45;&gt;Minim</title>
<path fill="none" stroke="black" d="M265.91,-354.8C286.29,-341.78 314.45,-323.78 336.64,-309.6"/>
<polygon fill="black" stroke="black" points="338.58,-312.51 345.13,-304.18 334.81,-306.61 338.58,-312.51"/>
</g>
<!-- bdstrategy&#45;&gt;FirstGuess -->
<g id="edge8" class="edge">
<title>bdstrategy&#45;&gt;FirstGuess</title>
<path fill="none" stroke="black" d="M736.73,-733.92C720.16,-708.8 689.11,-661.73 669.83,-632.51"/>
<polygon fill="black" stroke="black" points="672.68,-630.48 664.26,-624.06 666.84,-634.34 672.68,-630.48"/>
</g>
<!-- bdstrategy&#45;&gt;Interpol_ec_sst -->
<g id="edge16" class="edge">
<title>bdstrategy&#45;&gt;Interpol_ec_sst</title>
<path fill="none" stroke="black" d="M772.91,-733.99C786.57,-724.67 803.7,-712.97 818.52,-702.86"/>
<polygon fill="black" stroke="black" points="820.65,-705.64 826.93,-697.11 816.7,-699.86 820.65,-705.64"/>
</g>
<!-- stabal96cv&#45;&gt;Minim -->
<g id="edge42" class="edge">
<title>stabal96cv&#45;&gt;Minim</title>
<path fill="none" stroke="black" d="M358.44,-354.8C360.77,-343.16 363.89,-327.55 366.55,-314.24"/>
<polygon fill="black" stroke="black" points="370.04,-314.67 368.56,-304.18 363.17,-313.29 370.04,-314.67"/>
</g>
<!-- stabal96bal&#45;&gt;Minim -->
<g id="edge43" class="edge">
<title>stabal96bal&#45;&gt;Minim</title>
<path fill="none" stroke="black" d="M450.17,-354.8C435.56,-342.13 415.5,-324.73 399.37,-310.74"/>
<polygon fill="black" stroke="black" points="401.65,-308.08 391.8,-304.18 397.06,-313.37 401.65,-308.08"/>
</g>
<!-- LISTE_NOIRE_DIAP -->
<g id="node39" class="node">
<title>LISTE_NOIRE_DIAP</title>
<g id="a_node39"><a xlink:href="../Observations/Bator/index.html#LISTE_NOIRE_DIAP-1" xlink:title="LISTE_NOIRE_DIAP">
<polygon fill="none" stroke="black" points="309.5,-697 156.5,-697 156.5,-661 315.5,-661 315.5,-691 309.5,-697"/>
<polyline fill="none" stroke="black" points="309.5,-697 309.5,-691 "/>
<polyline fill="none" stroke="black" points="315.5,-691 309.5,-691 "/>
<text text-anchor="middle" x="236" y="-675.3" font-family="Times,serif" font-size="14.00">LISTE_NOIRE_DIAP</text>
</a>
</g>
</g>
<!-- LISTE_NOIRE_DIAP&#45;&gt;Bator -->
<g id="edge39" class="edge">
<title>LISTE_NOIRE_DIAP&#45;&gt;Bator</title>
<path fill="none" stroke="black" d="M270.97,-660.99C293.21,-650.18 321.99,-636.18 344.68,-625.15"/>
<polygon fill="black" stroke="black" points="346.21,-628.3 353.67,-620.78 343.15,-622 346.21,-628.3"/>
</g>
<!-- LISTE_LOC -->
<g id="node40" class="node">
<title>LISTE_LOC</title>
<g id="a_node40"><a xlink:href="../Observations/Bator/index.html#LISTE_LOC-1" xlink:title="LISTE_LOC">
<polygon fill="none" stroke="black" points="425,-697 333,-697 333,-661 431,-661 431,-691 425,-697"/>
<polyline fill="none" stroke="black" points="425,-697 425,-691 "/>
<polyline fill="none" stroke="black" points="431,-691 425,-691 "/>
<text text-anchor="middle" x="382" y="-675.3" font-family="Times,serif" font-size="14.00">LISTE_LOC</text>
</a>
</g>
</g>
<!-- LISTE_LOC&#45;&gt;Bator -->
<g id="edge40" class="edge">
<title>LISTE_LOC&#45;&gt;Bator</title>
<path fill="none" stroke="black" d="M382,-660.81C382,-652.79 382,-643.05 382,-634.07"/>
<polygon fill="black" stroke="black" points="385.5,-634.03 382,-624.03 378.5,-634.03 385.5,-634.03"/>
</g>
<!-- param_batorcfg -->
<g id="node41" class="node">
<title>param_batorcfg</title>
<polygon fill="none" stroke="black" points="572.5,-697 449.5,-697 449.5,-661 578.5,-661 578.5,-691 572.5,-697"/>
<polyline fill="none" stroke="black" points="572.5,-697 572.5,-691 "/>
<polyline fill="none" stroke="black" points="578.5,-691 572.5,-691 "/>
<text text-anchor="middle" x="514" y="-675.3" font-family="Times,serif" font-size="14.00">param_batorcfg</text>
</g>
<!-- param_batorcfg&#45;&gt;Bator -->
<g id="edge41" class="edge">
<title>param_batorcfg&#45;&gt;Bator</title>
<path fill="none" stroke="black" d="M482.38,-660.99C463.33,-650.75 438.98,-637.65 419.04,-626.92"/>
<polygon fill="black" stroke="black" points="420.68,-623.83 410.22,-622.18 417.36,-630 420.68,-623.83"/>
</g>
</g>
</svg>
