<?xml version="1.0" encoding="UTF-8" standalone="no"?>
<!DOCTYPE svg PUBLIC "-//W3C//DTD SVG 1.1//EN"
 "http://www.w3.org/Graphics/SVG/1.1/DTD/svg11.dtd">
<!-- Generated by graphviz version 2.50.0 (20211204.2007)
 -->
<!-- Title: cloudingest Pages: 1 -->
<svg width="1057pt" height="620pt"
 viewBox="0.00 0.00 1057.00 620.00" xmlns="http://www.w3.org/2000/svg" xmlns:xlink="http://www.w3.org/1999/xlink">
<g id="graph0" class="graph" transform="scale(1 1) rotate(0) translate(4 616)">
<title>cloudingest</title>
<polygon fill="white" stroke="transparent" points="-4,4 -4,-616 1053,-616 1053,4 -4,4"/>
<!-- A -->
<g id="node1" class="node">
<title>A</title>
<polygon fill="#ff99ff" stroke="black" points="236,-612 99,-612 99,-576 242,-576 242,-606 236,-612"/>
<polyline fill="none" stroke="black" points="236,-612 236,-606 "/>
<polyline fill="none" stroke="black" points="242,-606 236,-606 "/>
<text text-anchor="middle" x="170.5" y="-590.3" font-family="Times,serif" font-size="14.00">$WRK/first_guess</text>
</g>
<!-- B -->
<g id="node11" class="node">
<title>B</title>
<polygon fill="yellow" stroke="black" points="245,-540 96,-540 96,-504 245,-504 245,-540"/>
<text text-anchor="middle" x="170.5" y="-518.3" font-family="Times,serif" font-size="14.00">FirstguessFA2grib</text>
</g>
<!-- A&#45;&gt;B -->
<g id="edge1" class="edge">
<title>A&#45;&gt;B</title>
<path fill="none" stroke="black" d="M170.5,-575.7C170.5,-567.98 170.5,-558.71 170.5,-550.11"/>
<polygon fill="black" stroke="black" points="174,-550.1 170.5,-540.1 167,-550.1 174,-550.1"/>
</g>
<!-- C -->
<g id="node2" class="node">
<title>C</title>
<polygon fill="#ff99ff" stroke="black" points="281,-468 54,-468 54,-432 287,-432 287,-462 281,-468"/>
<polyline fill="none" stroke="black" points="281,-468 281,-462 "/>
<polyline fill="none" stroke="black" points="287,-462 281,-462 "/>
<text text-anchor="middle" x="170.5" y="-446.3" font-family="Times,serif" font-size="14.00">$WRK/first_guess_gridpp_grib</text>
</g>
<!-- D -->
<g id="node12" class="node">
<title>D</title>
<polygon fill="yellow" stroke="black" points="228.5,-396 112.5,-396 112.5,-360 228.5,-360 228.5,-396"/>
<text text-anchor="middle" x="170.5" y="-374.3" font-family="Times,serif" font-size="14.00">FirstGuessCB</text>
</g>
<!-- C&#45;&gt;D -->
<g id="edge3" class="edge">
<title>C&#45;&gt;D</title>
<path fill="none" stroke="black" d="M170.5,-431.7C170.5,-423.98 170.5,-414.71 170.5,-406.11"/>
<polygon fill="black" stroke="black" points="174,-406.1 170.5,-396.1 167,-406.1 174,-406.1"/>
</g>
<!-- E -->
<g id="node3" class="node">
<title>E</title>
<polygon fill="#ff99ff" stroke="black" points="335,-324 0,-324 0,-288 341,-288 341,-318 335,-324"/>
<polyline fill="none" stroke="black" points="335,-324 335,-318 "/>
<polyline fill="none" stroke="black" points="341,-318 335,-318 "/>
<text text-anchor="middle" x="170.5" y="-302.3" font-family="Times,serif" font-size="14.00">$ARCHIVE/FirstGuess4Gridpp_cloud_base.nc</text>
</g>
<!-- K -->
<g id="node15" class="node">
<title>K</title>
<polygon fill="yellow" stroke="black" points="414,-252 247,-252 247,-216 414,-216 414,-252"/>
<text text-anchor="middle" x="330.5" y="-230.3" font-family="Times,serif" font-size="14.00">OptimalInterpolation</text>
</g>
<!-- E&#45;&gt;K -->
<g id="edge10" class="edge">
<title>E&#45;&gt;K</title>
<path fill="none" stroke="black" d="M209.64,-287.88C231.51,-278.31 258.96,-266.3 282.16,-256.15"/>
<polygon fill="black" stroke="black" points="283.73,-259.28 291.49,-252.07 280.92,-252.87 283.73,-259.28"/>
</g>
<!-- F -->
<g id="node4" class="node">
<title>F</title>
<polygon fill="#ff99ff" stroke="black" points="589,-612 388,-612 388,-576 595,-576 595,-606 589,-612"/>
<polyline fill="none" stroke="black" points="589,-612 589,-606 "/>
<polyline fill="none" stroke="black" points="595,-606 589,-606 "/>
<text text-anchor="middle" x="491.5" y="-590.3" font-family="Times,serif" font-size="14.00">$OBDIR/obYYYYMMDDHH</text>
</g>
<!-- G -->
<g id="node13" class="node">
<title>G</title>
<polygon fill="yellow" stroke="black" points="534.5,-540 448.5,-540 448.5,-504 534.5,-504 534.5,-540"/>
<text text-anchor="middle" x="491.5" y="-518.3" font-family="Times,serif" font-size="14.00">Bufr2json</text>
</g>
<!-- F&#45;&gt;G -->
<g id="edge5" class="edge">
<title>F&#45;&gt;G</title>
<path fill="none" stroke="black" d="M491.5,-575.7C491.5,-567.98 491.5,-558.71 491.5,-550.11"/>
<polygon fill="black" stroke="black" points="495,-550.1 491.5,-540.1 488,-550.1 495,-550.1"/>
</g>
<!-- H -->
<g id="node5" class="node">
<title>H</title>
<polygon fill="#ff99ff" stroke="black" points="599,-468 378,-468 378,-432 605,-432 605,-462 599,-468"/>
<polyline fill="none" stroke="black" points="599,-468 599,-462 "/>
<polyline fill="none" stroke="black" points="605,-462 599,-462 "/>
<text text-anchor="middle" x="491.5" y="-446.3" font-family="Times,serif" font-size="14.00">$ARCHIVE/obYYYYMMDDHH</text>
</g>
<!-- I -->
<g id="node14" class="node">
<title>I</title>
<polygon fill="yellow" stroke="black" points="551,-396 432,-396 432,-360 551,-360 551,-396"/>
<text text-anchor="middle" x="491.5" y="-374.3" font-family="Times,serif" font-size="14.00">Qualitycontrol</text>
</g>
<!-- H&#45;&gt;I -->
<g id="edge7" class="edge">
<title>H&#45;&gt;I</title>
<path fill="none" stroke="black" d="M491.5,-431.7C491.5,-423.98 491.5,-414.71 491.5,-406.11"/>
<polygon fill="black" stroke="black" points="495,-406.1 491.5,-396.1 488,-406.1 495,-406.1"/>
</g>
<!-- J -->
<g id="node6" class="node">
<title>J</title>
<polygon fill="#ff99ff" stroke="black" points="618,-324 359,-324 359,-288 624,-288 624,-318 618,-324"/>
<polyline fill="none" stroke="black" points="618,-324 618,-318 "/>
<polyline fill="none" stroke="black" points="624,-318 618,-318 "/>
<text text-anchor="middle" x="491.5" y="-302.3" font-family="Times,serif" font-size="14.00">$ARCHIVE/qc_obs_cloud_base.json</text>
</g>
<!-- J&#45;&gt;K -->
<g id="edge9" class="edge">
<title>J&#45;&gt;K</title>
<path fill="none" stroke="black" d="M452.11,-287.88C430.11,-278.31 402.49,-266.3 379.14,-256.15"/>
<polygon fill="black" stroke="black" points="380.32,-252.85 369.76,-252.07 377.53,-259.27 380.32,-252.85"/>
</g>
<!-- L -->
<g id="node7" class="node">
<title>L</title>
<polygon fill="#ff99ff" stroke="black" points="435,-180 220,-180 220,-144 441,-144 441,-174 435,-180"/>
<polyline fill="none" stroke="black" points="435,-180 435,-174 "/>
<polyline fill="none" stroke="black" points="441,-174 435,-174 "/>
<text text-anchor="middle" x="330.5" y="-158.3" font-family="Times,serif" font-size="14.00">$ARCHIVE/an_cloud_base.nc</text>
</g>
<!-- M -->
<g id="node16" class="node">
<title>M</title>
<polygon fill="yellow" stroke="black" points="656,-108 537,-108 537,-72 656,-72 656,-108"/>
<text text-anchor="middle" x="596.5" y="-86.3" font-family="Times,serif" font-size="14.00">MSG_combine</text>
</g>
<!-- L&#45;&gt;M -->
<g id="edge12" class="edge">
<title>L&#45;&gt;M</title>
<path fill="none" stroke="black" d="M395.23,-143.97C435.15,-133.46 486.33,-119.99 527.09,-109.27"/>
<polygon fill="black" stroke="black" points="528.17,-112.6 536.95,-106.67 526.39,-105.83 528.17,-112.6"/>
</g>
<!-- Q -->
<g id="node8" class="node">
<title>Q</title>
<polygon fill="#ff99ff" stroke="black" points="727.5,-180 459.5,-180 459.5,-144 733.5,-144 733.5,-174 727.5,-180"/>
<polyline fill="none" stroke="black" points="727.5,-180 727.5,-174 "/>
<polyline fill="none" stroke="black" points="733.5,-174 727.5,-174 "/>
<text text-anchor="middle" x="596.5" y="-158.3" font-family="Times,serif" font-size="14.00">MXMIN1999+0000 ($WRK/fc_start)</text>
</g>
<!-- Q&#45;&gt;M -->
<g id="edge14" class="edge">
<title>Q&#45;&gt;M</title>
<path fill="none" stroke="black" d="M596.5,-143.7C596.5,-135.98 596.5,-126.71 596.5,-118.11"/>
<polygon fill="black" stroke="black" points="600,-118.1 596.5,-108.1 593,-118.1 600,-118.1"/>
</g>
<!-- O -->
<g id="node9" class="node">
<title>O</title>
<polygon fill="#ff99ff" stroke="black" points="1043,-180 752,-180 752,-144 1049,-144 1049,-174 1043,-180"/>
<polyline fill="none" stroke="black" points="1043,-180 1043,-174 "/>
<polyline fill="none" stroke="black" points="1049,-174 1043,-174 "/>
<text text-anchor="middle" x="900.5" y="-158.3" font-family="Times,serif" font-size="14.00">$OBDIR/MSGcloudYYYYMMDDHH.grib</text>
</g>
<!-- O&#45;&gt;M -->
<g id="edge15" class="edge">
<title>O&#45;&gt;M</title>
<path fill="none" stroke="black" d="M826.52,-143.97C777.63,-132.71 713.95,-118.04 666,-107"/>
<polygon fill="black" stroke="black" points="666.54,-103.54 656.01,-104.7 664.97,-110.36 666.54,-103.54"/>
</g>
<!-- N -->
<g id="node10" class="node">
<title>N</title>
<polygon fill="#ff99ff" stroke="black" points="650,-36 537,-36 537,0 656,0 656,-30 650,-36"/>
<polyline fill="none" stroke="black" points="650,-36 650,-30 "/>
<polyline fill="none" stroke="black" points="656,-30 650,-30 "/>
<text text-anchor="middle" x="596.5" y="-14.3" font-family="Times,serif" font-size="14.00">$WRK/fc_start</text>
</g>
<!-- B&#45;&gt;C -->
<g id="edge2" class="edge">
<title>B&#45;&gt;C</title>
<path fill="none" stroke="black" d="M170.5,-503.7C170.5,-495.98 170.5,-486.71 170.5,-478.11"/>
<polygon fill="black" stroke="black" points="174,-478.1 170.5,-468.1 167,-478.1 174,-478.1"/>
</g>
<!-- D&#45;&gt;E -->
<g id="edge4" class="edge">
<title>D&#45;&gt;E</title>
<path fill="none" stroke="black" d="M170.5,-359.7C170.5,-351.98 170.5,-342.71 170.5,-334.11"/>
<polygon fill="black" stroke="black" points="174,-334.1 170.5,-324.1 167,-334.1 174,-334.1"/>
</g>
<!-- G&#45;&gt;H -->
<g id="edge6" class="edge">
<title>G&#45;&gt;H</title>
<path fill="none" stroke="black" d="M491.5,-503.7C491.5,-495.98 491.5,-486.71 491.5,-478.11"/>
<polygon fill="black" stroke="black" points="495,-478.1 491.5,-468.1 488,-478.1 495,-478.1"/>
</g>
<!-- I&#45;&gt;J -->
<g id="edge8" class="edge">
<title>I&#45;&gt;J</title>
<path fill="none" stroke="black" d="M491.5,-359.7C491.5,-351.98 491.5,-342.71 491.5,-334.11"/>
<polygon fill="black" stroke="black" points="495,-334.1 491.5,-324.1 488,-334.1 495,-334.1"/>
</g>
<!-- K&#45;&gt;L -->
<g id="edge11" class="edge">
<title>K&#45;&gt;L</title>
<path fill="none" stroke="black" d="M330.5,-215.7C330.5,-207.98 330.5,-198.71 330.5,-190.11"/>
<polygon fill="black" stroke="black" points="334,-190.1 330.5,-180.1 327,-190.1 334,-190.1"/>
</g>
<!-- M&#45;&gt;N -->
<g id="edge16" class="edge">
<title>M&#45;&gt;N</title>
<path fill="none" stroke="black" d="M596.5,-71.7C596.5,-63.98 596.5,-54.71 596.5,-46.11"/>
<polygon fill="black" stroke="black" points="600,-46.1 596.5,-36.1 593,-46.1 600,-46.1"/>
</g>
<!-- P -->
<g id="node17" class="node">
<title>P</title>
<polygon fill="yellow" stroke="black" points="627.5,-252 565.5,-252 565.5,-216 627.5,-216 627.5,-252"/>
<text text-anchor="middle" x="596.5" y="-230.3" font-family="Times,serif" font-size="14.00">Minim</text>
</g>
<!-- P&#45;&gt;Q -->
<g id="edge13" class="edge">
<title>P&#45;&gt;Q</title>
<path fill="none" stroke="black" d="M596.5,-215.7C596.5,-207.98 596.5,-198.71 596.5,-190.11"/>
<polygon fill="black" stroke="black" points="600,-190.1 596.5,-180.1 593,-190.1 600,-190.1"/>
</g>
</g>
</svg>
